SplineFontDB: 3.0
FontName: Estedad-Thin
FullName: Estedad Thin
FamilyName: Estedad Thin
Weight: Thin
Copyright: Copyright (c) 2017-2018 by Amin Abedi (@aminabedi68)-www.opentypeshop.com,\nwith Reserved Font Name Estedad.\n\nThis Font Software is licensed under the SIL Open Font License, Version 1.1.
Version: 2.3
StrokeWidth: 100
ItalicAngle: 0
UnderlinePosition: -509
UnderlineWidth: 101
Ascent: 1638
Descent: 410
InvalidEm: 0
sfntRevision: 0x00024ccd
LayerCount: 2
Layer: 0 0 "Back" 1
Layer: 1 0 "Fore" 0
XUID: [1021 89 1101065813 28845]
StyleMap: 0x0000
FSType: 0
OS2Version: 0
OS2_WeightWidthSlopeOnly: 0
OS2_UseTypoMetrics: 1
CreationTime: 1496828874
ModificationTime: 1547317850
PfmFamily: 17
TTFWeight: 100
TTFWidth: 5
LineGap: 0
VLineGap: 213
OS2TypoAscent: 562
OS2TypoAOffset: 1
OS2TypoDescent: -790
OS2TypoDOffset: 1
OS2TypoLinegap: 0
OS2WinAscent: -517
OS2WinAOffset: 1
OS2WinDescent: 133
OS2WinDOffset: 1
HheadAscent: -517
HheadAOffset: 1
HheadDescent: -133
HheadDOffset: 1
OS2CapHeight: 1400
OS2XHeight: 1012
OS2Vendor: 'AA68'
Lookup: 2 0 0 "Multiple substitution 0" { "Multiple substitution 0 subtable"  } []
Lookup: 2 0 0 "Multiple substitution 1" { "Multiple substitution 1 subtable"  } []
Lookup: 1 9 0 "'fina' Terminal Forms in Arabic lookup 2" { "'fina' Terminal Forms in Arabic lookup 2 subtable"  } ['fina' ('arab' <'FAR ' 'KUR ' 'dflt' > ) ]
Lookup: 1 9 0 "'medi' Medial Forms in Arabic lookup 3" { "'medi' Medial Forms in Arabic lookup 3 subtable"  } ['medi' ('arab' <'FAR ' 'KUR ' 'dflt' > ) ]
Lookup: 1 9 0 "'init' Initial Forms in Arabic lookup 4" { "'init' Initial Forms in Arabic lookup 4 subtable"  } ['init' ('arab' <'FAR ' 'KUR ' 'dflt' > ) ]
Lookup: 4 9 1 "'rlig' Required Ligatures in Arabic lookup 5" { "'rlig' Required Ligatures in Arabic lookup 5 subtable"  } ['rlig' ('arab' <'FAR ' 'KUR ' 'dflt' > ) ]

StartChar: period
Encoding: 46 46 0
Width: 407
VWidth: 1338
Flags: HMW
LayerCount: 2
Fore
SplineSet
141 106 m 0
 141 153 180 190 227 190 c 0
 274 190 312 153 312 106 c 0
 312 59 274 21 227 21 c 0
 180 21 141 59 141 106 c 0
EndSplineSet
Colour: ff0000
EndChar

StartChar: slash
Encoding: 47 47 1
Width: 1050
VWidth: 1647
Flags: HMW
LayerCount: 2
Fore
SplineSet
805 1432 m 1
 895 1390 l 1
 245 -21 l 1
 155 21 l 1
 805 1432 l 1
EndSplineSet
Colour: ffff
EndChar

StartChar: asterisk
Encoding: 42 42 2
Width: 1133
VWidth: 1647
Flags: HMW
LayerCount: 2
Fore
SplineSet
188 1109 m 1
 212 1181 l 1
 528 1077 l 1
 528 1411 l 1
 604 1411 l 1
 604 1077 l 1
 921 1181 l 1
 945 1109 l 1
 627 1005 l 1
 824 735 l 1
 764 691 l 1
 566 961 l 1
 369 691 l 1
 309 735 l 1
 505 1005 l 1
 188 1109 l 1
EndSplineSet
Colour: ff00ff
EndChar

StartChar: parenleft
Encoding: 40 40 3
Width: 598
VWidth: 1647
Flags: HMW
LayerCount: 2
Fore
SplineSet
440 27 m 1
 356 -27 l 1
 222 183 150 419 150 706 c 0
 150 993 222 1228 356 1438 c 1
 440 1384 l 1
 316 1190 250 977 250 706 c 0
 250 435 316 221 440 27 c 1
EndSplineSet
Colour: ffff
EndChar

StartChar: parenright
Encoding: 41 41 4
Width: 598
VWidth: 1647
Flags: HMW
LayerCount: 2
Fore
SplineSet
158 1384 m 1
 242 1438 l 1
 376 1228 448 992 448 705 c 0
 448 418 376 183 242 -27 c 1
 158 27 l 1
 282 221 348 434 348 705 c 0
 348 976 282 1190 158 1384 c 1
EndSplineSet
Colour: ffff
EndChar

StartChar: uni0660
Encoding: 1632 1632 5
Width: 845
VWidth: 1954
Flags: HMW
LayerCount: 2
Fore
SplineSet
422 623 m 0
 325 623 250 548 250 451 c 0
 250 354 326 277 422 277 c 0
 518 277 595 354 595 451 c 0
 595 547 519 623 422 623 c 0
422 723 m 0
 573 723 695 603 695 451 c 0
 695 300 574 177 422 177 c 0
 270 177 150 300 150 451 c 0
 150 602 271 723 422 723 c 0
EndSplineSet
PairPos2: "'kern' Horizontal Kerning in Arabic lookup 3 per glyph data 0" uni0662 dx=-125 dy=0 dh=-125 dv=0 dx=0 dy=0 dh=0 dv=0
PairPos2: "'kern' Horizontal Kerning in Arabic lookup 3 per glyph data 0" uni0666 dx=-25 dy=0 dh=-25 dv=0 dx=0 dy=0 dh=0 dv=0
PairPos2: "'kern' Horizontal Kerning in Arabic lookup 3 per glyph data 0" uni0667 dx=-100 dy=0 dh=-100 dv=0 dx=0 dy=0 dh=0 dv=0
PairPos2: "'kern' Horizontal Kerning in Arabic lookup 3 per glyph data 0" uni0661 dx=50 dy=0 dh=50 dv=0 dx=0 dy=0 dh=0 dv=0
Colour: ffff
EndChar

StartChar: uni0661
Encoding: 1633 1633 6
Width: 618
VWidth: 1854
Flags: HMW
LayerCount: 2
Fore
SplineSet
468 25 m 1
 368 25 l 1
 368 485 298 777 153 1195 c 1
 247 1227 l 1
 394 801 468 495 468 25 c 1
EndSplineSet
PairPos2: "'kern' Horizontal Kerning in Arabic lookup 3 per glyph data 0" uni0660 dx=-50 dy=0 dh=-50 dv=0 dx=0 dy=0 dh=0 dv=0
PairPos2: "'kern' Horizontal Kerning in Arabic lookup 3 per glyph data 0" uni0665 dx=-50 dy=0 dh=-50 dv=0 dx=0 dy=0 dh=0 dv=0
Colour: ffff
EndChar

StartChar: uni0662
Encoding: 1634 1634 7
Width: 1086
VWidth: 1854
Flags: HMW
LayerCount: 2
Fore
SplineSet
587 775 m 0
 813 775 836 958 836 1227 c 1
 936 1227 l 1
 936 986 927 675 587 675 c 0
 518 675 451 689 393 732 c 1
 441 501 468 290 468 25 c 1
 368 25 l 1
 368 492 268 822 152 1198 c 1
 248 1227 l 1
 323 981 386 775 587 775 c 0
EndSplineSet
Colour: ffff
EndChar

StartChar: uni0663
Encoding: 1635 1635 8
Width: 1473
VWidth: 1854
Flags: HMW
LayerCount: 2
Fore
SplineSet
863 1208 m 1
 855 1141 852 1115 852 1051 c 0
 852 881 885 780 1031 780 c 0
 1178 780 1219 877 1219 1059 c 0
 1219 1127 1216 1145 1205 1201 c 1
 1303 1221 l 1
 1316 1157 1320 1133 1320 1059 c 0
 1320 865 1258 680 1031 680 c 0
 901 680 818 746 780 842 c 1
 737 750 659 680 538 680 c 0
 485 680 437 691 396 717 c 1
 442 490 468 285 468 25 c 1
 368 25 l 1
 368 491 272 838 152 1197 c 1
 248 1226 l 1
 312 1036 402 780 522 780 c 0
 655 780 706.377929688 870.114257812 737 1035 c 0
 750 1105 755 1138 763 1217 c 1
 863 1208 l 1
EndSplineSet
PairPos2: "'kern' Horizontal Kerning in Arabic lookup 3 per glyph data 0" uni0668 dx=-50 dy=0 dh=-50 dv=0 dx=0 dy=0 dh=0 dv=0
Colour: ffff
EndChar

StartChar: uni0664
Encoding: 1636 1636 9
Width: 997
VWidth: 1854
Flags: HMW
LayerCount: 2
Fore
SplineSet
664 1227 m 1
 664 1127 l 1
 424 1127 311 1060 311 914 c 0
 311 776 437 701 671 701 c 1
 671 601 l 1
 407 601 250 427 250 275 c 0
 250 134 370 125 533 125 c 2
 797 125 l 1
 797 25 l 1
 485 25 l 2
 342 25 150 58 150 275 c 0
 150 418 240 580 375 642 c 1
 279 680 211 793 211 914 c 0
 211 1146 416 1227 664 1227 c 1
EndSplineSet
PairPos2: "'kern' Horizontal Kerning in Arabic lookup 3 per glyph data 0" uni0666 dx=50 dy=0 dh=50 dv=0 dx=0 dy=0 dh=0 dv=0
Colour: ffff
EndChar

StartChar: uni0665
Encoding: 1637 1637 10
Width: 1196
VWidth: 1854
Flags: HMW
LayerCount: 2
Fore
SplineSet
494 1227 m 1
 736 1026 1046 727 1046 389 c 0
 1046 125 861 25 601 25 c 0
 350 25 150 124 150 386 c 0
 150 632 287 828 533 1059 c 1
 498 1092 464 1123 430 1151 c 1
 494 1227 l 1
604 989 m 1
 366 767 250 593 250 386 c 0
 250 194 378 125 601 125 c 0
 831 125 946 189 946 389 c 0
 946 600 789 798 604 989 c 1
EndSplineSet
PairPos2: "'kern' Horizontal Kerning in Arabic lookup 3 per glyph data 0" uni0667 dx=-100 dy=0 dh=-100 dv=0 dx=0 dy=0 dh=0 dv=0
PairPos2: "'kern' Horizontal Kerning in Arabic lookup 3 per glyph data 0" uni0661 dx=50 dy=0 dh=50 dv=0 dx=0 dy=0 dh=0 dv=0
Colour: ffff
EndChar

StartChar: uni0666
Encoding: 1638 1638 11
Width: 1168
VWidth: 1854
Flags: HMW
LayerCount: 2
Fore
SplineSet
189 1129 m 1
 211 1227 l 1
 335 1200 481 1186 618 1186 c 0
 703 1186 786 1192 852 1203 c 1
 910 1152 l 1
 906 1059 904 971 904 886 c 0
 904 520 931 392 1017 49 c 1
 920 25 l 1
 833 372 804 516 804 886 c 0
 804 955 805 1021 808 1096 c 1
 750 1089 685 1086 618 1086 c 0
 475 1086 321 1100 189 1129 c 1
EndSplineSet
PairPos2: "'kern' Horizontal Kerning in Arabic lookup 3 per glyph data 0" uni0668 dx=-200 dy=0 dh=-200 dv=0 dx=0 dy=0 dh=0 dv=0
PairPos2: "'kern' Horizontal Kerning in Arabic lookup 3 per glyph data 0" uni066B dx=-150 dy=0 dh=-150 dv=0 dx=0 dy=0 dh=0 dv=0
PairPos2: "'kern' Horizontal Kerning in Arabic lookup 3 per glyph data 0" uni0660 dx=-200 dy=0 dh=-200 dv=0 dx=0 dy=0 dh=0 dv=0
PairPos2: "'kern' Horizontal Kerning in Arabic lookup 3 per glyph data 0" uni0665 dx=-175 dy=0 dh=-175 dv=0 dx=0 dy=0 dh=0 dv=0
PairPos2: "'kern' Horizontal Kerning in Arabic lookup 3 per glyph data 0" uni0664 dx=-50 dy=0 dh=-50 dv=0 dx=0 dy=0 dh=0 dv=0
Colour: ffff
EndChar

StartChar: uni0667
Encoding: 1639 1639 12
Width: 1315
VWidth: 1854
Flags: HMW
LayerCount: 2
Fore
SplineSet
1075 1227 m 1
 1155 1165 l 1
 925 866 815 632 712 66 c 1
 705 25 l 1
 611 25 l 1
 604 66 l 1
 501 632 390 866 160 1165 c 1
 240 1227 l 1
 446 959 563 735 658 305 c 1
 752 734 869 959 1075 1227 c 1
EndSplineSet
PairPos2: "'kern' Horizontal Kerning in Arabic lookup 3 per glyph data 0" uni066B dx=-125 dy=0 dh=-125 dv=0 dx=0 dy=0 dh=0 dv=0
PairPos2: "'kern' Horizontal Kerning in Arabic lookup 3 per glyph data 0" uni0668 dx=-150 dy=0 dh=-150 dv=0 dx=0 dy=0 dh=0 dv=0
PairPos2: "'kern' Horizontal Kerning in Arabic lookup 3 per glyph data 0" uni0665 dx=-100 dy=0 dh=-100 dv=0 dx=0 dy=0 dh=0 dv=0
PairPos2: "'kern' Horizontal Kerning in Arabic lookup 3 per glyph data 0" uni0660 dx=-100 dy=0 dh=-100 dv=0 dx=0 dy=0 dh=0 dv=0
Colour: ffff
EndChar

StartChar: uni0668
Encoding: 1640 1640 13
Width: 1315
VWidth: 1854
Flags: HMW
LayerCount: 2
Fore
SplineSet
240 25 m 1
 160 87 l 1
 390 386 500 620 603 1186 c 1
 610 1227 l 1
 704 1227 l 1
 711 1186 l 1
 814 620 925 386 1155 87 c 1
 1075 25 l 1
 869 293 752 517 657 947 c 1
 563 518 446 293 240 25 c 1
EndSplineSet
PairPos2: "'kern' Horizontal Kerning in Arabic lookup 3 per glyph data 0" uni0667 dx=-150 dy=0 dh=-150 dv=0 dx=0 dy=0 dh=0 dv=0
PairPos2: "'kern' Horizontal Kerning in Arabic lookup 3 per glyph data 0" uni0662 dx=-175 dy=0 dh=-175 dv=0 dx=0 dy=0 dh=0 dv=0
PairPos2: "'kern' Horizontal Kerning in Arabic lookup 3 per glyph data 0" uni0663 dx=-200 dy=0 dh=-200 dv=0 dx=0 dy=0 dh=0 dv=0
Colour: ffff
EndChar

StartChar: uni0669
Encoding: 1641 1641 14
Width: 1035
VWidth: 1854
Flags: HMW
LayerCount: 2
Fore
SplineSet
681 572 m 1
 624 558 565 550 501 550 c 0
 319 550 150 620 150 826 c 0
 150 1020 260 1227 467 1227 c 0
 708 1227 778 1015 778 799 c 0
 778 735 778 677 779 624 c 0
 785 289 813 220 881 65 c 1
 789 25 l 1
 719 184 689 270 681 572 c 1
679 675 m 1
 678 799 l 0
 678 1007 622 1127 467 1127 c 0
 342 1127 250 994 250 826 c 0
 250 698 335 650 501 650 c 0
 565 650 621 659 679 675 c 1
EndSplineSet
PairPos2: "'kern' Horizontal Kerning in Arabic lookup 3 per glyph data 0" uni0665 dx=-50 dy=0 dh=-50 dv=0 dx=0 dy=0 dh=0 dv=0
PairPos2: "'kern' Horizontal Kerning in Arabic lookup 3 per glyph data 0" uni0668 dx=-150 dy=0 dh=-150 dv=0 dx=0 dy=0 dh=0 dv=0
PairPos2: "'kern' Horizontal Kerning in Arabic lookup 3 per glyph data 0" uni066B dx=200 dy=0 dh=200 dv=0 dx=0 dy=0 dh=0 dv=0
Colour: ffff
EndChar

StartChar: uni06F4
Encoding: 1780 1780 19
Width: 1179
VWidth: 1854
Flags: HMW
LayerCount: 2
Fore
SplineSet
974 579 m 1
 910 573 825 567 761 567 c 0
 602 567 487 596 400 681 c 1
 444 459 468 279 468 25 c 1
 368 25 l 1
 368 487 271 821 154 1197 c 1
 250 1227 l 1
 285 1135 357 930 357 930 c 2
 361 918 365 908 370 897 c 1
 391 1108 565 1227 742 1227 c 0
 813 1227 869 1221 937 1205 c 1
 915 1107 l 1
 853 1121 807 1127 742 1127 c 0
 601 1127 473 1033 473 852 c 0
 473 709 555 667 761 667 c 0
 817 667 904 673 965 679 c 1
 974 579 l 1
EndSplineSet
PairPos2: "'kern' Horizontal Kerning in Arabic lookup 3 per glyph data 1" uni06F8 dx=-50 dy=0 dh=-50 dv=0 dx=0 dy=0 dh=0 dv=0
PairPos2: "'kern' Horizontal Kerning in Arabic lookup 3 per glyph data 1" uni06F0 dx=-25 dy=0 dh=-25 dv=0 dx=0 dy=0 dh=0 dv=0
Colour: ffff
EndChar

StartChar: uni06F5
Encoding: 1781 1781 20
Width: 1276
VWidth: 1854
Flags: HMW
LayerCount: 2
Fore
SplineSet
598 270 m 2
 598 299 l 1
 698 299 l 1
 698 270 l 2
 698 180 773 125 852 125 c 0
 931 125 1026 161 1026 351 c 0
 1026 545 889 767 646 994 c 1
 350 764 250 539 250 366 c 0
 250 166 350 125 434 125 c 0
 517 125 598 181 598 270 c 2
647 124 m 1
 595 59 516 25 434 25 c 0
 288 25 150 126 150 366 c 0
 150 572 265 817 570 1061 c 1
 535 1090 497 1118 459 1145 c 1
 517 1227 l 1
 573 1188 626 1146 675 1103 c 0
 954 858 1126 599 1126 351 c 0
 1126 121 993 25 852 25 c 0
 773 25 696 60 647 124 c 1
EndSplineSet
PairPos2: "'kern' Horizontal Kerning in Arabic lookup 3 per glyph data 1" uni06F9 dx=-75 dy=0 dh=-75 dv=0 dx=0 dy=0 dh=0 dv=0
PairPos2: "'kern' Horizontal Kerning in Arabic lookup 3 per glyph data 1" uni06F7 dx=-100 dy=0 dh=-100 dv=0 dx=0 dy=0 dh=0 dv=0
PairPos2: "'kern' Horizontal Kerning in Arabic lookup 3 per glyph data 1" uni06F3 dx=-25 dy=0 dh=-25 dv=0 dx=0 dy=0 dh=0 dv=0
PairPos2: "'kern' Horizontal Kerning in Arabic lookup 3 per glyph data 1" uni06F2 dx=-25 dy=0 dh=-25 dv=0 dx=0 dy=0 dh=0 dv=0
PairPos2: "'kern' Horizontal Kerning in Arabic lookup 3 per glyph data 1" uni06F1 dx=50 dy=0 dh=50 dv=0 dx=0 dy=0 dh=0 dv=0
Colour: ffff
EndChar

StartChar: uni06F6
Encoding: 1782 1782 21
Width: 1034
VWidth: 1854
Flags: HMW
LayerCount: 2
Fore
SplineSet
776 1123 m 1
 708 1051 l 1
 665 1092 598 1127 514 1127 c 0
 369 1127 256 1021 256 855 c 0
 256 709 394 636 565 636 c 0
 679 636 767 674 840 718 c 1
 908 637 l 1
 648 462 414 280 243 25 c 1
 157 75 l 1
 284 264 432 393 605 537 c 1
 592 536 578 536 565 536 c 0
 376 536 156 625 156 855 c 0
 156 1073 313 1227 514 1227 c 0
 628 1227 717 1178 776 1123 c 1
EndSplineSet
Colour: ffff
EndChar

StartChar: uni0654
Encoding: 1620 1620 25
Width: 0
VWidth: 1854
Flags: HMW
AnchorPoint: "Anchor-1" 0 1598 basemark 0
AnchorPoint: "Anchor-1" 1 1209 mark 0
AnchorPoint: "Anchor-4" 1 1209 mark 0
AnchorPoint: "Anchor-5" 1 1209 mark 0
LayerCount: 2
Fore
SplineSet
-209 1536 m 1
 -233 1590 l 1
 -124 1640 l 1
 -169 1690 -193 1750 -193 1806 c 0
 -193 1900 -124 1982 0 1982 c 2
 82 1982 l 1
 82 1922 l 1
 0 1922 l 2
 -94 1922 -133 1868 -133 1806 c 0
 -133 1762 -111 1707 -66 1666 c 1
 164 1770 l 1
 188 1716 l 1
 -209 1536 l 1
EndSplineSet
Colour: ff00
EndChar

StartChar: uni0653
Encoding: 1619 1619 27
Width: 0
VWidth: 1854
Flags: HMW
AnchorPoint: "Anchor-1" 0 1598 basemark 0
AnchorPoint: "Anchor-1" 1 1209 mark 0
AnchorPoint: "Anchor-4" 1 1209 mark 0
AnchorPoint: "Anchor-5" 1 1209 mark 0
LayerCount: 2
Fore
SplineSet
198 1690 m 1
 254 1666 l 1
 228 1603 172 1542 94 1542 c 0
 59 1542 23 1555 -12 1582 c 0
 -38 1602 -61 1609 -79 1609 c 0
 -122 1609 -163 1572 -185 1526 c 1
 -239 1552 l 1
 -212 1608 -156 1669 -79 1669 c 0
 -45 1669 -10 1656 24 1630 c 0
 51 1609 75 1602 94 1602 c 0
 136 1602 176 1639 198 1690 c 1
EndSplineSet
Colour: ff00
EndChar

StartChar: uni0652
Encoding: 1618 1618 28
Width: 0
VWidth: 1854
Flags: HMW
AnchorPoint: "Anchor-1" 0 1598 basemark 0
AnchorPoint: "Anchor-1" 1 1209 mark 0
AnchorPoint: "Anchor-4" 1 1209 mark 0
AnchorPoint: "Anchor-5" 1 1209 mark 0
LayerCount: 2
Fore
SplineSet
0 1822 m 0
 -69 1822 -123 1768 -123 1699 c 0
 -123 1630 -69 1575 0 1575 c 0
 68 1575 124 1631 124 1699 c 0
 124 1767 69 1822 0 1822 c 0
0 1882 m 0
 101 1882 184 1801 184 1699 c 0
 184 1597 102 1515 0 1515 c 0
 -103 1515 -183 1598 -183 1699 c 0
 -183 1800 -103 1882 0 1882 c 0
EndSplineSet
Colour: ff00
EndChar

StartChar: uni0651
Encoding: 1617 1617 29
Width: 0
VWidth: 1854
Flags: HMW
AnchorPoint: "Anchor-1" 0 1598 basemark 0
AnchorPoint: "Anchor-1" 0 1209 mark 0
AnchorPoint: "Anchor-4" 0 1209 mark 0
AnchorPoint: "Anchor-5" 0 1209 mark 0
LayerCount: 2
Fore
SplineSet
157 1877 m 1
 213 1897 l 1
 233 1843 246 1792 246 1726 c 0
 246 1633 192 1574 124 1574 c 0
 76 1574 29 1604 -0 1655 c 1
 -30 1602 -76 1574 -124 1574 c 0
 -192 1574 -246 1633 -246 1726 c 0
 -246 1792 -233 1843 -213 1897 c 1
 -157 1877 l 1
 -175 1827 -186 1784 -186 1726 c 0
 -186 1655 -152 1634 -124 1634 c 0
 -94 1634 -52 1659 -36 1726 c 0
 -32 1742 -30 1761 -30 1782 c 2
 -30 1857 l 1
 30 1857 l 1
 30 1782 l 2
 30 1761 32 1741 36 1725 c 0
 52 1659 94 1634 124 1634 c 0
 152 1634 186 1655 186 1726 c 0
 186 1784 175 1827 157 1877 c 1
EndSplineSet
Colour: ff00
EndChar

StartChar: uni064E
Encoding: 1614 1614 30
Width: 0
VWidth: 1854
Flags: HMW
AnchorPoint: "Anchor-1" 0 1598 basemark 0
AnchorPoint: "Anchor-1" 1 1209 mark 0
AnchorPoint: "Anchor-4" 1 1209 mark 0
AnchorPoint: "Anchor-5" 1 1209 mark 0
LayerCount: 2
Fore
SplineSet
164 1770 m 1
 188 1716 l 1
 -209 1536 l 1
 -233 1590 l 1
 164 1770 l 1
EndSplineSet
Colour: ff00
EndChar

StartChar: uni064F
Encoding: 1615 1615 31
Width: 0
VWidth: 1854
Flags: HMW
AnchorPoint: "Anchor-1" 0 1598 basemark 0
AnchorPoint: "Anchor-1" 1 1209 mark 0
AnchorPoint: "Anchor-4" 1 1209 mark 0
AnchorPoint: "Anchor-5" 1 1209 mark 0
LayerCount: 2
Fore
SplineSet
19 1676 m 1
 -52 1703 -128 1753 -128 1836 c 0
 -128 1923 -48 1989 26 1989 c 0
 116 1989 157 1904 157 1845 c 0
 157 1776 130 1715 88 1663 c 0
 17 1576 -97 1515 -204 1496 c 1
 -214 1556 l 1
 -131 1571 -42 1614 19 1676 c 1
59 1726 m 1
 83 1763 97 1803 97 1845 c 0
 97 1884 70 1929 26 1929 c 0
 -16 1929 -68 1885 -68 1836 c 0
 -68 1792 -18 1751 59 1726 c 1
EndSplineSet
Colour: ff00
EndChar

StartChar: uni064C
Encoding: 1612 1612 34
Width: 0
VWidth: 1854
Flags: HMW
AnchorPoint: "Anchor-1" 0 1598 basemark 0
AnchorPoint: "Anchor-1" 1 1209 mark 0
AnchorPoint: "Anchor-4" 1 1209 mark 0
AnchorPoint: "Anchor-5" 1 1209 mark 0
LayerCount: 2
Fore
SplineSet
-187 1699 m 1
 -237 1665 l 1
 -273 1719 -294 1783 -294 1852 c 0
 -294 2038 -144 2188 42 2188 c 1
 42 2128 l 1
 -111 2128 -234 2004 -234 1852 c 0
 -234 1795 -217 1743 -187 1699 c 1
EndSplineSet
Refer: 31 1615 N 1 0 0 1 0 0 2
Colour: ff00
EndChar

StartChar: GAFbar
Encoding: 1114122 -1 44
Width: 999
VWidth: 1804
Flags: HMW
LayerCount: 2
Fore
SplineSet
821 1885 m 1
 837 1811 l 1
 579 1758 316 1654 95 1513 c 1
 55 1577 l 1
 284 1724 555 1830 821 1885 c 1
EndSplineSet
Colour: ff00ff
EndChar

StartChar: dotlessfinalBEH
Encoding: 1114123 -1 45
Width: 1973
VWidth: 1854
Flags: HMW
AnchorPoint: "Anchor-5" 944 823 basechar 0
AnchorPoint: "Anchor-3" 767 -4 basechar 0
LayerCount: 2
Fore
SplineSet
190 698 m 1
 282 660 l 1
 249 579 227 476 227 413 c 0
 227 213 407 127 767 127 c 0
 1236 127 1560 226 1629 508 c 1
 1655 606 l 1
 1752 582 l 1
 1728 484 l 2
 1712 421 1701 361 1701 310 c 0
 1701 204 1736 125 1973 125 c 1
 1973 25 l 1
 1735 25 1623 118 1604 260 c 1
 1429 80 1121 27 767 27 c 0
 411 27 127 117 127 413 c 0
 127 495 152 605 190 698 c 1
EndSplineSet
Colour: ffff
EndChar

StartChar: dotlessinitialFEH
Encoding: 1114124 -1 46
Width: 921
VWidth: 1854
Flags: HMW
AnchorPoint: "Anchor-5" 463 1073 basechar 0
AnchorPoint: "Anchor-3" 422 -4 basechar 0
LayerCount: 2
Fore
SplineSet
0 25 m 1
 -28 25 -50 47 -50 75 c 0
 -50 103 -28 125 0 125 c 1
 393 125 669 148 691 403 c 1
 626 384 558 372 481 372 c 0
 308 372 155 448 155 651 c 0
 155 841 281 1048 463 1048 c 0
 753 1048 793 624 793 446 c 0
 793 44 390 25 0 25 c 1
691 507 m 1
 680 714 612 948 463 948 c 0
 365 948 255 811 255 651 c 0
 255 518 332 472 481 472 c 0
 559 472 624 485 691 507 c 1
EndSplineSet
Colour: ffff
EndChar

StartChar: dotlessfinalFEH
Encoding: 1114125 -1 47
Width: 1876
VWidth: 2374
Flags: HMW
AnchorPoint: "Anchor-5" 1406 887 basechar 0
AnchorPoint: "Anchor-3" 891 0 basechar 0
LayerCount: 2
Fore
SplineSet
1417 93 m 1
 1272 42 1093 25 891 25 c 0
 496 25 129 67 129 400 c 0
 129 509 162 611 190 695 c 1
 284 663 l 1
 257 580 229 489 229 400 c 0
 229 179 470 125 891 125 c 0
 1039 125 1174 135 1286 160 c 1
 1180 233 1112 343 1112 489 c 0
 1112 694 1243 815 1422 815 c 0
 1598 815 1732 694 1732 489 c 0
 1732 341 1664 230 1552 158 c 1
 1649 136 1760 125 1876 125 c 1
 1876 25 l 1
 1709 25 1547 44 1417 93 c 1
1419 201 m 1
 1553 256 1632 344 1632 489 c 0
 1632 644 1546 715 1422 715 c 0
 1295 715 1212 644 1212 489 c 0
 1212 346 1293 257 1419 201 c 1
EndSplineSet
Colour: ffff
EndChar

StartChar: dotlessmedialFEH
Encoding: 1114126 -1 48
Width: 908
VWidth: 1870
Flags: HMW
LayerCount: 2
Fore
SplineSet
0 125 m 0
 116 125 227 135 323 157 c 1
 214 230 144 341 144 489 c 0
 144 694 275 815 454 815 c 0
 630 815 764 694 764 489 c 0
 764 341 693 230 585 157 c 1
 681 135 792 125 908 125 c 1
 908 25 l 1
 743 25 583 45 454 92 c 1
 325 45 165 25 0 25 c 0
 -28 25 -50 47 -50 75 c 0
 -50 103 -28 125 0 125 c 0
454 199 m 1
 582 255 664 345 664 489 c 0
 664 644 578 715 454 715 c 0
 327 715 244 644 244 489 c 0
 244 345 325 255 454 199 c 1
EndSplineSet
Colour: ffff
EndChar

StartChar: dotlessfinalQAF
Encoding: 1114127 -1 49
Width: 1505
VWidth: 1854
Flags: HMW
AnchorPoint: "Anchor-3" 728 -504 basechar 0
AnchorPoint: "Anchor-5" 1047 726 basechar 0
LayerCount: 2
Fore
SplineSet
228 -3 m 0
 228 -240 453 -379 728 -379 c 0
 1004 -379 1236 -241 1272 25 c 1
 1065 25 l 2
 892 25 739 101 739 304 c 0
 739 494 865 701 1047 701 c 0
 1326 701 1373 309 1377 125 c 1
 1505 125 l 1
 1505 25 l 1
 1373 25 l 1
 1335 -315 1038 -479 728 -479 c 0
 429 -479 128 -320 128 -3 c 0
 128 151 196 326 287 495 c 1
 369 444 l 1
 287 289 228 132 228 -3 c 0
1277 125 m 1
 1272 332 1206 601 1047 601 c 0
 949 601 839 464 839 304 c 0
 839 171 916 125 1065 125 c 2
 1277 125 l 1
EndSplineSet
Colour: ffff
EndChar

StartChar: uniFEFB
Encoding: 65275 65275 51
Width: 1033
VWidth: 1854
Flags: HMW
AnchorPoint: "Anchor-4" 154 1146 baselig 1
AnchorPoint: "Anchor-4" 858 1211 baselig 0
AnchorPoint: "Anchor-2" 232 0 baselig 1
AnchorPoint: "Anchor-2" 821 0 baselig 0
LayerCount: 2
Fore
SplineSet
599 646 m 1
 471 839 288 991 125 1105 c 1
 183 1187 l 1
 352 1070 526 928 658 737 c 1
 747 888 808 1012 808 1211 c 1
 908 1211 l 1
 908 973 829 816 719 645 c 1
 809 499 871 361 871 253 c 0
 871 60 666 25 528 25 c 0
 398.581587652 25 272.934407949 62.3007951613 188 114 c 1
 188 244 l 1
 322.123573132 344.592679849 473.371372393 470.332851228 599 646 c 1
656 555 m 1
 541 403 404 281 288 194 c 1
 288 172 l 1
 347 145 446 125 528 125 c 0
 674 125 771 162 771 253 c 0
 771 317 729 430 656 555 c 1
EndSplineSet
PairPos2: "'kern' Horizontal Kerning in Arabic lookup 2 per glyph data 0" uni0686 dx=-150 dy=0 dh=-150 dv=0 dx=0 dy=0 dh=0 dv=0
PairPos2: "'kern' Horizontal Kerning in Arabic lookup 2 per glyph data 0" uni063A dx=-150 dy=0 dh=-150 dv=0 dx=0 dy=0 dh=0 dv=0
PairPos2: "'kern' Horizontal Kerning in Arabic lookup 2 per glyph data 0" uni0639 dx=-150 dy=0 dh=-150 dv=0 dx=0 dy=0 dh=0 dv=0
PairPos2: "'kern' Horizontal Kerning in Arabic lookup 2 per glyph data 0" uni062E dx=-150 dy=0 dh=-150 dv=0 dx=0 dy=0 dh=0 dv=0
PairPos2: "'kern' Horizontal Kerning in Arabic lookup 2 per glyph data 0" uni062D dx=-150 dy=0 dh=-150 dv=0 dx=0 dy=0 dh=0 dv=0
PairPos2: "'kern' Horizontal Kerning in Arabic lookup 2 per glyph data 0" uni062C dx=-150 dy=0 dh=-150 dv=0 dx=0 dy=0 dh=0 dv=0
Ligature2: "'rlig' Required Ligatures in Arabic lookup 5 subtable" uniFEDF uniFE8E
LCarets2: 1 0
Colour: ffff
EndChar

StartChar: uniFEFC
Encoding: 65276 65276 52
Width: 1372
VWidth: 1854
Flags: HMW
AnchorPoint: "Anchor-2" 976 0 baselig 0
AnchorPoint: "Anchor-2" 266 0 baselig 1
AnchorPoint: "Anchor-4" 988 1211 baselig 0
AnchorPoint: "Anchor-4" 151 1211 baselig 1
LayerCount: 2
Back
SplineSet
1450 75 m 17
 1303 75 1206 111 1147 185 c 0
 1088 259 1066 370 1066 517 c 2
 1066 1411 l 1
 1066 517 l 2
 1066 222 977 75 683 75 c 2
 178 75 l 17
 178 85 l 17
 386 85 477 299 477 579 c 0
 477 859 386 1193 229 1411 c 1024
EndSplineSet
Fore
SplineSet
349 365 m 1
 349 682 293 911 170 1196 c 1
 262 1234 l 1
 391 935 449 694 449 365 c 1
 349 365 l 1
1372 25 m 1
 1162 25 1028 101 972 261 c 1
 852 80 567 25 100 25 c 1
 100 125 l 1
 749 125 938 220 938 516 c 2
 938 1211 l 1
 1038 1211 l 1
 1038 517 l 2
 1038 374 1061 275 1108 216 c 0
 1154 158 1232 125 1372 125 c 1
 1372 25 l 1
EndSplineSet
PairPos2: "'kern' Horizontal Kerning in Arabic lookup 2 per glyph data 0" uni0686 dx=-150 dy=0 dh=-150 dv=0 dx=0 dy=0 dh=0 dv=0
PairPos2: "'kern' Horizontal Kerning in Arabic lookup 2 per glyph data 0" uni063A dx=-180 dy=0 dh=-180 dv=0 dx=0 dy=0 dh=0 dv=0
PairPos2: "'kern' Horizontal Kerning in Arabic lookup 2 per glyph data 0" uni0639 dx=-180 dy=0 dh=-180 dv=0 dx=0 dy=0 dh=0 dv=0
PairPos2: "'kern' Horizontal Kerning in Arabic lookup 2 per glyph data 0" uni062E dx=-150 dy=0 dh=-150 dv=0 dx=0 dy=0 dh=0 dv=0
PairPos2: "'kern' Horizontal Kerning in Arabic lookup 2 per glyph data 0" uni062D dx=-150 dy=0 dh=-150 dv=0 dx=0 dy=0 dh=0 dv=0
PairPos2: "'kern' Horizontal Kerning in Arabic lookup 2 per glyph data 0" uni062C dx=-150 dy=0 dh=-150 dv=0 dx=0 dy=0 dh=0 dv=0
Ligature2: "'rlig' Required Ligatures in Arabic lookup 5 subtable" uniFEE0 uniFE8E
LCarets2: 1 0
Colour: ffff
EndChar

StartChar: uni060C
Encoding: 1548 1548 59
Width: 504
VWidth: 1555
Flags: HMW
LayerCount: 2
Fore
SplineSet
277 463 m 1
 333 424 l 1
 298 366 260 227 260 172 c 1
 313 172 371 148 371 88 c 0
 371 48 349 0 283 0 c 0
 220 0 187 45 187 111 c 0
 187 229 222 378 277 463 c 1
EndSplineSet
EndChar

StartChar: uni0615
Encoding: 1557 1557 61
Width: 0
VWidth: 1854
Flags: HMW
AnchorPoint: "Anchor-5" 1 1209 mark 0
AnchorPoint: "Anchor-4" 1 1209 mark 0
AnchorPoint: "Anchor-1" 1 1209 mark 0
AnchorPoint: "Anchor-1" 0 1598 basemark 0
LayerCount: 2
Fore
SplineSet
532 1516 m 0
 532 1356 335 1346 119 1344 c 2
 0 1344 l 1
 0 1404 l 1
 120 1404 l 1
 120 1837 l 1
 180 1837 l 1
 180 1518 l 1
 245 1605 322 1650 394 1650 c 0
 470 1650 532 1598 532 1516 c 0
181 1405 m 1
 390 1410 472 1438 472 1516 c 0
 472 1564 442 1590 394 1590 c 0
 335 1590 249 1538 181 1405 c 1
EndSplineSet
Colour: ff00
EndChar

StartChar: less
Encoding: 60 60 63
Width: 775
VWidth: 1819
Flags: HMW
LayerCount: 2
Fore
SplineSet
571 1152 m 1
 623 1098 l 1
 232 728 l 1
 623 357 l 1
 571 303 l 1
 124 728 l 1
 571 1152 l 1
EndSplineSet
Colour: ff00ff
EndChar

StartChar: greater
Encoding: 62 62 65
Width: 775
VWidth: 1819
Flags: HMW
LayerCount: 2
Fore
SplineSet
176 303 m 1
 124 357 l 1
 515 727 l 1
 124 1098 l 1
 176 1152 l 1
 623 727 l 1
 176 303 l 1
EndSplineSet
Colour: ff00
EndChar

StartChar: braceleft
Encoding: 123 123 66
Width: 656
VWidth: 1647
Flags: HMW
LayerCount: 2
Fore
SplineSet
556 108 m 1
 556 22 l 1
 422 22 l 2
 313 22 235 93 235 189 c 2
 235 465 l 2
 235 567 167 636 84 660 c 2
 50 670 l 1
 50 740 l 1
 84 750 l 2
 167 774 235 843 235 945 c 2
 235 1221 l 2
 235 1317 313 1388 422 1388 c 2
 556 1388 l 1
 556 1304 l 1
 422 1304 l 2
 369 1304 335 1277 335 1221 c 2
 335 945 l 2
 335 841 280 756 197 705 c 1
 279 655 335 570 335 465 c 2
 335 189 l 2
 335 133 369 108 422 108 c 2
 556 108 l 1
EndSplineSet
Colour: ffff00
EndChar

StartChar: braceright
Encoding: 125 125 67
Width: 656
VWidth: 1647
Flags: HMW
LayerCount: 2
Fore
SplineSet
100 1304 m 1
 100 1332 100 1360 100 1388 c 1
 234 1388 l 2
 343 1388 421 1318 421 1222 c 2
 421 946 l 2
 421 844 489 775 572 751 c 2
 606 741 l 1
 606 671 l 1
 572 661 l 2
 489 637 421 568 421 466 c 2
 421 190 l 2
 421 94 343 22 234 22 c 2
 100 22 l 1
 100 108 l 1
 234 108 l 2
 287 108 321 134 321 190 c 2
 321 466 l 2
 321 570 376 655 459 706 c 1
 377 756 321 841 321 946 c 2
 321 1222 l 2
 321 1278 287 1304 234 1304 c 2
 100 1304 l 1
EndSplineSet
Colour: ffff00
EndChar

StartChar: uni061F
Encoding: 1567 1567 70
Width: 1067
VWidth: 1854
Flags: HMW
LayerCount: 2
Fore
SplineSet
604 405 m 1
 504 405 l 1
 504 581 416 646 325 706 c 0
 238 763 150 840 150 983 c 0
 150 1200 291 1388 539 1388 c 0
 793 1388 917 1219 917 1024 c 0
 917 998 916 971 912 942 c 1
 812 954 l 1
 816 977 817 1000 817 1024 c 0
 817 1191 725 1304 539 1304 c 0
 365 1304 250 1174 250 983 c 0
 250 874 306 827 387 774 c 0
 486 708 604 613 604 405 c 1
EndSplineSet
Refer: 0 46 N -1 0 0 1 778 0 2
Colour: ffff00
EndChar

StartChar: uni0621
Encoding: 1569 1569 71
Width: 878
VWidth: 1854
Flags: HMW
AnchorPoint: "Anchor-5" 431 831 basechar 0
AnchorPoint: "Anchor-3" 431 65 basechar 0
LayerCount: 2
Fore
SplineSet
669 607 m 1
 611 559 l 1
 574 603 517 644 431 644 c 0
 327 644 222 558 222 410 c 0
 222 297 333 258 508 258 c 1
 508 256 l 1
 733 349 l 1
 761 279 l 1
 146 25 l 1
 118 95 l 1
 361 195 l 1
 244 218 146 276 146 410 c 0
 146 598 285 718 431 718 c 0
 543 718 622 663 669 607 c 1
EndSplineSet
Colour: ff00ff
EndChar

StartChar: uni0627
Encoding: 1575 1575 72
Width: 500
VWidth: 1854
Flags: HMW
AnchorPoint: "Anchor-5" 251 1211 basechar 0
AnchorPoint: "Anchor-3" 251 0 basechar 0
LayerCount: 2
Fore
SplineSet
300 0 m 1
 200 0 l 1
 200 1211 l 1
 300 1211 l 1
 300 0 l 1
EndSplineSet
PairPos2: "'kern' Horizontal Kerning in Arabic lookup 2 per glyph data 1" uni063A dx=-225 dy=0 dh=-225 dv=0 dx=0 dy=0 dh=0 dv=0
PairPos2: "'kern' Horizontal Kerning in Arabic lookup 2 per glyph data 1" uni0639 dx=-225 dy=0 dh=-225 dv=0 dx=0 dy=0 dh=0 dv=0
PairPos2: "'kern' Horizontal Kerning in Arabic lookup 2 per glyph data 0" uni0639 dx=-200 dy=0 dh=-200 dv=0 dx=0 dy=0 dh=0 dv=0
PairPos2: "'kern' Horizontal Kerning in Arabic lookup 2 per glyph data 0" uni063A dx=-200 dy=0 dh=-200 dv=0 dx=0 dy=0 dh=0 dv=0
PairPos2: "'kern' Horizontal Kerning in Arabic lookup 2 per glyph data 0" uni0622 dx=200 dy=0 dh=200 dv=0 dx=0 dy=0 dh=0 dv=0
Substitution2: "'medi' Medial Forms in Arabic lookup 3 subtable" uniFE8E
Substitution2: "'fina' Terminal Forms in Arabic lookup 2 subtable" uniFE8E
Colour: ffff
EndChar

StartChar: uni062D
Encoding: 1581 1581 73
Width: 1464
VWidth: 1854
Flags: HMW
AnchorPoint: "Anchor-5" 507 853 basechar 0
AnchorPoint: "Anchor-3" 805 -736 basechar 0
LayerCount: 2
Fore
SplineSet
1268 -525 m 1
 1304 -619 l 1
 1153 -676 997 -711 805 -711 c 0
 483 -711 126 -574 126 -226 c 0
 126 209 626 387 1126 525 c 1
 613 710 l 2
 573 723 537 728 507 728 c 0
 373 728 300 635 278 442 c 1
 178 454 l 1
 202 665 303 828 507 828 c 0
 551 828 596 822 645 804 c 2
 1264 581 l 1
 1264 459 l 1
 710.217550046 309.32906758 226 143.609483993 226 -226 c 0
 226 -484 493 -611 805 -611 c 0
 985 -611 1125 -578 1268 -525 c 1
EndSplineSet
Substitution2: "'init' Initial Forms in Arabic lookup 4 subtable" uniFEA3
Substitution2: "'medi' Medial Forms in Arabic lookup 3 subtable" uniFEA4
Substitution2: "'fina' Terminal Forms in Arabic lookup 2 subtable" uniFEA2
Colour: ffff
EndChar

StartChar: uni062F
Encoding: 1583 1583 74
Width: 936
VWidth: 1854
Flags: HMW
AnchorPoint: "Anchor-5" 485 904 basechar 0
AnchorPoint: "Anchor-3" 469 0 basechar 0
LayerCount: 2
Fore
SplineSet
400 814 m 1
 464 890 l 1
 688 702 808 523 808 327 c 0
 808 99 570 25 352 25 c 0
 271 25 187 36 106 57 c 1
 131 153 l 1
 204 134 279 125 352 125 c 0
 568 125 708 195 708 327 c 0
 708 479 616 632 400 814 c 1
EndSplineSet
PairPos2: "'kern' Horizontal Kerning in Arabic lookup 2 per glyph data 3" uniFEDB dx=-300 dy=0 dh=-300 dv=0 dx=0 dy=0 dh=0 dv=0
PairPos2: "'kern' Horizontal Kerning in Arabic lookup 2 per glyph data 3" uniFB94 dx=-300 dy=0 dh=-300 dv=0 dx=0 dy=0 dh=0 dv=0
PairPos2: "'kern' Horizontal Kerning in Arabic lookup 2 per glyph data 3" uniFB90 dx=-300 dy=0 dh=-300 dv=0 dx=0 dy=0 dh=0 dv=0
PairPos2: "'kern' Horizontal Kerning in Arabic lookup 2 per glyph data 3" uni06AF dx=-300 dy=0 dh=-300 dv=0 dx=0 dy=0 dh=0 dv=0
PairPos2: "'kern' Horizontal Kerning in Arabic lookup 2 per glyph data 3" uni06A9 dx=-300 dy=0 dh=-300 dv=0 dx=0 dy=0 dh=0 dv=0
PairPos2: "'kern' Horizontal Kerning in Arabic lookup 2 per glyph data 1" uni063A dx=-250 dy=0 dh=-250 dv=0 dx=0 dy=0 dh=0 dv=0
PairPos2: "'kern' Horizontal Kerning in Arabic lookup 2 per glyph data 1" uni0639 dx=-250 dy=0 dh=-250 dv=0 dx=0 dy=0 dh=0 dv=0
Substitution2: "'fina' Terminal Forms in Arabic lookup 2 subtable" uniFEAA
Colour: ffff
EndChar

StartChar: uni0631
Encoding: 1585 1585 75
Width: 834
VWidth: 1854
Flags: HMW
AnchorPoint: "Anchor-3" 488 -402 basechar 0
AnchorPoint: "Anchor-5" 556 571 basechar 0
LayerCount: 2
Fore
SplineSet
510 552 m 1
 602 590 l 1
 668 426 706 272 706 131 c 0
 706 -153 499 -372 167 -493 c 1
 133 -399 l 1
 436 -288 606 -109 606 131 c 0
 606 254 572 396 510 552 c 1
EndSplineSet
PairPos2: "'kern' Horizontal Kerning in Arabic lookup 2 per glyph data 7" uni06CE dx=-100 dy=0 dh=-100 dv=0 dx=0 dy=0 dh=0 dv=0
PairPos2: "'kern' Horizontal Kerning in Arabic lookup 2 per glyph data 7" uni06C6 dx=-150 dy=0 dh=-150 dv=0 dx=0 dy=0 dh=0 dv=0
PairPos2: "'kern' Horizontal Kerning in Arabic lookup 2 per glyph data 7" uni06BE dx=-250 dy=0 dh=-250 dv=0 dx=0 dy=0 dh=0 dv=0
PairPos2: "'kern' Horizontal Kerning in Arabic lookup 2 per glyph data 7" uniFBE8 dx=-225 dy=0 dh=-225 dv=0 dx=0 dy=0 dh=0 dv=0
PairPos2: "'kern' Horizontal Kerning in Arabic lookup 2 per glyph data 7" uni06BA dx=-150 dy=0 dh=-150 dv=0 dx=0 dy=0 dh=0 dv=0
PairPos2: "'kern' Horizontal Kerning in Arabic lookup 2 per glyph data 7" uniE017 dx=-325 dy=0 dh=-325 dv=0 dx=0 dy=0 dh=0 dv=0
PairPos2: "'kern' Horizontal Kerning in Arabic lookup 2 per glyph data 7" uniE015 dx=-250 dy=0 dh=-250 dv=0 dx=0 dy=0 dh=0 dv=0
PairPos2: "'kern' Horizontal Kerning in Arabic lookup 2 per glyph data 7" uni06B5 dx=-112 dy=0 dh=-112 dv=0 dx=0 dy=0 dh=0 dv=0
PairPos2: "'kern' Horizontal Kerning in Arabic lookup 2 per glyph data 7" uniFB6C dx=-250 dy=0 dh=-250 dv=0 dx=0 dy=0 dh=0 dv=0
PairPos2: "'kern' Horizontal Kerning in Arabic lookup 2 per glyph data 7" uni06A4 dx=-250 dy=0 dh=-250 dv=0 dx=0 dy=0 dh=0 dv=0
PairPos2: "'kern' Horizontal Kerning in Arabic lookup 2 per glyph data 7" uni0695 dx=-150 dy=0 dh=-150 dv=0 dx=0 dy=0 dh=0 dv=0
PairPos2: "'kern' Horizontal Kerning in Arabic lookup 2 per glyph data 7" uni06D5 dx=-250 dy=0 dh=-250 dv=0 dx=0 dy=0 dh=0 dv=0
PairPos2: "'kern' Horizontal Kerning in Arabic lookup 2 per glyph data 7" uniE012 dx=-150 dy=0 dh=-150 dv=0 dx=0 dy=0 dh=0 dv=0
PairPos2: "'kern' Horizontal Kerning in Arabic lookup 2 per glyph data 4" parenleft dx=-300 dy=0 dh=-300 dv=0 dx=0 dy=0 dh=0 dv=0
PairPos2: "'kern' Horizontal Kerning in Arabic lookup 2 per glyph data 4" less dx=-420 dy=0 dh=-420 dv=0 dx=0 dy=0 dh=0 dv=0
PairPos2: "'kern' Horizontal Kerning in Arabic lookup 2 per glyph data 4" guillemotleft dx=-420 dy=0 dh=-420 dv=0 dx=0 dy=0 dh=0 dv=0
PairPos2: "'kern' Horizontal Kerning in Arabic lookup 2 per glyph data 4" bracketleft dx=-300 dy=0 dh=-300 dv=0 dx=0 dy=0 dh=0 dv=0
PairPos2: "'kern' Horizontal Kerning in Arabic lookup 2 per glyph data 3" uniFEDB dx=-300 dy=0 dh=-300 dv=0 dx=0 dy=0 dh=0 dv=0
PairPos2: "'kern' Horizontal Kerning in Arabic lookup 2 per glyph data 3" uniFB94 dx=-300 dy=0 dh=-300 dv=0 dx=0 dy=0 dh=0 dv=0
PairPos2: "'kern' Horizontal Kerning in Arabic lookup 2 per glyph data 3" uniFB90 dx=-300 dy=0 dh=-300 dv=0 dx=0 dy=0 dh=0 dv=0
PairPos2: "'kern' Horizontal Kerning in Arabic lookup 2 per glyph data 3" uni06AF dx=-300 dy=0 dh=-300 dv=0 dx=0 dy=0 dh=0 dv=0
PairPos2: "'kern' Horizontal Kerning in Arabic lookup 2 per glyph data 3" uni06A9 dx=-300 dy=0 dh=-300 dv=0 dx=0 dy=0 dh=0 dv=0
PairPos2: "'kern' Horizontal Kerning in Arabic lookup 2 per glyph data 2" uni0621 dx=-200 dy=0 dh=-200 dv=0 dx=0 dy=0 dh=0 dv=0
PairPos2: "'kern' Horizontal Kerning in Arabic lookup 2 per glyph data 2" uni064A dx=-100 dy=0 dh=-100 dv=0 dx=0 dy=0 dh=0 dv=0
PairPos2: "'kern' Horizontal Kerning in Arabic lookup 2 per glyph data 2" uni0649 dx=-100 dy=0 dh=-100 dv=0 dx=0 dy=0 dh=0 dv=0
PairPos2: "'kern' Horizontal Kerning in Arabic lookup 2 per glyph data 2" uni06CC dx=-100 dy=0 dh=-100 dv=0 dx=0 dy=0 dh=0 dv=0
PairPos2: "'kern' Horizontal Kerning in Arabic lookup 2 per glyph data 2" uniFEFB dx=-325 dy=0 dh=-325 dv=0 dx=0 dy=0 dh=0 dv=0
PairPos2: "'kern' Horizontal Kerning in Arabic lookup 2 per glyph data 2" uniFEF9 dx=-325 dy=0 dh=-325 dv=0 dx=0 dy=0 dh=0 dv=0
PairPos2: "'kern' Horizontal Kerning in Arabic lookup 2 per glyph data 2" uniFEF7 dx=-325 dy=0 dh=-325 dv=0 dx=0 dy=0 dh=0 dv=0
PairPos2: "'kern' Horizontal Kerning in Arabic lookup 2 per glyph data 2" uniFEF5 dx=-325 dy=0 dh=-325 dv=0 dx=0 dy=0 dh=0 dv=0
PairPos2: "'kern' Horizontal Kerning in Arabic lookup 2 per glyph data 2" uniFEEB dx=-250 dy=0 dh=-250 dv=0 dx=0 dy=0 dh=0 dv=0
PairPos2: "'kern' Horizontal Kerning in Arabic lookup 2 per glyph data 2" uniFEE7 dx=-225 dy=0 dh=-225 dv=0 dx=0 dy=0 dh=0 dv=0
PairPos2: "'kern' Horizontal Kerning in Arabic lookup 2 per glyph data 2" uniFEE3 dx=-250 dy=0 dh=-250 dv=0 dx=0 dy=0 dh=0 dv=0
PairPos2: "'kern' Horizontal Kerning in Arabic lookup 2 per glyph data 2" uniFEDF dx=-250 dy=0 dh=-250 dv=0 dx=0 dy=0 dh=0 dv=0
PairPos2: "'kern' Horizontal Kerning in Arabic lookup 2 per glyph data 2" uniFEDB dx=-500 dy=0 dh=-500 dv=0 dx=0 dy=0 dh=0 dv=0
PairPos2: "'kern' Horizontal Kerning in Arabic lookup 2 per glyph data 2" uniFED7 dx=-250 dy=0 dh=-250 dv=0 dx=0 dy=0 dh=0 dv=0
PairPos2: "'kern' Horizontal Kerning in Arabic lookup 2 per glyph data 2" uniFED3 dx=-250 dy=0 dh=-250 dv=0 dx=0 dy=0 dh=0 dv=0
PairPos2: "'kern' Horizontal Kerning in Arabic lookup 2 per glyph data 2" uniFECF dx=-300 dy=0 dh=-300 dv=0 dx=0 dy=0 dh=0 dv=0
PairPos2: "'kern' Horizontal Kerning in Arabic lookup 2 per glyph data 2" uniFECB dx=-300 dy=0 dh=-300 dv=0 dx=0 dy=0 dh=0 dv=0
PairPos2: "'kern' Horizontal Kerning in Arabic lookup 2 per glyph data 2" uniFEC7 dx=-300 dy=0 dh=-300 dv=0 dx=0 dy=0 dh=0 dv=0
PairPos2: "'kern' Horizontal Kerning in Arabic lookup 2 per glyph data 2" uniFEC3 dx=-300 dy=0 dh=-300 dv=0 dx=0 dy=0 dh=0 dv=0
PairPos2: "'kern' Horizontal Kerning in Arabic lookup 2 per glyph data 2" uniFEBF dx=-300 dy=0 dh=-300 dv=0 dx=0 dy=0 dh=0 dv=0
PairPos2: "'kern' Horizontal Kerning in Arabic lookup 2 per glyph data 2" uniFEBB dx=-300 dy=0 dh=-300 dv=0 dx=0 dy=0 dh=0 dv=0
PairPos2: "'kern' Horizontal Kerning in Arabic lookup 2 per glyph data 2" uniFEB7 dx=-200 dy=0 dh=-200 dv=0 dx=0 dy=0 dh=0 dv=0
PairPos2: "'kern' Horizontal Kerning in Arabic lookup 2 per glyph data 2" uniFEB3 dx=-200 dy=0 dh=-200 dv=0 dx=0 dy=0 dh=0 dv=0
PairPos2: "'kern' Horizontal Kerning in Arabic lookup 2 per glyph data 2" uniFEA7 dx=-250 dy=0 dh=-250 dv=0 dx=0 dy=0 dh=0 dv=0
PairPos2: "'kern' Horizontal Kerning in Arabic lookup 2 per glyph data 2" uniFEA3 dx=-250 dy=0 dh=-250 dv=0 dx=0 dy=0 dh=0 dv=0
PairPos2: "'kern' Horizontal Kerning in Arabic lookup 2 per glyph data 2" uniFE9F dx=-250 dy=0 dh=-250 dv=0 dx=0 dy=0 dh=0 dv=0
PairPos2: "'kern' Horizontal Kerning in Arabic lookup 2 per glyph data 2" uniFE9B dx=-225 dy=0 dh=-225 dv=0 dx=0 dy=0 dh=0 dv=0
PairPos2: "'kern' Horizontal Kerning in Arabic lookup 2 per glyph data 2" uniFE97 dx=-225 dy=0 dh=-225 dv=0 dx=0 dy=0 dh=0 dv=0
PairPos2: "'kern' Horizontal Kerning in Arabic lookup 2 per glyph data 2" uniFE91 dx=-225 dy=0 dh=-225 dv=0 dx=0 dy=0 dh=0 dv=0
PairPos2: "'kern' Horizontal Kerning in Arabic lookup 2 per glyph data 2" uniFE8B dx=-225 dy=0 dh=-225 dv=0 dx=0 dy=0 dh=0 dv=0
PairPos2: "'kern' Horizontal Kerning in Arabic lookup 2 per glyph data 2" uniFB94 dx=-400 dy=0 dh=-400 dv=0 dx=0 dy=0 dh=0 dv=0
PairPos2: "'kern' Horizontal Kerning in Arabic lookup 2 per glyph data 2" uniFB90 dx=-400 dy=0 dh=-400 dv=0 dx=0 dy=0 dh=0 dv=0
PairPos2: "'kern' Horizontal Kerning in Arabic lookup 2 per glyph data 2" uniFB7C dx=-250 dy=0 dh=-250 dv=0 dx=0 dy=0 dh=0 dv=0
PairPos2: "'kern' Horizontal Kerning in Arabic lookup 2 per glyph data 2" uni06CA dx=-150 dy=0 dh=-150 dv=0 dx=0 dy=0 dh=0 dv=0
PairPos2: "'kern' Horizontal Kerning in Arabic lookup 2 per glyph data 2" uni06C0 dx=-250 dy=0 dh=-250 dv=0 dx=0 dy=0 dh=0 dv=0
PairPos2: "'kern' Horizontal Kerning in Arabic lookup 2 per glyph data 2" uni06AF dx=-400 dy=0 dh=-400 dv=0 dx=0 dy=0 dh=0 dv=0
PairPos2: "'kern' Horizontal Kerning in Arabic lookup 2 per glyph data 2" uni06A9 dx=-400 dy=0 dh=-400 dv=0 dx=0 dy=0 dh=0 dv=0
PairPos2: "'kern' Horizontal Kerning in Arabic lookup 2 per glyph data 2" uni0698 dx=-150 dy=0 dh=-150 dv=0 dx=0 dy=0 dh=0 dv=0
PairPos2: "'kern' Horizontal Kerning in Arabic lookup 2 per glyph data 2" uni0686 dx=-125 dy=0 dh=-125 dv=0 dx=0 dy=0 dh=0 dv=0
PairPos2: "'kern' Horizontal Kerning in Arabic lookup 2 per glyph data 2" uni067E dx=-250 dy=0 dh=-250 dv=0 dx=0 dy=0 dh=0 dv=0
PairPos2: "'kern' Horizontal Kerning in Arabic lookup 2 per glyph data 2" uni0648 dx=-150 dy=0 dh=-150 dv=0 dx=0 dy=0 dh=0 dv=0
PairPos2: "'kern' Horizontal Kerning in Arabic lookup 2 per glyph data 2" uni0647 dx=-250 dy=0 dh=-250 dv=0 dx=0 dy=0 dh=0 dv=0
PairPos2: "'kern' Horizontal Kerning in Arabic lookup 2 per glyph data 2" uni0646 dx=-150 dy=0 dh=-150 dv=0 dx=0 dy=0 dh=0 dv=0
PairPos2: "'kern' Horizontal Kerning in Arabic lookup 2 per glyph data 2" uni0645 dx=-250 dy=0 dh=-250 dv=0 dx=0 dy=0 dh=0 dv=0
PairPos2: "'kern' Horizontal Kerning in Arabic lookup 2 per glyph data 2" uni0644 dx=-112 dy=0 dh=-112 dv=0 dx=0 dy=0 dh=0 dv=0
PairPos2: "'kern' Horizontal Kerning in Arabic lookup 2 per glyph data 2" uni0643 dx=-300 dy=0 dh=-300 dv=0 dx=0 dy=0 dh=0 dv=0
PairPos2: "'kern' Horizontal Kerning in Arabic lookup 2 per glyph data 2" uni0642 dx=-150 dy=0 dh=-150 dv=0 dx=0 dy=0 dh=0 dv=0
PairPos2: "'kern' Horizontal Kerning in Arabic lookup 2 per glyph data 2" uni0641 dx=-250 dy=0 dh=-250 dv=0 dx=0 dy=0 dh=0 dv=0
PairPos2: "'kern' Horizontal Kerning in Arabic lookup 2 per glyph data 2" uni0638 dx=-300 dy=0 dh=-300 dv=0 dx=0 dy=0 dh=0 dv=0
PairPos2: "'kern' Horizontal Kerning in Arabic lookup 2 per glyph data 2" uni0637 dx=-300 dy=0 dh=-300 dv=0 dx=0 dy=0 dh=0 dv=0
PairPos2: "'kern' Horizontal Kerning in Arabic lookup 2 per glyph data 2" uni0636 dx=-300 dy=0 dh=-300 dv=0 dx=0 dy=0 dh=0 dv=0
PairPos2: "'kern' Horizontal Kerning in Arabic lookup 2 per glyph data 2" uni0635 dx=-300 dy=0 dh=-300 dv=0 dx=0 dy=0 dh=0 dv=0
PairPos2: "'kern' Horizontal Kerning in Arabic lookup 2 per glyph data 2" uni0634 dx=-200 dy=0 dh=-200 dv=0 dx=0 dy=0 dh=0 dv=0
PairPos2: "'kern' Horizontal Kerning in Arabic lookup 2 per glyph data 2" uni0633 dx=-200 dy=0 dh=-200 dv=0 dx=0 dy=0 dh=0 dv=0
PairPos2: "'kern' Horizontal Kerning in Arabic lookup 2 per glyph data 2" uni0632 dx=-150 dy=0 dh=-150 dv=0 dx=0 dy=0 dh=0 dv=0
PairPos2: "'kern' Horizontal Kerning in Arabic lookup 2 per glyph data 2" uni0631 dx=-150 dy=0 dh=-150 dv=0 dx=0 dy=0 dh=0 dv=0
PairPos2: "'kern' Horizontal Kerning in Arabic lookup 2 per glyph data 2" uni0630 dx=-250 dy=0 dh=-250 dv=0 dx=0 dy=0 dh=0 dv=0
PairPos2: "'kern' Horizontal Kerning in Arabic lookup 2 per glyph data 2" uni062F dx=-250 dy=0 dh=-250 dv=0 dx=0 dy=0 dh=0 dv=0
PairPos2: "'kern' Horizontal Kerning in Arabic lookup 2 per glyph data 2" uni062E dx=-125 dy=0 dh=-125 dv=0 dx=0 dy=0 dh=0 dv=0
PairPos2: "'kern' Horizontal Kerning in Arabic lookup 2 per glyph data 2" uni062D dx=-125 dy=0 dh=-125 dv=0 dx=0 dy=0 dh=0 dv=0
PairPos2: "'kern' Horizontal Kerning in Arabic lookup 2 per glyph data 2" uni062C dx=-125 dy=0 dh=-125 dv=0 dx=0 dy=0 dh=0 dv=0
PairPos2: "'kern' Horizontal Kerning in Arabic lookup 2 per glyph data 2" uni062B dx=-250 dy=0 dh=-250 dv=0 dx=0 dy=0 dh=0 dv=0
PairPos2: "'kern' Horizontal Kerning in Arabic lookup 2 per glyph data 2" uni062A dx=-250 dy=0 dh=-250 dv=0 dx=0 dy=0 dh=0 dv=0
PairPos2: "'kern' Horizontal Kerning in Arabic lookup 2 per glyph data 2" uni0629 dx=-250 dy=0 dh=-250 dv=0 dx=0 dy=0 dh=0 dv=0
PairPos2: "'kern' Horizontal Kerning in Arabic lookup 2 per glyph data 2" uni0628 dx=-250 dy=0 dh=-250 dv=0 dx=0 dy=0 dh=0 dv=0
PairPos2: "'kern' Horizontal Kerning in Arabic lookup 2 per glyph data 2" uni0627 dx=-250 dy=0 dh=-250 dv=0 dx=0 dy=0 dh=0 dv=0
PairPos2: "'kern' Horizontal Kerning in Arabic lookup 2 per glyph data 2" uni0624 dx=-150 dy=0 dh=-150 dv=0 dx=0 dy=0 dh=0 dv=0
PairPos2: "'kern' Horizontal Kerning in Arabic lookup 2 per glyph data 2" uni0623 dx=-250 dy=0 dh=-250 dv=0 dx=0 dy=0 dh=0 dv=0
PairPos2: "'kern' Horizontal Kerning in Arabic lookup 2 per glyph data 2" uni0622 dx=-250 dy=0 dh=-250 dv=0 dx=0 dy=0 dh=0 dv=0
PairPos2: "'kern' Horizontal Kerning in Arabic lookup 2 per glyph data 2" uniFB58 dx=-100 dy=0 dh=-100 dv=0 dx=0 dy=0 dh=0 dv=0
PairPos2: "'kern' Horizontal Kerning in Arabic lookup 2 per glyph data 2" uniFEF3 dx=-100 dy=0 dh=-100 dv=0 dx=0 dy=0 dh=0 dv=0
PairPos2: "'kern' Horizontal Kerning in Arabic lookup 2 per glyph data 2" uniFBFE dx=-100 dy=0 dh=-100 dv=0 dx=0 dy=0 dh=0 dv=0
PairPos2: "'kern' Horizontal Kerning in Arabic lookup 2 per glyph data 1" uni063A dx=-200 dy=0 dh=-200 dv=0 dx=0 dy=0 dh=0 dv=0
PairPos2: "'kern' Horizontal Kerning in Arabic lookup 2 per glyph data 1" uni0639 dx=-200 dy=0 dh=-200 dv=0 dx=0 dy=0 dh=0 dv=0
Substitution2: "'fina' Terminal Forms in Arabic lookup 2 subtable" uniFEAE
Colour: ffff
EndChar

StartChar: uni0633
Encoding: 1587 1587 76
Width: 2448
VWidth: 1854
Flags: HMW
AnchorPoint: "Anchor-3" 721 -502 basechar 0
AnchorPoint: "Anchor-5" 1820 574 basechar 0
LayerCount: 2
Fore
SplineSet
1122 553 m 1
 1216 589 l 1
 1305 356 l 2
 1369 186 1458 125 1543 125 c 0
 1621 125 1708 193 1735 356 c 2
 1771 582 l 1
 1869 566 l 1
 1843 399 l 2
 1840 378 1840 358 1840 337 c 0
 1840 177 1937 125 2033 125 c 0
 2170 125 2220 225 2220 387 c 0
 2220 484 2198 595 2167 691 c 1
 2263 721 l 1
 2296 617 2320 498 2320 387 c 0
 2320 209 2250 25 2033 25 c 0
 1935 25 1831 71 1777 174 c 1
 1723 80 1639 25 1543 25 c 0
 1477 25 1416 49 1363 92 c 1
 1363 86 1363 80 1363 74 c 0
 1363 -299 1036 -476 719 -476 c 0
 416 -476 128 -316 128 11 c 0
 128 177 211 375 404 603 c 1
 480 539 l 1
 295 321 228 143 228 11 c 0
 228 -240 444 -376 719 -376 c 0
 1008 -376 1263 -225 1263 74 c 0
 1263 146 1247 226 1211 320 c 2
 1122 553 l 1
EndSplineSet
Substitution2: "'init' Initial Forms in Arabic lookup 4 subtable" uniFEB3
Substitution2: "'medi' Medial Forms in Arabic lookup 3 subtable" uniFEB4
Substitution2: "'fina' Terminal Forms in Arabic lookup 2 subtable" uniFEB2
Colour: ffff
EndChar

StartChar: uni0635
Encoding: 1589 1589 77
Width: 2392
VWidth: 1854
Flags: HMW
AnchorPoint: "Anchor-5" 1933 695 basechar 0
AnchorPoint: "Anchor-3" 719 -502 basechar 0
LayerCount: 2
Fore
SplineSet
1448 174 m 1
 1537 142 1641 125 1741 125 c 0
 1984 125 2163 218 2163 367 c 0
 2163 493 2071 574 1934 574 c 0
 1793 574 1601 477 1448 174 c 1
1357 215 m 1
 1520 541 1744 674 1934 674 c 0
 2114 674 2263 555 2263 367 c 0
 2263 120 1988 25 1741 25 c 0
 1611 25 1473 53 1363 101 c 1
 1363 92 1363 83 1363 74 c 0
 1363 -299 1037 -476 720 -476 c 0
 417 -476 129 -316 129 11 c 0
 129 177 212 375 405 603 c 1
 481 539 l 1
 296 321 229 143 229 11 c 0
 229 -240 445 -376 720 -376 c 0
 1009 -376 1264 -225 1264 74 c 0
 1264 146 1248 227 1212 320 c 2
 1122 553 l 1
 1216 589 l 1
 1306 356 l 2
 1324 309 1337 263 1347 220 c 9
 1357 215 l 1
EndSplineSet
Substitution2: "'init' Initial Forms in Arabic lookup 4 subtable" uniFEBB
Substitution2: "'medi' Medial Forms in Arabic lookup 3 subtable" uniFEBC
Substitution2: "'fina' Terminal Forms in Arabic lookup 2 subtable" uniFEBA
Colour: ffff
EndChar

StartChar: uni0637
Encoding: 1591 1591 78
Width: 1515
VWidth: 1854
Flags: HMW
AnchorPoint: "Anchor-5" 1088 764 basechar 0
AnchorPoint: "Anchor-3" 768 0 basechar 0
LayerCount: 2
Fore
SplineSet
528 152 m 1
 528 125 l 1
 1179 132 1265 271 1265 434 c 0
 1265 548 1177 615 1060 615 c 0
 919 615 656 492 528 152 c 1
428 125 m 1
 428 1211 l 1
 528 1211 l 1
 528 375 l 1
 682 614 906 715 1060 715 c 0
 1215 715 1365 614 1365 434 c 0
 1365 178 1171 25 478 25 c 2
 105 25 l 1
 105 125 l 1
 428 125 l 1
EndSplineSet
Substitution2: "'init' Initial Forms in Arabic lookup 4 subtable" uniFEC3
Substitution2: "'medi' Medial Forms in Arabic lookup 3 subtable" uniFEC4
Substitution2: "'fina' Terminal Forms in Arabic lookup 2 subtable" uniFEC2
Colour: ffff
EndChar

StartChar: uni0639
Encoding: 1593 1593 79
Width: 1299
VWidth: 1854
Flags: HMW
AnchorPoint: "Anchor-3" 772 -734 basechar 0
AnchorPoint: "Anchor-5" 596 1079 basechar 0
LayerCount: 2
Fore
SplineSet
926 902 m 1
 850 838 l 1
 799 899 716 956 596 956 c 0
 450 956 304 836 304 629 c 0
 304 482 472 412 696 412 c 0
 783 412 873 425 954 438 c 1
 975 333 l 1
 580 282 231 138 231 -217 c 0
 231 -463 470 -609 772 -609 c 0
 905 -609 1034 -581 1129 -540 c 1
 1169 -632 l 1
 1060 -679 919 -709 772 -709 c 0
 448 -709 131 -545 131 -217 c 0
 131 52 304 227 529 326 c 1
 365 356 204 443 204 629 c 0
 204 888 394 1056 596 1056 c 0
 750 1056 861 979 926 902 c 1
EndSplineSet
Substitution2: "'init' Initial Forms in Arabic lookup 4 subtable" uniFECB
Substitution2: "'medi' Medial Forms in Arabic lookup 3 subtable" uniFECC
Substitution2: "'fina' Terminal Forms in Arabic lookup 2 subtable" uniFECA
Colour: ffff
EndChar

StartChar: uni0640
Encoding: 1600 1600 80
Width: 811
VWidth: 1854
Flags: HMW
AnchorPoint: "Anchor-5" 406 904 basechar 0
AnchorPoint: "Anchor-3" 406 0 basechar 0
LayerCount: 2
Fore
SplineSet
0 125 m 0
 811 125 l 1
 811 25 l 1
 0 25 l 0
 -28 25 -50 47 -50 75 c 0
 -50 103 -28 125 0 125 c 0
EndSplineSet
Colour: ffff
EndChar

StartChar: uni0644
Encoding: 1604 1604 81
Width: 1378
VWidth: 1854
Flags: HMW
AnchorPoint: "Anchor-5" 631 712 basechar 0
AnchorPoint: "Anchor-3" 663 -502 basechar 0
LayerCount: 2
Fore
SplineSet
1117 1211 m 1
 1217 1211 l 1
 1217 126 l 2
 1217 -288 937 -478 663 -478 c 0
 401 -478 128 -305 128 -5 c 0
 128 136 175 302 277 485 c 1
 365 437 l 1
 269 264 228 114 228 -5 c 0
 228 -233 437 -378 663 -378 c 0
 889 -378 1117 -234 1117 126 c 2
 1117 1211 l 1
EndSplineSet
Substitution2: "'init' Initial Forms in Arabic lookup 4 subtable" uniFEDF
Substitution2: "'medi' Medial Forms in Arabic lookup 3 subtable" uniFEE0
Substitution2: "'fina' Terminal Forms in Arabic lookup 2 subtable" uniFEDE
Colour: ffff
EndChar

StartChar: uni0645
Encoding: 1605 1605 82
Width: 1199
VWidth: 2374
Flags: HMW
AnchorPoint: "Anchor-5" 750 696 basechar 0
AnchorPoint: "Anchor-3" 668 -50 basechar 0
LayerCount: 2
Fore
SplineSet
396 210 m 1
 413 392 498 671 760 671 c 0
 958 671 1069 485 1069 302 c 0
 1069 101 934 26 793 26 c 0
 697 26 597 52 522 82 c 0
 476 100 449 110 401 110 c 0
 300 110 228 32 228 -99 c 2
 228 -783 l 1
 128 -783 l 1
 128 -99 l 2
 128 68 232 207 396 210 c 1
495 196 m 1
 584 171 689 126 793 126 c 0
 898 126 969 161 969 302 c 0
 969 453 882 571 760 571 c 0
 589 571 510 378 495 196 c 1
EndSplineSet
Substitution2: "'init' Initial Forms in Arabic lookup 4 subtable" uniFEE3
Substitution2: "'medi' Medial Forms in Arabic lookup 3 subtable" uniFEE4
Substitution2: "'fina' Terminal Forms in Arabic lookup 2 subtable" uniFEE2
Colour: ffff
EndChar

StartChar: uni0647
Encoding: 1607 1607 83
Width: 869
VWidth: 1854
Flags: HMW
AnchorPoint: "Anchor-5" 435 872 basechar 0
AnchorPoint: "Anchor-3" 435 75 basechar 0
LayerCount: 2
Fore
SplineSet
435 125 m 0
 564 125 628 195 628 306 c 0
 628 425 548 562 435 671 c 1
 323 563 241 425 241 306 c 0
 241 195 306 125 435 125 c 0
435 25 m 0
 258 25 141 141 141 306 c 0
 141 483 263 655 402 777 c 2
 435 805 l 1
 468 777 l 2
 608 655 728 483 728 306 c 0
 728 141 612 25 435 25 c 0
EndSplineSet
Substitution2: "'init' Initial Forms in Arabic lookup 4 subtable" uniFEEB
Substitution2: "'medi' Medial Forms in Arabic lookup 3 subtable" uniFEEC
Substitution2: "'fina' Terminal Forms in Arabic lookup 2 subtable" uniFEEA
Colour: ffff
EndChar

StartChar: uni0648
Encoding: 1608 1608 84
Width: 888
VWidth: 1854
Flags: HMW
AnchorPoint: "Anchor-5" 440 725 basechar 0
AnchorPoint: "Anchor-3" 444 -502 basechar 0
LayerCount: 2
Fore
SplineSet
668 54 m 1
 603 35 535 24 458 24 c 0
 285 24 132 100 132 303 c 0
 132 493 258 700 440 700 c 0
 730 700 770 276 770 98 c 0
 770 -198 548 -383 136 -489 c 1
 111 -393 l 1
 486 -297 648 -150 668 54 c 1
668 159 m 1
 657 366 589 600 440 600 c 0
 342 600 232 463 232 303 c 0
 232 170 309 124 458 124 c 0
 537 124 599 136 668 159 c 1
EndSplineSet
PairPos2: "'kern' Horizontal Kerning in Arabic lookup 2 per glyph data 3" uniFEDB dx=-200 dy=0 dh=-200 dv=0 dx=0 dy=0 dh=0 dv=0
PairPos2: "'kern' Horizontal Kerning in Arabic lookup 2 per glyph data 3" uniFB94 dx=-200 dy=0 dh=-200 dv=0 dx=0 dy=0 dh=0 dv=0
PairPos2: "'kern' Horizontal Kerning in Arabic lookup 2 per glyph data 3" uniFB90 dx=-200 dy=0 dh=-200 dv=0 dx=0 dy=0 dh=0 dv=0
PairPos2: "'kern' Horizontal Kerning in Arabic lookup 2 per glyph data 3" uni06AF dx=-200 dy=0 dh=-200 dv=0 dx=0 dy=0 dh=0 dv=0
PairPos2: "'kern' Horizontal Kerning in Arabic lookup 2 per glyph data 3" uni06A9 dx=-200 dy=0 dh=-200 dv=0 dx=0 dy=0 dh=0 dv=0
PairPos2: "'kern' Horizontal Kerning in Arabic lookup 2 per glyph data 1" uni063A dx=-100 dy=0 dh=-100 dv=0 dx=0 dy=0 dh=0 dv=0
PairPos2: "'kern' Horizontal Kerning in Arabic lookup 2 per glyph data 1" uni0639 dx=-100 dy=0 dh=-100 dv=0 dx=0 dy=0 dh=0 dv=0
Substitution2: "'fina' Terminal Forms in Arabic lookup 2 subtable" uniFEEE
Colour: ffff
EndChar

StartChar: uni065A
Encoding: 1626 1626 86
Width: 0
VWidth: 1854
Flags: HMW
AnchorPoint: "Anchor-1" 0 1598 basemark 0
AnchorPoint: "Anchor-1" 1 1209 mark 0
AnchorPoint: "Anchor-4" 1 1209 mark 0
AnchorPoint: "Anchor-5" 1 1209 mark 0
LayerCount: 2
Fore
SplineSet
-230 1822 m 1
 -182 1858 l 1
 0 1615 l 1
 182 1858 l 1
 230 1822 l 1
 -0 1515 l 1
 -230 1822 l 1
EndSplineSet
Colour: ff00
EndChar

StartChar: uni066C
Encoding: 1644 1644 88
Width: 587
VWidth: 1854
Flags: HMW
LayerCount: 2
Fore
SplineSet
179 760 m 1
 121 829 l 1
 186 909 279 1054 300 1135 c 1
 242 1135 155 1185 155 1272 c 0
 155 1346 210 1411 285 1411 c 0
 362 1411 432 1362 432 1244 c 0
 432 1119 286 873 179 760 c 1
EndSplineSet
EndChar

StartChar: uni066D
Encoding: 1645 1645 89
Width: 910
VWidth: 1854
Flags: HMW
LayerCount: 2
Fore
SplineSet
492 601 m 1
 418 601 l 1
 418 941 l 1
 124 772 l 1
 86 836 l 1
 380 1007 l 1
 86 1177 l 1
 124 1241 l 1
 418 1072 l 1
 418 1411 l 1
 492 1411 l 1
 492 1072 l 1
 786 1241 l 1
 824 1177 l 1
 530 1007 l 1
 824 836 l 1
 786 772 l 1
 492 941 l 1
 492 601 l 1
EndSplineSet
Colour: ff00ff
EndChar

StartChar: uni066E
Encoding: 1646 1646 90
Width: 1782
VWidth: 1854
Flags: HMW
AnchorPoint: "Anchor-5" 892 528 basechar 0
AnchorPoint: "Anchor-3" 892 0 basechar 0
LayerCount: 2
Back
SplineSet
1545 679 m 0
 1572.62207031 595.350585938 1603 499.030273438 1603 400 c 0
 1603 123 1299 75 891 75 c 0
 483 75 179 123 179 400 c 0
 179 499.030654358 209.377920874 595.350916719 237 679 c 1024
EndSplineSet
Fore
SplineSet
1500 666 m 1
 1596 692 l 1
 1639 533 l 2
 1653 484 1655 438 1655 400 c 0
 1655 67 1287 25 892 25 c 0
 497 25 128 67 128 400 c 0
 128 439 131 485 145 533 c 2
 188 692 l 1
 284 666 l 1
 241 507 l 2
 231 469 228 433 228 400 c 0
 228 179 471 125 892 125 c 0
 1313 125 1555 179 1555 400 c 0
 1555 434 1553 470 1543 507 c 2
 1500 666 l 1
EndSplineSet
Substitution2: "'init' Initial Forms in Arabic lookup 4 subtable" uniFBE8
Substitution2: "'medi' Medial Forms in Arabic lookup 3 subtable" uniFBE9
Substitution2: "'fina' Terminal Forms in Arabic lookup 2 subtable" dotlessfinalBEH
Colour: ffff
EndChar

StartChar: uni066F
Encoding: 1647 1647 91
Width: 1505
VWidth: 1854
Flags: HMW
AnchorPoint: "Anchor-5" 1047 726 basechar 0
AnchorPoint: "Anchor-3" 728 -504 basechar 0
LayerCount: 2
Fore
SplineSet
228 -3 m 0
 228 -240 453 -379 728 -379 c 0
 1014 -379 1253 -232 1275 56 c 1
 1210 37 1142 25 1065 25 c 0
 892 25 739 101 739 304 c 0
 739 494 865 701 1047 701 c 0
 1335 701 1377 285 1377 99 c 0
 1377 -289 1061 -479 728 -479 c 0
 429 -479 128 -320 128 -3 c 0
 128 151 196 326 287 495 c 1
 369 444 l 1
 287 289 228 132 228 -3 c 0
1275 160 m 1
 1264 367 1196 601 1047 601 c 0
 949 601 839 464 839 304 c 0
 839 171 916 125 1065 125 c 0
 1144 125 1206 137 1275 160 c 1
EndSplineSet
Substitution2: "'init' Initial Forms in Arabic lookup 4 subtable" dotlessinitialFEH
Substitution2: "'medi' Medial Forms in Arabic lookup 3 subtable" dotlessmedialFEH
Substitution2: "'fina' Terminal Forms in Arabic lookup 2 subtable" dotlessfinalQAF
Colour: ffff
EndChar

StartChar: uni0670
Encoding: 1648 1648 92
Width: 0
VWidth: 1854
Flags: HMW
AnchorPoint: "Anchor-1" 0 1598 basemark 0
AnchorPoint: "Anchor-1" 1 1209 mark 0
AnchorPoint: "Anchor-4" 1 1209 mark 0
AnchorPoint: "Anchor-5" 1 1209 mark 0
LayerCount: 2
Fore
SplineSet
-30 1834 m 1
 30 1834 l 1
 30 1505 l 1
 -30 1505 l 1
 -30 1834 l 1
EndSplineSet
Colour: ff00
EndChar

StartChar: uni06A1
Encoding: 1697 1697 93
Width: 1752
VWidth: 1854
Flags: HMW
AnchorPoint: "Anchor-3" 892 0 basechar 0
AnchorPoint: "Anchor-5" 1313 1111 basechar 0
LayerCount: 2
Fore
SplineSet
1521 402 m 1
 1456 383 1389 372 1312 372 c 0
 1139 372 986 448 986 651 c 0
 986 841 1112 1048 1294 1048 c 0
 1584 1048 1624 624 1624 446 c 0
 1624 106 1294 25 891 25 c 0
 496 25 129 67 129 400 c 0
 129 509 162 611 190 695 c 1
 285 663 l 1
 257 580 229 489 229 400 c 0
 229 179 470 125 891 125 c 0
 1279 125 1496 199 1521 402 c 1
1522 507 m 1
 1511 714 1443 948 1294 948 c 0
 1196 948 1086 811 1086 651 c 0
 1086 518 1163 472 1312 472 c 0
 1391 472 1453 484 1522 507 c 1
EndSplineSet
Substitution2: "'init' Initial Forms in Arabic lookup 4 subtable" dotlessinitialFEH
Substitution2: "'medi' Medial Forms in Arabic lookup 3 subtable" dotlessmedialFEH
Substitution2: "'fina' Terminal Forms in Arabic lookup 2 subtable" dotlessfinalFEH
Colour: ffff
EndChar

StartChar: uni06A9
Encoding: 1705 1705 94
Width: 1848
VWidth: 1854
Flags: HMW
AnchorPoint: "Anchor-5" 1304 1258 basechar 0
AnchorPoint: "Anchor-3" 868 0 basechar 0
LayerCount: 2
Fore
SplineSet
190 695 m 1
 284 663 l 1
 257 580 229 489 229 400 c 0
 229 179 470 125 891 125 c 0
 1162 125 1343 151 1343 298 c 0
 1343 442 1124 709 914 867 c 2
 894 882 l 1
 894 1020 l 1
 917 1035 l 2
 1148 1183 1420 1290 1688 1345 c 1
 1708 1247 l 1
 1461 1196 1209 1098 994 965 c 1
 994 932 l 1
 1204 768 1443 504 1443 298 c 0
 1443 33 1128 25 891 25 c 0
 496 25 129 67 129 400 c 0
 129 509 162 611 190 695 c 1
EndSplineSet
Substitution2: "'init' Initial Forms in Arabic lookup 4 subtable" uniFB90
Substitution2: "'medi' Medial Forms in Arabic lookup 3 subtable" uniFB91
Substitution2: "'fina' Terminal Forms in Arabic lookup 2 subtable" uniFB8F
Colour: ffff
EndChar

StartChar: uni06BA
Encoding: 1722 1722 95
Width: 1542
VWidth: 1854
Flags: HMW
AnchorPoint: "Anchor-5" 792 539 basechar 0
AnchorPoint: "Anchor-3" 734 -502 basechar 0
LayerCount: 2
Fore
SplineSet
228 1 m 0
 228 -240 446 -378 729 -378 c 0
 1037 -378 1314 -216 1314 86 c 0
 1314 237 1235 425 1173 563 c 1
 1265 603 l 1
 1327 465 1414 268 1414 86 c 0
 1414 -294 1063 -478 729 -478 c 0
 420 -478 128 -318 128 1 c 0
 128 155 196 380 287 549 c 1
 369 498 l 1
 287 343 228 136 228 1 c 0
EndSplineSet
Substitution2: "'init' Initial Forms in Arabic lookup 4 subtable" uniFBE8
Substitution2: "'medi' Medial Forms in Arabic lookup 3 subtable" uniFBE9
Substitution2: "'fina' Terminal Forms in Arabic lookup 2 subtable" uniFB9F
Colour: ffff
EndChar

StartChar: uni06CC
Encoding: 1740 1740 96
Width: 1449
VWidth: 1854
Flags: HMW
AnchorPoint: "Anchor-3" 775 -502 basechar 0
AnchorPoint: "Anchor-5" 463 696 basechar 0
LayerCount: 2
Back
SplineSet
1338 735 m 1
 1302 641 l 1
 1229 670 1133 686 1035 686 c 0
 837 686 724 558 724 384 c 0
 724 295 739 254 763 231 c 0
 792 204 853 185 977 179 c 0
 1095 173 1186 156 1248 94 c 0
 1293 49 1312 -14 1312 -88 c 0
 1312 -337 1076 -478 754 -478 c 0
 363 -478 128 -303 128 -5 c 0
 128 126 152 272 199 419 c 2
 210 454 l 1
 306 424 l 1
 295 389 l 2
 250 250 228 114 228 -5 c 0
 228 -231 389 -378 754 -378 c 0
 1058 -378 1212 -255 1212 -88 c 0
 1212 -28 1199 3 1178 24 c 0
 1148 54 1087 73 973 79 c 0
 847 85 756 100 695 157 c 0
 637 210 624 289 624 384 c 0
 624 610 783 786 1035 786 c 0
 1143 786 1249 770 1338 735 c 1
EndSplineSet
Fore
SplineSet
1312 693 m 1
 1276 601 l 1
 1223 621 l 2
 1166 643 1105 659 1044 659 c 0
 856 659 731 533 731 387 c 0
 731 223 856 195 1007 177 c 0
 1143 160 1312 121 1312 -86 c 0
 1312 -344 1034 -478 775 -478 c 0
 412 -478 128 -307 128 -5 c 0
 128 126 152 272 199 419 c 2
 210 454 l 1
 306 424 l 1
 295 389 l 2
 250 250 228 114 228 -5 c 0
 228 -227 434 -378 775 -378 c 0
 1016 -378 1212 -256 1212 -86 c 0
 1212 39 1135 60 995 77 c 0
 852 95 631 137 631 387 c 0
 631 595 810 759 1044 759 c 0
 1121 759 1194 741 1259 715 c 2
 1312 693 l 1
EndSplineSet
Substitution2: "'init' Initial Forms in Arabic lookup 4 subtable" uniFEF3
Substitution2: "'medi' Medial Forms in Arabic lookup 3 subtable" uniFEF4
Substitution2: "'fina' Terminal Forms in Arabic lookup 2 subtable" uniFBFD
Colour: ffff
EndChar

StartChar: uniFBE8
Encoding: 64488 64488 100
Width: 547
VWidth: 1854
Flags: HMW
AnchorPoint: "Anchor-5" 303 791 basechar 0
AnchorPoint: "Anchor-3" 274 0 basechar 0
LayerCount: 2
Fore
SplineSet
0 125 m 0
 124 125 220 159 257 203 c 0
 301 255 319 339 319 443 c 0
 319 533 294 661 256 775 c 1
 350 807 l 1
 390 685 419 551 419 443 c 0
 419 331 401 220 333 139 c 0
 264 57 136 25 0 25 c 0
 -28 25 -50 47 -50 75 c 0
 -50 103 -28 125 0 125 c 0
EndSplineSet
Colour: ffff
EndChar

StartChar: uniFBE9
Encoding: 64489 64489 101
Width: 767
VWidth: 1854
Flags: HMW
AnchorPoint: "Anchor-5" 384 594 basechar 0
AnchorPoint: "Anchor-3" 184 0 basechar 0
LayerCount: 2
Fore
SplineSet
0 125 m 4
 126 125 202 153 249 201 c 0
 306 259 334 361 334 517 c 2
 334 594 l 1
 434 594 l 1
 434 517 l 2
 434 366 460 266 513 207 c 0
 560 155 635 125 767 125 c 1
 767 25 l 1
 575 25 447 88 384 223 c 1
 321 89 192 25 0 25 c 4
 -28 25 -50 47 -50 75 c 4
 -50 103 -28 125 0 125 c 4
EndSplineSet
Colour: ffff
EndChar

StartChar: uniFBFD
Encoding: 64509 64509 102
Width: 1473
VWidth: 1854
Flags: HMW
AnchorPoint: "Anchor-5" 883 149 basechar 0
AnchorPoint: "Anchor-3" 739 -573 basechar 0
LayerCount: 2
Fore
SplineSet
1473 125 m 1
 1473 25 l 1
 1231 25 l 1
 1303 -26 1341 -97 1341 -172 c 0
 1341 -408 1119 -548 739 -548 c 0
 405 -548 128 -373 128 -52 c 0
 128 108 188 302 329 531 c 1
 414 479 l 1
 279 260 228 82 228 -52 c 0
 228 -289 427 -448 739 -448 c 0
 1115 -448 1241 -310 1241 -195 c 0
 1241 -88 1145 24 812 24 c 2
 762 24 l 1
 762 125 l 1
 999 125 1236 125 1473 125 c 1
EndSplineSet
Colour: ffff
EndChar

StartChar: uniFE8E
Encoding: 65166 65166 109
Width: 596
VWidth: 1854
Flags: HMW
AnchorPoint: "Anchor-3" 346 0 basechar 0
AnchorPoint: "Anchor-5" 250 1211 basechar 0
LayerCount: 2
Fore
SplineSet
200 1211 m 25
 300 1211 l 25
 300 391 l 2
 300 299 314 235 351 193 c 0
 395 143 472 125 596 125 c 9
 596 25 l 17
 454 25 351 58 285 127 c 0
 228 187 200 274 200 391 c 2
 200 1211 l 25
EndSplineSet
PairPos2: "'kern' Horizontal Kerning in Arabic lookup 2 per glyph data 1" uni063A dx=-225 dy=0 dh=-225 dv=0 dx=0 dy=0 dh=0 dv=0
PairPos2: "'kern' Horizontal Kerning in Arabic lookup 2 per glyph data 1" uni0639 dx=-225 dy=0 dh=-225 dv=0 dx=0 dy=0 dh=0 dv=0
Colour: ffff
EndChar

StartChar: uniFEA2
Encoding: 65186 65186 110
Width: 1398
VWidth: 1854
Flags: HMW
AnchorPoint: "Anchor-5" 507 853 basechar 0
AnchorPoint: "Anchor-3" 805 -736 basechar 0
LayerCount: 2
Fore
SplineSet
1268 -525 m 1
 1304 -619 l 1
 1153 -676 997 -711 805 -711 c 0
 483 -711 126 -574 126 -226 c 0
 126 209 626 387 1126 525 c 1
 613 710 l 2
 573 723 537 728 507 728 c 0
 373 728 300 635 278 442 c 1
 178 454 l 1
 202 665 303 828 507 828 c 0
 551 828 596 822 645 804 c 2
 1264 581 l 1
 1264 459 l 1
 1175 435 1087 411 1003 385 c 1
 1090 247 1183 125 1398 125 c 1
 1398 25 l 1
 1138 25 1009 175 905 353 c 1
 516 224 226 60 226 -226 c 0
 226 -484 493 -611 805 -611 c 0
 985 -611 1125 -578 1268 -525 c 1
EndSplineSet
Colour: ffff
EndChar

StartChar: uniFEA3
Encoding: 65187 65187 111
Width: 1366
VWidth: 1854
Flags: HMW
AnchorPoint: "Anchor-5" 480 852 basechar 0
AnchorPoint: "Anchor-3" 708 0 basechar 0
LayerCount: 2
Fore
SplineSet
126 439 m 1
 156 623 231 827 436 827 c 0
 491 827 553 811 620 779 c 2
 1207 496 l 1
 1207 374 l 1
 1168 365 l 2
 1052 339 960 298 866 242 c 0
 679 131 436 25 0 25 c 0
 -27 25 -50 48 -50 75 c 0
 -50 102 -27 125 0 125 c 0
 420 125 631 219 814 328 c 0
 896 377 982 417 1081 446 c 1
 576 689 l 2
 519 717 473 727 436 727 c 0
 319 727 254 609 224 423 c 1
 126 439 l 1
EndSplineSet
Colour: ffff
EndChar

StartChar: uniFEA4
Encoding: 65188 65188 112
Width: 1366
VWidth: 1854
Flags: HMW
AnchorPoint: "Anchor-5" 480 852 basechar 0
AnchorPoint: "Anchor-3" 708 0 basechar 0
LayerCount: 2
Fore
SplineSet
1366 25 m 17
 1242 25 1149 56 1077 111 c 0
 1015 158 963 214 922 274 c 1
 904 264 885 253 866 242 c 0
 679 130 436 25 0 25 c 0
 -27 25 -50 48 -50 75 c 0
 -50 102 -27 125 0 125 c 0
 420 125 631 219 814 328 c 0
 895 376 981 417 1081 446 c 1
 576 689 l 2
 519 717 473 727 436 727 c 0
 319 727 254 609 224 423 c 1
 126 439 l 1
 156 623 231 827 436 827 c 0
 491 827 553 811 620 779 c 2
 1207 496 l 1
 1207 374 l 1
 1168 365 l 2
 1112 353 1062 336 1014 317 c 1
 1048 271 1090 229 1139 191 c 0
 1191 151 1258 125 1366 125 c 9
 1366 25 l 17
EndSplineSet
Colour: ffff
EndChar

StartChar: uniFEAA
Encoding: 65194 65194 113
Width: 1180
VWidth: 1854
Flags: HMW
AnchorPoint: "Anchor-3" 421 0 basechar 0
AnchorPoint: "Anchor-5" 570 857 basechar 0
LayerCount: 2
Fore
SplineSet
1180 125 m 1
 1180 25 l 1
 1012 25 892 65 794 227 c 1
 737 89 584 25 429 25 c 0
 308 25 177 64 71 147 c 1
 133 225 l 1
 219 158 328 125 429 125 c 0
 595 125 715 208 715 336 c 0
 715 369 707 408 687 454 c 2
 524 837 l 1
 616 877 l 1
 815 410 l 2
 923 155 996 125 1180 125 c 1
EndSplineSet
PairPos2: "'kern' Horizontal Kerning in Arabic lookup 2 per glyph data 3" uniFEDB dx=-300 dy=0 dh=-300 dv=0 dx=0 dy=0 dh=0 dv=0
PairPos2: "'kern' Horizontal Kerning in Arabic lookup 2 per glyph data 3" uniFB94 dx=-300 dy=0 dh=-300 dv=0 dx=0 dy=0 dh=0 dv=0
PairPos2: "'kern' Horizontal Kerning in Arabic lookup 2 per glyph data 3" uniFB90 dx=-300 dy=0 dh=-300 dv=0 dx=0 dy=0 dh=0 dv=0
PairPos2: "'kern' Horizontal Kerning in Arabic lookup 2 per glyph data 3" uni06AF dx=-300 dy=0 dh=-300 dv=0 dx=0 dy=0 dh=0 dv=0
PairPos2: "'kern' Horizontal Kerning in Arabic lookup 2 per glyph data 3" uni06A9 dx=-300 dy=0 dh=-300 dv=0 dx=0 dy=0 dh=0 dv=0
PairPos2: "'kern' Horizontal Kerning in Arabic lookup 2 per glyph data 1" uni063A dx=-250 dy=0 dh=-250 dv=0 dx=0 dy=0 dh=0 dv=0
PairPos2: "'kern' Horizontal Kerning in Arabic lookup 2 per glyph data 1" uni0639 dx=-250 dy=0 dh=-250 dv=0 dx=0 dy=0 dh=0 dv=0
Colour: ffff
EndChar

StartChar: uniFEAE
Encoding: 65198 65198 114
Width: 960
VWidth: 1854
Flags: HMW
AnchorPoint: "Anchor-5" 556 571 basechar 0
AnchorPoint: "Anchor-3" 488 -402 basechar 0
LayerCount: 2
Fore
SplineSet
960 125 m 1
 960 25 l 1
 849 25 766 50 705 98 c 1
 693 -170 486 -376 167 -493 c 1
 133 -399 l 1
 436 -288 606 -109 606 131 c 0
 606 254 572 396 510 552 c 1
 602 590 l 1
 644 484 675 382 692 285 c 1
 734 174 793 125 960 125 c 1
EndSplineSet
PairPos2: "'kern' Horizontal Kerning in Arabic lookup 2 per glyph data 7" uniE017 dx=-325 dy=0 dh=-325 dv=0 dx=0 dy=0 dh=0 dv=0
PairPos2: "'kern' Horizontal Kerning in Arabic lookup 2 per glyph data 7" uniE015 dx=-250 dy=0 dh=-250 dv=0 dx=0 dy=0 dh=0 dv=0
PairPos2: "'kern' Horizontal Kerning in Arabic lookup 2 per glyph data 7" uniE012 dx=-150 dy=0 dh=-150 dv=0 dx=0 dy=0 dh=0 dv=0
PairPos2: "'kern' Horizontal Kerning in Arabic lookup 2 per glyph data 7" uni06D5 dx=-250 dy=0 dh=-250 dv=0 dx=0 dy=0 dh=0 dv=0
PairPos2: "'kern' Horizontal Kerning in Arabic lookup 2 per glyph data 7" uni06CE dx=-100 dy=0 dh=-100 dv=0 dx=0 dy=0 dh=0 dv=0
PairPos2: "'kern' Horizontal Kerning in Arabic lookup 2 per glyph data 7" uni06C6 dx=-150 dy=0 dh=-150 dv=0 dx=0 dy=0 dh=0 dv=0
PairPos2: "'kern' Horizontal Kerning in Arabic lookup 2 per glyph data 7" uni06BE dx=-250 dy=0 dh=-250 dv=0 dx=0 dy=0 dh=0 dv=0
PairPos2: "'kern' Horizontal Kerning in Arabic lookup 2 per glyph data 7" uni06BA dx=-150 dy=0 dh=-150 dv=0 dx=0 dy=0 dh=0 dv=0
PairPos2: "'kern' Horizontal Kerning in Arabic lookup 2 per glyph data 7" uni06B5 dx=-112 dy=0 dh=-112 dv=0 dx=0 dy=0 dh=0 dv=0
PairPos2: "'kern' Horizontal Kerning in Arabic lookup 2 per glyph data 7" uniFB6C dx=-250 dy=0 dh=-250 dv=0 dx=0 dy=0 dh=0 dv=0
PairPos2: "'kern' Horizontal Kerning in Arabic lookup 2 per glyph data 7" uni06A4 dx=-250 dy=0 dh=-250 dv=0 dx=0 dy=0 dh=0 dv=0
PairPos2: "'kern' Horizontal Kerning in Arabic lookup 2 per glyph data 7" uni0695 dx=-150 dy=0 dh=-150 dv=0 dx=0 dy=0 dh=0 dv=0
PairPos2: "'kern' Horizontal Kerning in Arabic lookup 2 per glyph data 7" uniFBE8 dx=-225 dy=0 dh=-225 dv=0 dx=0 dy=0 dh=0 dv=0
PairPos2: "'kern' Horizontal Kerning in Arabic lookup 2 per glyph data 4" parenleft dx=-300 dy=0 dh=-300 dv=0 dx=0 dy=0 dh=0 dv=0
PairPos2: "'kern' Horizontal Kerning in Arabic lookup 2 per glyph data 4" less dx=-420 dy=0 dh=-420 dv=0 dx=0 dy=0 dh=0 dv=0
PairPos2: "'kern' Horizontal Kerning in Arabic lookup 2 per glyph data 4" guillemotleft dx=-420 dy=0 dh=-420 dv=0 dx=0 dy=0 dh=0 dv=0
PairPos2: "'kern' Horizontal Kerning in Arabic lookup 2 per glyph data 4" bracketleft dx=-300 dy=0 dh=-300 dv=0 dx=0 dy=0 dh=0 dv=0
PairPos2: "'kern' Horizontal Kerning in Arabic lookup 2 per glyph data 3" uniFEDB dx=-300 dy=0 dh=-300 dv=0 dx=0 dy=0 dh=0 dv=0
PairPos2: "'kern' Horizontal Kerning in Arabic lookup 2 per glyph data 3" uniFB94 dx=-300 dy=0 dh=-300 dv=0 dx=0 dy=0 dh=0 dv=0
PairPos2: "'kern' Horizontal Kerning in Arabic lookup 2 per glyph data 3" uniFB90 dx=-300 dy=0 dh=-300 dv=0 dx=0 dy=0 dh=0 dv=0
PairPos2: "'kern' Horizontal Kerning in Arabic lookup 2 per glyph data 3" uni06AF dx=-300 dy=0 dh=-300 dv=0 dx=0 dy=0 dh=0 dv=0
PairPos2: "'kern' Horizontal Kerning in Arabic lookup 2 per glyph data 3" uni06A9 dx=-300 dy=0 dh=-300 dv=0 dx=0 dy=0 dh=0 dv=0
PairPos2: "'kern' Horizontal Kerning in Arabic lookup 2 per glyph data 2" uni0621 dx=-200 dy=0 dh=-200 dv=0 dx=0 dy=0 dh=0 dv=0
PairPos2: "'kern' Horizontal Kerning in Arabic lookup 2 per glyph data 2" uni064A dx=-100 dy=0 dh=-100 dv=0 dx=0 dy=0 dh=0 dv=0
PairPos2: "'kern' Horizontal Kerning in Arabic lookup 2 per glyph data 2" uni0649 dx=-100 dy=0 dh=-100 dv=0 dx=0 dy=0 dh=0 dv=0
PairPos2: "'kern' Horizontal Kerning in Arabic lookup 2 per glyph data 2" uni06CC dx=-100 dy=0 dh=-100 dv=0 dx=0 dy=0 dh=0 dv=0
PairPos2: "'kern' Horizontal Kerning in Arabic lookup 2 per glyph data 2" uniFEFB dx=-325 dy=0 dh=-325 dv=0 dx=0 dy=0 dh=0 dv=0
PairPos2: "'kern' Horizontal Kerning in Arabic lookup 2 per glyph data 2" uniFEF9 dx=-325 dy=0 dh=-325 dv=0 dx=0 dy=0 dh=0 dv=0
PairPos2: "'kern' Horizontal Kerning in Arabic lookup 2 per glyph data 2" uniFEF7 dx=-325 dy=0 dh=-325 dv=0 dx=0 dy=0 dh=0 dv=0
PairPos2: "'kern' Horizontal Kerning in Arabic lookup 2 per glyph data 2" uniFEF5 dx=-325 dy=0 dh=-325 dv=0 dx=0 dy=0 dh=0 dv=0
PairPos2: "'kern' Horizontal Kerning in Arabic lookup 2 per glyph data 2" uniFEEB dx=-250 dy=0 dh=-250 dv=0 dx=0 dy=0 dh=0 dv=0
PairPos2: "'kern' Horizontal Kerning in Arabic lookup 2 per glyph data 2" uniFEE7 dx=-225 dy=0 dh=-225 dv=0 dx=0 dy=0 dh=0 dv=0
PairPos2: "'kern' Horizontal Kerning in Arabic lookup 2 per glyph data 2" uniFEE3 dx=-250 dy=0 dh=-250 dv=0 dx=0 dy=0 dh=0 dv=0
PairPos2: "'kern' Horizontal Kerning in Arabic lookup 2 per glyph data 2" uniFEDF dx=-250 dy=0 dh=-250 dv=0 dx=0 dy=0 dh=0 dv=0
PairPos2: "'kern' Horizontal Kerning in Arabic lookup 2 per glyph data 2" uniFEDB dx=-400 dy=0 dh=-400 dv=0 dx=0 dy=0 dh=0 dv=0
PairPos2: "'kern' Horizontal Kerning in Arabic lookup 2 per glyph data 2" uniFED7 dx=-250 dy=0 dh=-250 dv=0 dx=0 dy=0 dh=0 dv=0
PairPos2: "'kern' Horizontal Kerning in Arabic lookup 2 per glyph data 2" uniFED3 dx=-250 dy=0 dh=-250 dv=0 dx=0 dy=0 dh=0 dv=0
PairPos2: "'kern' Horizontal Kerning in Arabic lookup 2 per glyph data 2" uniFECF dx=-300 dy=0 dh=-300 dv=0 dx=0 dy=0 dh=0 dv=0
PairPos2: "'kern' Horizontal Kerning in Arabic lookup 2 per glyph data 2" uniFECB dx=-300 dy=0 dh=-300 dv=0 dx=0 dy=0 dh=0 dv=0
PairPos2: "'kern' Horizontal Kerning in Arabic lookup 2 per glyph data 2" uniFEC7 dx=-300 dy=0 dh=-300 dv=0 dx=0 dy=0 dh=0 dv=0
PairPos2: "'kern' Horizontal Kerning in Arabic lookup 2 per glyph data 2" uniFEC3 dx=-300 dy=0 dh=-300 dv=0 dx=0 dy=0 dh=0 dv=0
PairPos2: "'kern' Horizontal Kerning in Arabic lookup 2 per glyph data 2" uniFEBF dx=-300 dy=0 dh=-300 dv=0 dx=0 dy=0 dh=0 dv=0
PairPos2: "'kern' Horizontal Kerning in Arabic lookup 2 per glyph data 2" uniFEBB dx=-300 dy=0 dh=-300 dv=0 dx=0 dy=0 dh=0 dv=0
PairPos2: "'kern' Horizontal Kerning in Arabic lookup 2 per glyph data 2" uniFEB7 dx=-200 dy=0 dh=-200 dv=0 dx=0 dy=0 dh=0 dv=0
PairPos2: "'kern' Horizontal Kerning in Arabic lookup 2 per glyph data 2" uniFEB3 dx=-200 dy=0 dh=-200 dv=0 dx=0 dy=0 dh=0 dv=0
PairPos2: "'kern' Horizontal Kerning in Arabic lookup 2 per glyph data 2" uniFEA7 dx=-250 dy=0 dh=-250 dv=0 dx=0 dy=0 dh=0 dv=0
PairPos2: "'kern' Horizontal Kerning in Arabic lookup 2 per glyph data 2" uniFEA3 dx=-250 dy=0 dh=-250 dv=0 dx=0 dy=0 dh=0 dv=0
PairPos2: "'kern' Horizontal Kerning in Arabic lookup 2 per glyph data 2" uniFE9F dx=-250 dy=0 dh=-250 dv=0 dx=0 dy=0 dh=0 dv=0
PairPos2: "'kern' Horizontal Kerning in Arabic lookup 2 per glyph data 2" uniFE9B dx=-225 dy=0 dh=-225 dv=0 dx=0 dy=0 dh=0 dv=0
PairPos2: "'kern' Horizontal Kerning in Arabic lookup 2 per glyph data 2" uniFE97 dx=-225 dy=0 dh=-225 dv=0 dx=0 dy=0 dh=0 dv=0
PairPos2: "'kern' Horizontal Kerning in Arabic lookup 2 per glyph data 2" uniFE91 dx=-225 dy=0 dh=-225 dv=0 dx=0 dy=0 dh=0 dv=0
PairPos2: "'kern' Horizontal Kerning in Arabic lookup 2 per glyph data 2" uniFE8B dx=-225 dy=0 dh=-225 dv=0 dx=0 dy=0 dh=0 dv=0
PairPos2: "'kern' Horizontal Kerning in Arabic lookup 2 per glyph data 2" uniFB94 dx=-400 dy=0 dh=-400 dv=0 dx=0 dy=0 dh=0 dv=0
PairPos2: "'kern' Horizontal Kerning in Arabic lookup 2 per glyph data 2" uniFB90 dx=-400 dy=0 dh=-400 dv=0 dx=0 dy=0 dh=0 dv=0
PairPos2: "'kern' Horizontal Kerning in Arabic lookup 2 per glyph data 2" uniFB7C dx=-250 dy=0 dh=-250 dv=0 dx=0 dy=0 dh=0 dv=0
PairPos2: "'kern' Horizontal Kerning in Arabic lookup 2 per glyph data 2" uni06CA dx=-150 dy=0 dh=-150 dv=0 dx=0 dy=0 dh=0 dv=0
PairPos2: "'kern' Horizontal Kerning in Arabic lookup 2 per glyph data 2" uni06C0 dx=-250 dy=0 dh=-250 dv=0 dx=0 dy=0 dh=0 dv=0
PairPos2: "'kern' Horizontal Kerning in Arabic lookup 2 per glyph data 2" uni06AF dx=-400 dy=0 dh=-400 dv=0 dx=0 dy=0 dh=0 dv=0
PairPos2: "'kern' Horizontal Kerning in Arabic lookup 2 per glyph data 2" uni06A9 dx=-400 dy=0 dh=-400 dv=0 dx=0 dy=0 dh=0 dv=0
PairPos2: "'kern' Horizontal Kerning in Arabic lookup 2 per glyph data 2" uni0698 dx=-150 dy=0 dh=-150 dv=0 dx=0 dy=0 dh=0 dv=0
PairPos2: "'kern' Horizontal Kerning in Arabic lookup 2 per glyph data 2" uni0686 dx=-125 dy=0 dh=-125 dv=0 dx=0 dy=0 dh=0 dv=0
PairPos2: "'kern' Horizontal Kerning in Arabic lookup 2 per glyph data 2" uni067E dx=-250 dy=0 dh=-250 dv=0 dx=0 dy=0 dh=0 dv=0
PairPos2: "'kern' Horizontal Kerning in Arabic lookup 2 per glyph data 2" uni0648 dx=-150 dy=0 dh=-150 dv=0 dx=0 dy=0 dh=0 dv=0
PairPos2: "'kern' Horizontal Kerning in Arabic lookup 2 per glyph data 2" uni0647 dx=-250 dy=0 dh=-250 dv=0 dx=0 dy=0 dh=0 dv=0
PairPos2: "'kern' Horizontal Kerning in Arabic lookup 2 per glyph data 2" uni0646 dx=-150 dy=0 dh=-150 dv=0 dx=0 dy=0 dh=0 dv=0
PairPos2: "'kern' Horizontal Kerning in Arabic lookup 2 per glyph data 2" uni0645 dx=-250 dy=0 dh=-250 dv=0 dx=0 dy=0 dh=0 dv=0
PairPos2: "'kern' Horizontal Kerning in Arabic lookup 2 per glyph data 2" uni0644 dx=-112 dy=0 dh=-112 dv=0 dx=0 dy=0 dh=0 dv=0
PairPos2: "'kern' Horizontal Kerning in Arabic lookup 2 per glyph data 2" uni0643 dx=-300 dy=0 dh=-300 dv=0 dx=0 dy=0 dh=0 dv=0
PairPos2: "'kern' Horizontal Kerning in Arabic lookup 2 per glyph data 2" uni0642 dx=-150 dy=0 dh=-150 dv=0 dx=0 dy=0 dh=0 dv=0
PairPos2: "'kern' Horizontal Kerning in Arabic lookup 2 per glyph data 2" uni0641 dx=-250 dy=0 dh=-250 dv=0 dx=0 dy=0 dh=0 dv=0
PairPos2: "'kern' Horizontal Kerning in Arabic lookup 2 per glyph data 2" uni0638 dx=-300 dy=0 dh=-300 dv=0 dx=0 dy=0 dh=0 dv=0
PairPos2: "'kern' Horizontal Kerning in Arabic lookup 2 per glyph data 2" uni0637 dx=-300 dy=0 dh=-300 dv=0 dx=0 dy=0 dh=0 dv=0
PairPos2: "'kern' Horizontal Kerning in Arabic lookup 2 per glyph data 2" uni0636 dx=-300 dy=0 dh=-300 dv=0 dx=0 dy=0 dh=0 dv=0
PairPos2: "'kern' Horizontal Kerning in Arabic lookup 2 per glyph data 2" uni0635 dx=-300 dy=0 dh=-300 dv=0 dx=0 dy=0 dh=0 dv=0
PairPos2: "'kern' Horizontal Kerning in Arabic lookup 2 per glyph data 2" uni0634 dx=-200 dy=0 dh=-200 dv=0 dx=0 dy=0 dh=0 dv=0
PairPos2: "'kern' Horizontal Kerning in Arabic lookup 2 per glyph data 2" uni0633 dx=-200 dy=0 dh=-200 dv=0 dx=0 dy=0 dh=0 dv=0
PairPos2: "'kern' Horizontal Kerning in Arabic lookup 2 per glyph data 2" uni0632 dx=-150 dy=0 dh=-150 dv=0 dx=0 dy=0 dh=0 dv=0
PairPos2: "'kern' Horizontal Kerning in Arabic lookup 2 per glyph data 2" uni0631 dx=-150 dy=0 dh=-150 dv=0 dx=0 dy=0 dh=0 dv=0
PairPos2: "'kern' Horizontal Kerning in Arabic lookup 2 per glyph data 2" uni0630 dx=-250 dy=0 dh=-250 dv=0 dx=0 dy=0 dh=0 dv=0
PairPos2: "'kern' Horizontal Kerning in Arabic lookup 2 per glyph data 2" uni062F dx=-250 dy=0 dh=-250 dv=0 dx=0 dy=0 dh=0 dv=0
PairPos2: "'kern' Horizontal Kerning in Arabic lookup 2 per glyph data 2" uni062E dx=-125 dy=0 dh=-125 dv=0 dx=0 dy=0 dh=0 dv=0
PairPos2: "'kern' Horizontal Kerning in Arabic lookup 2 per glyph data 2" uni062D dx=-125 dy=0 dh=-125 dv=0 dx=0 dy=0 dh=0 dv=0
PairPos2: "'kern' Horizontal Kerning in Arabic lookup 2 per glyph data 2" uni062C dx=-125 dy=0 dh=-125 dv=0 dx=0 dy=0 dh=0 dv=0
PairPos2: "'kern' Horizontal Kerning in Arabic lookup 2 per glyph data 2" uni062B dx=-250 dy=0 dh=-250 dv=0 dx=0 dy=0 dh=0 dv=0
PairPos2: "'kern' Horizontal Kerning in Arabic lookup 2 per glyph data 2" uni062A dx=-250 dy=0 dh=-250 dv=0 dx=0 dy=0 dh=0 dv=0
PairPos2: "'kern' Horizontal Kerning in Arabic lookup 2 per glyph data 2" uni0629 dx=-250 dy=0 dh=-250 dv=0 dx=0 dy=0 dh=0 dv=0
PairPos2: "'kern' Horizontal Kerning in Arabic lookup 2 per glyph data 2" uni0628 dx=-250 dy=0 dh=-250 dv=0 dx=0 dy=0 dh=0 dv=0
PairPos2: "'kern' Horizontal Kerning in Arabic lookup 2 per glyph data 2" uni0627 dx=-250 dy=0 dh=-250 dv=0 dx=0 dy=0 dh=0 dv=0
PairPos2: "'kern' Horizontal Kerning in Arabic lookup 2 per glyph data 2" uni0624 dx=-150 dy=0 dh=-150 dv=0 dx=0 dy=0 dh=0 dv=0
PairPos2: "'kern' Horizontal Kerning in Arabic lookup 2 per glyph data 2" uni0623 dx=-250 dy=0 dh=-250 dv=0 dx=0 dy=0 dh=0 dv=0
PairPos2: "'kern' Horizontal Kerning in Arabic lookup 2 per glyph data 2" uni0622 dx=-250 dy=0 dh=-250 dv=0 dx=0 dy=0 dh=0 dv=0
PairPos2: "'kern' Horizontal Kerning in Arabic lookup 2 per glyph data 2" uniFB58 dx=-100 dy=0 dh=-100 dv=0 dx=0 dy=0 dh=0 dv=0
PairPos2: "'kern' Horizontal Kerning in Arabic lookup 2 per glyph data 2" uniFEF3 dx=-100 dy=0 dh=-100 dv=0 dx=0 dy=0 dh=0 dv=0
PairPos2: "'kern' Horizontal Kerning in Arabic lookup 2 per glyph data 2" uniFBFE dx=-100 dy=0 dh=-100 dv=0 dx=0 dy=0 dh=0 dv=0
PairPos2: "'kern' Horizontal Kerning in Arabic lookup 2 per glyph data 1" uni063A dx=-200 dy=0 dh=-200 dv=0 dx=0 dy=0 dh=0 dv=0
PairPos2: "'kern' Horizontal Kerning in Arabic lookup 2 per glyph data 1" uni0639 dx=-200 dy=0 dh=-200 dv=0 dx=0 dy=0 dh=0 dv=0
Colour: ffff
EndChar

StartChar: uniFEB2
Encoding: 65202 65202 115
Width: 2684
VWidth: 1854
Flags: HMW
AnchorPoint: "Anchor-5" 1768 594 basechar 0
AnchorPoint: "Anchor-3" 719 -502 basechar 0
LayerCount: 2
Fore
SplineSet
2175 695 m 1
 2273 715 l 1
 2321 481 l 2
 2370 241 2394 125 2684 125 c 1
 2684 25 l 1
 2459 25 2354 102 2295 219 c 1
 2260 110 2182 25 2033 25 c 0
 1936 25 1832 70 1778 170 c 1
 1728 79 1651 25 1543 25 c 0
 1474 25 1414 48 1363 89 c 1
 1363 84 1363 79 1363 74 c 0
 1363 -299 1036 -476 719 -476 c 0
 416 -476 128 -316 128 11 c 0
 128 177 211 375 404 603 c 1
 480 539 l 1
 295 321 228 143 228 11 c 0
 228 -240 444 -376 719 -376 c 0
 1008 -376 1263 -225 1263 74 c 0
 1263 144 1249 223 1214 314 c 2
 1122 553 l 1
 1216 589 l 1
 1307 349 l 2
 1370 182 1449 125 1543 125 c 0
 1641 125 1708 189 1735 356 c 2
 1771 582 l 1
 1869 566 l 1
 1842 397 l 2
 1840 377 1840 357 1840 337 c 0
 1840 177 1937 125 2033 125 c 0
 2172 125 2219 226 2219 385 c 0
 2219 437 2216 490 2207 541 c 2
 2175 695 l 1
EndSplineSet
Colour: ffff
EndChar

StartChar: uniFEB3
Encoding: 65203 65203 116
Width: 1538
VWidth: 2374
Flags: HMW
AnchorPoint: "Anchor-5" 880 594 basechar 0
AnchorPoint: "Anchor-3" 881 0 basechar 0
LayerCount: 2
Back
SplineSet
1306 706 m 1
 1344 461 l 2
 1351 419 1353 383 1353 350 c 0
 1353 175 1268 75 1116 75 c 0
 924 75 849.03103855 275.994537215 883 469 c 2
 905 594 l 1
 883 469 l 2
 852.59765625 297.071289062 808 75 620 75 c 0
 452 75 402.770507812 281.970703125 380 463 c 2
 364 594 l 1
 380 463 l 2
 406.340820312 265.447265625 281.860023333 75 0 75 c 1025
EndSplineSet
Fore
SplineSet
0 125 m 0
 132 125 215 153 266 217 c 0
 316 280 334 378 334 517 c 2
 334 594 l 1
 434 594 l 1
 434 541 434 488 434 435 c 0
 434 327 458 236 501 184 c 0
 532 146 572 125 632 125 c 0
 692 125 732 146 763 184 c 0
 806 236 830 327 830 435 c 2
 830 594 l 1
 930 594 l 1
 930 435 l 2
 930 327 954 236 997 184 c 0
 1028 146 1068 125 1128 125 c 0
 1198 125 1247 155 1276 203 c 0
 1299 241 1310 289 1310 343 c 0
 1310 366 1308 392 1304 420 c 2
 1261 698 l 1
 1359 714 l 1
 1402 434 l 2
 1406 404 1410 374 1410 343 c 0
 1410 267 1391 197 1355 143 c 0
 1307 71 1229 25 1128 25 c 0
 1008 25 924 94 880 183 c 1
 836 94 752 25 632 25 c 0
 501 25 415 107 373 208 c 1
 310 90 192 25 0 25 c 0
 -28 25 -50 47 -50 75 c 0
 -50 103 -28 125 0 125 c 0
EndSplineSet
Colour: ffff
EndChar

StartChar: uniFEB4
Encoding: 65204 65204 117
Width: 1735
VWidth: 2374
Flags: HMW
AnchorPoint: "Anchor-3" 881 0 basechar 0
AnchorPoint: "Anchor-5" 880 594 basechar 0
LayerCount: 2
Back
SplineSet
1731 75 m 16
 1594 75 1500 107 1440 173 c 0
 1397 220 1368 305 1344 461 c 2
 1306 706 l 1
 1344 461 l 2
 1351 419 1353 383 1353 350 c 0
 1353 175 1268 75 1116 75 c 0
 924 75 849.03103855 275.994537215 883 469 c 2
 905 594 l 1
 883 469 l 2
 852.59765625 297.071289062 808 75 620 75 c 0
 452 75 402.770507812 281.970703125 380 463 c 2
 364 594 l 1
 380 463 l 2
 406.340820312 265.447265625 281.860023333 75 0 75 c 1025
EndSplineSet
Fore
SplineSet
632 125 m 0
 697 125 742 152 773 195 c 0
 815 254 830 343 830 435 c 2
 830 594 l 25
 930 594 l 25
 930 435 l 2
 930 347 944 262 982 203 c 0
 1013 155 1059 125 1128 125 c 0
 1194 125 1241 152 1271 195 c 0
 1297 233 1310 285 1310 343 c 0
 1310 367 1307 402 1304 420 c 2
 1261 698 l 1
 1359 714 l 1
 1402 436 l 2
 1434 231 1502 125 1735 125 c 1
 1735 25 l 1
 1567 25 1449 79 1380 189 c 1
 1339 94 1252 25 1128 25 c 0
 1008 25 924 94 880 183 c 1
 836 94 752 25 632 25 c 0
 501 25 415 107 373 208 c 1
 310 90 192 25 0 25 c 0
 -28 25 -50 47 -50 75 c 0
 -50 103 -28 125 0 125 c 0
 131 125 214 153 265 215 c 0
 316 278 334 376 334 517 c 2
 334 594 l 1
 434 594 l 1
 434 435 l 0
 434 327 458 236 501 184 c 0
 532 146 572 125 632 125 c 0
EndSplineSet
Colour: ffff
EndChar

StartChar: uniFEBA
Encoding: 65210 65210 118
Width: 2486
VWidth: 1854
Flags: HMW
AnchorPoint: "Anchor-5" 1934 729 basechar 0
AnchorPoint: "Anchor-3" 719 -502 basechar 0
LayerCount: 2
Fore
SplineSet
1448 174 m 1
 1537 142 1641 125 1741 125 c 0
 1984 125 2163 218 2163 367 c 0
 2163 493 2071 574 1934 574 c 0
 1793 574 1601 477 1448 174 c 1
1357 215 m 1
 1520 541 1744 674 1934 674 c 0
 2114 674 2263 555 2263 367 c 0
 2263 309 2247 259 2221 217 c 1
 2260 163 2330 125 2486 125 c 1
 2486 25 l 1
 2324 25 2217 67 2153 142 c 1
 2050 60 1891 25 1741 25 c 0
 1611 25 1474 53 1364 101 c 1
 1364 92 1364 83 1364 74 c 0
 1364 -299 1037 -476 720 -476 c 0
 417 -476 129 -316 129 11 c 0
 129 177 212 375 405 603 c 1
 481 539 l 1
 296 321 229 143 229 11 c 0
 229 -240 445 -376 720 -376 c 0
 1009 -376 1264 -225 1264 74 c 0
 1264 146 1248 227 1212 320 c 2
 1122 553 l 1
 1216 589 l 1
 1306 356 l 2
 1324 309 1337 263 1347 220 c 0
 1357 215 l 1
EndSplineSet
Colour: ffff
EndChar

StartChar: uniFEBB
Encoding: 65211 65211 119
Width: 1612
VWidth: 1854
Flags: HMW
AnchorPoint: "Anchor-5" 1167 769 basechar 0
AnchorPoint: "Anchor-3" 821 0 basechar 0
LayerCount: 2
Fore
SplineSet
0 125 m 4
 126 125 202 153 249 201 c 0
 304 257 332 354 334 502 c 2
 334 594 l 1
 434 594 l 1
 434 519 434 444 434 369 c 0
 434 270 462 218 511 184 c 1
 701 568 959 715 1157 715 c 0
 1312 715 1462 614 1462 434 c 0
 1462 171 1098 25 829 25 c 0
 610 25 444 57 371 198 c 1
 304 80 179 25 0 25 c 4
 -28 25 -50 47 -50 75 c 4
 -50 103 -28 125 0 125 c 4
603 146 m 1
 661 131 738 125 829 125 c 0
 1090 125 1362 275 1362 434 c 0
 1362 548 1274 615 1157 615 c 0
 1010 615 782 504 603 146 c 1
EndSplineSet
Colour: ffff
EndChar

StartChar: uniFEBC
Encoding: 65212 65212 120
Width: 1635
VWidth: 1854
Flags: HMW
AnchorPoint: "Anchor-3" 821 0 basechar 0
AnchorPoint: "Anchor-5" 1167 769 basechar 0
LayerCount: 2
Fore
SplineSet
603 146 m 1
 661 131 738 125 829 125 c 0
 1090 125 1362 275 1362 434 c 0
 1362 548 1274 615 1157 615 c 0
 1010 615 782 504 603 146 c 1
434 594 m 1
 434 369 l 0
 434 273 462 218 511 184 c 1
 701 568 959 715 1157 715 c 0
 1312 715 1462 614 1462 434 c 0
 1462 351 1426 280 1368 221 c 1
 1416 155 1495 125 1635 125 c 1
 1635 25 l 1
 1478 25 1361 67 1291 158 c 1
 1161 71 980 25 829 25 c 0
 611 25 443 56 370 197 c 1
 303 80 179 25 0 25 c 0
 -27 25 -50 48 -50 75 c 0
 -50 102 -27 125 0 125 c 0
 270 125 334 255 334 517 c 2
 334 594 l 1
 434 594 l 1
EndSplineSet
Colour: ffff
EndChar

StartChar: uniFEC2
Encoding: 65218 65218 121
Width: 1538
VWidth: 1854
Flags: HMW
AnchorPoint: "Anchor-3" 768 0 basechar 0
AnchorPoint: "Anchor-5" 1088 764 basechar 0
LayerCount: 2
Fore
SplineSet
428 125 m 1
 428 1211 l 25
 528 1211 l 25
 528 375 l 1
 682 614 906 715 1060 715 c 0
 1215 715 1365 614 1365 434 c 0
 1365 346 1342 270 1283 208 c 1
 1284 206 l 1
 1330 154 1406 125 1538 125 c 0
 1538 25 l 0
 1392 25 1283 59 1210 140 c 0
 1208 142 1206 144 1204 146 c 0
 1072 68 845 25 478 25 c 2
 105 25 l 25
 105 125 l 25
 428 125 l 1
528 152 m 1
 528 125 l 1
 1179 132 1265 271 1265 434 c 0
 1265 548 1177 615 1060 615 c 0
 919 615 656 492 528 152 c 1
EndSplineSet
Colour: ffff
EndChar

StartChar: uniFEC3
Encoding: 65219 65219 122
Width: 1317
VWidth: 1854
Flags: HMW
AnchorPoint: "Anchor-3" 548 0 basechar 0
AnchorPoint: "Anchor-5" 868 764 basechar 0
LayerCount: 2
Fore
SplineSet
0 125 m 0
 208 125 l 1
 208 1211 l 1
 308 1211 l 1
 308 375 l 1
 462 614 686 715 840 715 c 0
 995 715 1145 614 1145 434 c 0
 1145 178 951 25 258 25 c 2
 0 25 l 0
 -28 25 -50 47 -50 75 c 0
 -50 103 -28 125 0 125 c 0
308 152 m 1
 308 125 l 1
 959 132 1045 271 1045 434 c 0
 1045 548 957 615 840 615 c 0
 698 615 436 492 308 152 c 1
EndSplineSet
Colour: ffff
EndChar

StartChar: uniFEC4
Encoding: 65220 65220 123
Width: 1318
VWidth: 1854
Flags: HMW
AnchorPoint: "Anchor-5" 868 764 basechar 0
AnchorPoint: "Anchor-3" 548 0 basechar 0
LayerCount: 2
Fore
SplineSet
0 125 m 0
 208 126 l 1
 208 1211 l 25
 308 1211 l 25
 308 375 l 1
 462 614 685 715 840 715 c 0
 995 715 1145 614 1145 434 c 0
 1145 346 1122 270 1063 208 c 1
 1064 206 l 1
 1110 154 1186 125 1318 125 c 0
 1318 25 l 0
 1172 25 1063 59 990 140 c 0
 988 142 986 144 984 146 c 0
 852 68 625 25 258 25 c 2
 0 25 l 0
 -28 25 -50 47 -50 75 c 0
 -50 103 -28 125 0 125 c 0
308 152 m 1
 308 125 l 1
 960 132 1045 271 1045 434 c 0
 1045 548 957 615 840 615 c 0
 699 615 436 492 308 152 c 1
EndSplineSet
Colour: ffff
EndChar

StartChar: uniFECA
Encoding: 65226 65226 124
Width: 1144
VWidth: 2374
Flags: HMW
AnchorPoint: "Anchor-5" 622 761 basechar 0
AnchorPoint: "Anchor-3" 688 -739 basechar 0
LayerCount: 2
Fore
SplineSet
972 473 m 0
 972 333 859 257 750 191 c 1
 862 150 990 125 1144 125 c 1
 1144 25 l 1
 942 25 778 61 639 129 c 1
 433 43 215 -90 215 -301 c 0
 215 -471 429 -615 722 -615 c 0
 825 -615 934 -596 1039 -557 c 1
 1074 -651 l 1
 958 -695 837 -715 723 -715 c 0
 410 -715 115 -560 115 -303 c 0
 115 -48 336 101 530 190 c 1
 389 279 278 385 177 487 c 1
 182 607 l 1
 277 685 429 737 594 737 c 0
 783 737 972 641 972 473 c 0
872 472 m 0
 872 552 760 637 596 637 c 0
 475 637 350 603 281 557 c 1
 279 528 l 1
 383 425 499 319 642 240 c 1
 776 303 872 376 872 472 c 0
EndSplineSet
Colour: ffff
EndChar

StartChar: uniFECB
Encoding: 65227 65227 125
Width: 1083
VWidth: 1854
Flags: HMW
AnchorPoint: "Anchor-3" 468 0 basechar 0
AnchorPoint: "Anchor-5" 527 843 basechar 0
LayerCount: 2
Fore
SplineSet
0 125 m 4
 114 125 221 133 325 148 c 1
 226 197 153 286 153 411 c 0
 153 658 334 818 527 818 c 0
 674 818 779 748 842 673 c 1
 766 609 l 1
 719 666 640 718 527 718 c 0
 390 718 253 606 253 411 c 0
 253 276 383 199 558 199 c 0
 581 199 604 199 623 202 c 2
 896 254 l 1
 914 156 l 1
 447 67 l 2
 305 40 159 25 0 25 c 4
 -28 25 -50 47 -50 75 c 4
 -50 103 -28 125 0 125 c 4
EndSplineSet
Colour: ffff
EndChar

StartChar: uniFECC
Encoding: 65228 65228 126
Width: 996
VWidth: 1853
Flags: HMW
AnchorPoint: "Anchor-5" 519 762 basechar 0
AnchorPoint: "Anchor-3" 488 0 basechar 0
LayerCount: 2
Fore
SplineSet
0 125 m 4
 158 125 312 142 440 175 c 1
 306 254 192 351 88 452 c 1
 88 567 l 1
 173 673 345 736 519 736 c 0
 690 736 882 646 882 439 c 0
 882 321 804 231 697 169 c 1
 786 141 885 125 996 125 c 1
 996 25 l 1
 833 25 690 58 568 110 c 1
 409 53 208 25 0 25 c 4
 -28 25 -50 47 -50 75 c 4
 -50 103 -28 125 0 125 c 4
188 496 m 1
 305 387 426 288 571 219 c 1
 701 273 782 352 782 439 c 0
 782 566 666 636 519 636 c 0
 389 636 251 589 188 529 c 1
 188 496 l 1
EndSplineSet
Colour: ffff
EndChar

StartChar: uniFEDB
Encoding: 65243 65243 127
Width: 999
VWidth: 1854
Flags: HMW
AnchorPoint: "Anchor-5" 455 1258 basechar 0
AnchorPoint: "Anchor-3" 355 0 basechar 0
LayerCount: 2
Fore
SplineSet
0 125 m 4
 92 125 l 2
 359 125 494 146 494 298 c 0
 494 442 275 709 65 867 c 2
 45 882 l 1
 45 1020 l 1
 68 1035 l 2
 299 1183 571 1290 839 1345 c 1
 859 1247 l 1
 612 1196 358 1097 145 965 c 1
 145 932 l 1
 357 767 594 504 594 298 c 0
 594 38 333 25 92 25 c 2
 0 25 l 4
 -28 25 -50 47 -50 75 c 4
 -50 103 -28 125 0 125 c 4
EndSplineSet
MultipleSubs2: "Multiple substitution 0 subtable" uniFEDB uniE000 uniE000
Colour: ffff
EndChar

StartChar: uniFEDC
Encoding: 65244 65244 128
Width: 900
VWidth: 1854
Flags: HMW
AnchorPoint: "Anchor-5" 455 1258 basechar 0
AnchorPoint: "Anchor-3" 355 0 basechar 0
LayerCount: 2
Fore
SplineSet
0 125 m 4
 92 125 l 2
 359 125 494 146 494 298 c 0
 494 442 275 709 65 867 c 2
 45 882 l 1
 45 1020 l 1
 68 1035 l 2
 299 1183 571 1290 839 1345 c 1
 859 1247 l 1
 612 1196 358 1097 145 965 c 1
 145 932 l 1
 331 787 537 566 584 375 c 1
 640 220 690 125 900 125 c 1
 900 25 l 1
 729 25 632 89 569 179 c 1
 499 34 289 25 92 25 c 2
 0 25 l 4
 -28 25 -50 47 -50 75 c 4
 -50 103 -28 125 0 125 c 4
EndSplineSet
MultipleSubs2: "Multiple substitution 0 subtable" uniFEDC uniE000 uniE000
Colour: ffff
EndChar

StartChar: uniFEDE
Encoding: 65246 65246 129
Width: 1549
VWidth: 1854
Flags: HMW
AnchorPoint: "Anchor-3" 663 -502 basechar 0
AnchorPoint: "Anchor-5" 631 712 basechar 0
LayerCount: 2
Fore
SplineSet
1549 125 m 1
 1549 25 l 1
 1401 25 1289 60 1217 143 c 1
 1217 126 l 2
 1217 -288 937 -478 663 -478 c 0
 401 -478 128 -305 128 -5 c 0
 128 136 175 302 277 485 c 1
 365 437 l 1
 269 264 228 114 228 -5 c 0
 228 -233 437 -378 663 -378 c 0
 889 -378 1117 -234 1117 126 c 2
 1117 1211 l 1
 1217 1211 l 1
 1217 517 l 2
 1217 373 1239 275 1286 216 c 0
 1332 158 1409 125 1549 125 c 1
EndSplineSet
Colour: ffff
EndChar

StartChar: uniFEDF
Encoding: 65247 65247 130
Width: 596
VWidth: 1854
Flags: HMW
AnchorPoint: "Anchor-5" 346 1211 basechar 0
AnchorPoint: "Anchor-3" 242 0 basechar 0
LayerCount: 2
Fore
SplineSet
396 1211 m 25
 396 391 l 2
 396 274 368 187 311 127 c 0
 245 58 142 25 0 25 c 0
 -27 25 -50 48 -50 75 c 0
 -50 102 -27 125 0 125 c 0
 124 125 201 143 245 193 c 0
 282 235 296 299 296 391 c 2
 296 1211 l 25
 396 1211 l 25
EndSplineSet
Colour: ffff
EndChar

StartChar: uniFEE0
Encoding: 65248 65248 131
Width: 692
VWidth: 1854
Flags: HMW
AnchorPoint: "Anchor-3" 346 0 basechar 0
AnchorPoint: "Anchor-5" 346 1211 basechar 0
LayerCount: 2
Fore
SplineSet
0 125 m 0
 243 125 296 241 296 474 c 2
 296 1211 l 25
 396 1211 l 25
 396 474 l 2
 396 242 448 125 692 125 c 1
 692 25 l 1
 522 25 405 80 346 197 c 1
 287 80 170 25 0 25 c 0
 -28 25 -50 47 -50 75 c 0
 -50 103 -28 125 0 125 c 0
EndSplineSet
Colour: ffff
EndChar

StartChar: uniFEE2
Encoding: 65250 65250 132
Width: 1329
VWidth: 2374
Flags: HMW
AnchorPoint: "Anchor-3" 668 -50 basechar 0
AnchorPoint: "Anchor-5" 750 696 basechar 0
LayerCount: 2
Fore
SplineSet
495 196 m 1
 584 171 689 126 793 126 c 0
 898 126 969 161 969 302 c 0
 969 453 882 571 760 571 c 0
 589 571 510 378 495 196 c 1
1329 125 m 1
 1329 25 l 1
 1209 25 1117 60 1036 153 c 1
 987 63 891 26 793 26 c 0
 697 26 597 52 522 82 c 0
 476 100 449 110 401 110 c 0
 300 110 228 32 228 -99 c 2
 228 -783 l 1
 128 -783 l 1
 128 -99 l 2
 128 68 232 207 396 210 c 1
 413 392 498 671 760 671 c 0
 939 671 1047 519 1066 355 c 1
 1087 188 1174 125 1329 125 c 1
EndSplineSet
Colour: ffff
EndChar

StartChar: uniFEE3
Encoding: 65251 65251 133
Width: 1046
VWidth: 1854
Flags: HMW
AnchorPoint: "Anchor-5" 590 744 basechar 0
AnchorPoint: "Anchor-3" 619 0 basechar 0
LayerCount: 2
Back
SplineSet
291 298 m 5
 346 193 516 75 648 75 c 4
 764 75 868 185 868 322 c 4
 868 474 762 641 605 641 c 4
 466 641 375 534 321.87890625 388.64453125 c 4
 249.257847744 189.931228208 183 75 0 75 c 1029
EndSplineSet
Fore
SplineSet
0 125 m 4
 122 125 175 176 231 296 c 0
 246 328 260 365 275 406 c 0
 331 559 435 691 605 691 c 0
 801 691 918 491 918 322 c 0
 918 161 796 25 648 25 c 0
 520 25 379 111 296 205 c 1
 234 95 144 25 0 25 c 4
 -28 25 -50 47 -50 75 c 4
 -50 103 -28 125 0 125 c 4
344 306 m 1
 400 219 548 125 648 125 c 0
 732 125 818 209 818 322 c 0
 818 457 723 591 605 591 c 0
 497 591 419 509 369 371 c 2
 344 306 l 1
EndSplineSet
Colour: ffff
EndChar

StartChar: uniFEE4
Encoding: 65252 65252 134
Width: 1238
VWidth: 1854
Flags: HMW
AnchorPoint: "Anchor-5" 590 744 basechar 0
AnchorPoint: "Anchor-3" 619 0 basechar 0
LayerCount: 2
Fore
SplineSet
0 125 m 0
 122 125 175 176 231 296 c 0
 246 328 260 365 275 406 c 0
 331 559 435 691 605 691 c 0
 786 691 899 522 916 363 c 1
 927 300 947 251 975 216 c 0
 1021 158 1098 125 1238 125 c 1
 1238 25 l 1
 1072 25 952 71 882 175 c 1
 835 86 747 25 648 25 c 0
 520 25 379 111 296 205 c 1
 234 95 144 25 0 25 c 0
 -28 25 -50 47 -50 75 c 0
 -50 103 -28 125 0 125 c 0
344 306 m 1
 400 219 548 125 648 125 c 0
 732 125 818 209 818 322 c 0
 818 457 723 591 605 591 c 0
 497 591 419 509 369 371 c 2
 344 306 l 1
EndSplineSet
Colour: ffff
EndChar

StartChar: uniFEEA
Encoding: 65258 65258 135
Width: 1041
VWidth: 2374
Flags: HMW
AnchorPoint: "Anchor-5" 493 1003 basechar 0
AnchorPoint: "Anchor-3" 513 0 basechar 0
LayerCount: 2
Fore
SplineSet
627 770 m 1
 397 734 230 625 230 497 c 0
 230 387 327 330 477 330 c 0
 522 330 604 344 654 359 c 1
 650 394 647 432 645 471 c 2
 627 770 l 1
1041 25 m 1
 843 25 717 102 673 260 c 1
 612 242 533 230 477 230 c 0
 311 230 130 303 130 497 c 0
 130 717 378 834 621 870 c 1
 613 1010 l 1
 713 1016 l 1
 745 477 l 2
 753 341 767 254 809 203 c 0
 849 156 918 125 1041 125 c 1
 1041 25 l 1
EndSplineSet
Colour: ffff
EndChar

StartChar: uniFEEB
Encoding: 65259 65259 136
Width: 1293
VWidth: 1854
Flags: HMW
AnchorPoint: "Anchor-5" 578 952 basechar 0
AnchorPoint: "Anchor-3" 678 28 basechar 0
LayerCount: 2
Back
SplineSet
0 75 m 1
 402 75 716 224 716 487 c 0
 716 639 628 763 456 763 c 0
 284 763 196 639 196 487 c 0
 196 224 500 75 844 75 c 1
 1017 75 1115 163 1115 310 c 0
 1115 545 809.960710588 667.878652435 538 756 c 0
 359 814 266 905 184 1027 c 1025
EndSplineSet
Fore
SplineSet
0 125 m 0
 127 125 244 137 342 162 c 1
 236 227 147 325 147 461 c 0
 147 638 276 751 399 790 c 1
 320 844 258 902 212 953 c 1
 286 1021 l 1
 362 937 495 827 656 769 c 0
 886 687 1165 563 1165 310 c 0
 1165 154 1061 25 854 25 c 0
 763 25 599 51 473 99 c 1
 342 48 179 25 0 25 c 0
 -28 25 -50 47 -50 75 c 0
 -50 103 -28 125 0 125 c 0
597 164 m 1
 696 137 794 125 854 125 c 0
 1011 125 1065 204 1065 310 c 0
 1065 448 930 549 739 630 c 1
 757 579 764 524 764 471 c 0
 764 339 699 235 597 164 c 1
664 471 m 0
 664 600 620 706 499 706 c 0
 393 706 247 617 247 461 c 0
 247 348 344 264 472 208 c 1
 592 264 664 349 664 471 c 0
EndSplineSet
Colour: ffff
EndChar

StartChar: uniFEEC
Encoding: 65260 65260 137
Width: 986
VWidth: 1854
Flags: HMW
AnchorPoint: "Anchor-5" 494 782 basechar 0
AnchorPoint: "Anchor-3" 494 -538 basechar 0
LayerCount: 2
Fore
SplineSet
278 144 m 1
 577 189 705 303 705 447 c 0
 705 591 642 642 544 642 c 0
 388 642 283 473 278 144 c 1
986 25 m 1
 821 25 750 -20 750 -160 c 0
 750 -244 750 -328 750 -412 c 1
 675 -477 l 1
 656 -477 l 2
 422 -477 221 -240 184 32 c 1
 126 27 65 25 0 25 c 0
 -27 25 -50 48 -50 75 c 0
 -50 102 -27 125 0 125 c 0
 63 125 123 127 178 132 c 1
 180 470 290 742 544 742 c 0
 698 742 805 633 805 447 c 0
 805 223 598 88 283 43 c 1
 315 -187 480 -364 638 -376 c 1
 650 -366 l 1
 650 -160 l 2
 650 48 797 125 986 125 c 1
 986 25 l 1
EndSplineSet
Colour: ffff
EndChar

StartChar: zero
Encoding: 48 48 139
Width: 1119
VWidth: 1816
Flags: HMW
LayerCount: 2
Fore
SplineSet
560 -18 m 0
 172 -18 100 425 100 706 c 0
 100 987 172 1428 560 1428 c 0
 948 1428 1019 987 1019 706 c 0
 1019 425 948 -18 560 -18 c 0
560 68 m 0
 836 68 919 411 919 706 c 0
 919 1001 836 1344 560 1344 c 0
 284 1344 200 1001 200 706 c 0
 200 411 284 68 560 68 c 0
EndSplineSet
Colour: ffff00
EndChar

StartChar: one
Encoding: 49 49 140
Width: 721
VWidth: 1819
Flags: HMW
LayerCount: 2
Fore
SplineSet
121 1079 m 1
 119 1163 l 1
 211 1164 l 2
 360 1165 409 1192 434 1269 c 0
 445 1303 451 1350 451 1411 c 1
 551 1411 l 1
 551 0 l 1
 451 0 l 1
 451 1135 l 1
 392 1093 312 1081 213 1080 c 2
 121 1079 l 1
EndSplineSet
Colour: ffff00
EndChar

StartChar: two
Encoding: 50 50 141
Width: 1126
VWidth: 1816
Flags: HMW
LayerCount: 2
Fore
SplineSet
1006 108 m 1
 1006 22 l 1
 100 22 l 1
 100 174 l 1
 666 582 l 2
 806 683 881 807 881 960 c 0
 881 1199 708 1304 541 1304 c 0
 374 1304 201 1199 201 960 c 1
 101 960 l 1
 101 1241 318 1388 541 1388 c 0
 764 1388 981 1241 981 960 c 0
 981 781 888 633 730 518 c 2
 200 134 l 1
 200 108 l 1
 1006 108 l 1
EndSplineSet
Colour: ffff00
EndChar

StartChar: three
Encoding: 51 51 142
Width: 1079
VWidth: 1816
Flags: HMW
LayerCount: 2
Fore
SplineSet
100 408 m 1
 200 408 l 1
 200 198 372 108 548 108 c 0
 723 108 899 184 899 396 c 0
 899 624 730 708 539 708 c 2
 466 708 l 1
 466 793 l 1
 539 793 l 2
 730 793 860 883 860 1038 c 0
 860 1223 713 1304 561 1304 c 0
 405 1304 259 1230 259 1047 c 1
 159 1047 l 1
 159 1283 366 1389 561 1389 c 0
 758 1389 960 1273 960 1038 c 0
 960 907 884 806 764 752 c 1
 900 696 999 577 999 396 c 0
 999 128 757 22 548 22 c 0
 330 22 100 146 100 408 c 1
EndSplineSet
Colour: ffff00
EndChar

StartChar: four
Encoding: 52 52 143
Width: 1217
VWidth: 1816
Flags: HMW
LayerCount: 2
Fore
SplineSet
784 434 m 1
 784 1260 l 1
 204 434 l 1
 784 434 l 1
1097 434 m 1
 1097 350 l 1
 884 350 l 1
 884 0 l 1
 784 0 l 1
 784 350 l 1
 100 350 l 1
 100 452 l 1
 758 1388 l 1
 884 1388 l 1
 884 434 l 1
 1097 434 l 1
EndSplineSet
Colour: ffff00
EndChar

StartChar: five
Encoding: 53 53 144
Width: 1112
VWidth: 1816
Flags: HMW
LayerCount: 2
Fore
SplineSet
992 1388 m 1
 992 1304 l 1
 264 1304 l 1
 226 912 l 1
 318 958 410 980 498 980 c 0
 804 980 967 778 967 501 c 0
 967 196 801 22 498 22 c 0
 247 22 100 188 100 401 c 1
 200 401 l 1
 200 220 311 108 498 108 c 0
 739 108 867 224 867 501 c 0
 867 752 736 894 498 894 c 0
 411 894 314 868 218 805 c 2
 192 788 l 1
 118 825 l 1
 172 1388 l 1
 992 1388 l 1
EndSplineSet
Colour: ffff00
EndChar

StartChar: six
Encoding: 54 54 145
Width: 1095
VWidth: 1816
Flags: HMW
LayerCount: 2
Fore
SplineSet
564 794 m 0
 452 794 318 742 201 633 c 1
 209 342 282 108 563 108 c 0
 768 108 895 269 895 436 c 0
 895 673 741 794 564 794 c 0
201 752 m 1
 317 837 445 878 564 878 c 0
 807 878 995 707 995 436 c 0
 995 239 840 22 563 22 c 0
 157 22 100 391 100 689 c 0
 100 1117 285 1388 593 1388 c 0
 746 1388 873 1341 980 1248 c 1
 908 1188 l 1
 817 1267 720 1304 593 1304 c 0
 387 1304 218 1130 201 752 c 1
EndSplineSet
Colour: ffff00
EndChar

StartChar: seven
Encoding: 55 55 146
Width: 1059
VWidth: 1816
Flags: HMW
LayerCount: 2
Fore
SplineSet
120 1304 m 1
 120 1388 l 1
 958 1388 l 1
 992 1296 l 1
 401 -15 l 1
 307 15 l 1
 886 1298 l 1
 884 1304 l 1
 120 1304 l 1
EndSplineSet
Colour: ffff00
EndChar

StartChar: eight
Encoding: 56 56 147
Width: 1057
VWidth: 1816
Flags: HMW
LayerCount: 2
Fore
SplineSet
793 1064 m 0
 793 1184 714 1304 529 1304 c 0
 344 1304 264 1184 264 1064 c 0
 264 894 343 808 528 808 c 0
 712 808 793 893 793 1064 c 0
200 386 m 0
 200 220 321 108 529 108 c 0
 737 108 857 220 857 386 c 0
 857 576 704 722 528 722 c 0
 346 722 200 579 200 386 c 0
723 762 m 1
 865 691 957 545 957 386 c 0
 957 178 791 22 529 22 c 0
 267 22 100 178 100 386 c 0
 100 547 190 693 332 763 c 1
 219 819 164 928 164 1064 c 0
 164 1214 276 1388 529 1388 c 0
 782 1388 893 1214 893 1064 c 0
 893 926 837 817 723 762 c 1
EndSplineSet
Colour: ffff00
EndChar

StartChar: nine
Encoding: 57 57 148
Width: 1095
VWidth: 1816
Flags: HMW
LayerCount: 2
Fore
SplineSet
531 618 m 0
 643 618 777 669 894 778 c 1
 886 1069 813 1304 532 1304 c 0
 327 1304 200 1142 200 975 c 0
 200 738 354 618 531 618 c 0
894 659 m 1
 778 574 650 532 531 532 c 0
 288 532 100 704 100 975 c 0
 100 1172 255 1388 532 1388 c 0
 938 1388 995 1020 995 722 c 0
 995 274 808 22 502 22 c 0
 349 22 222 70 115 163 c 1
 187 223 l 1
 278 144 375 108 502 108 c 0
 710 108 877 264 894 659 c 1
EndSplineSet
Colour: ffff00
EndChar

StartChar: uni0622
Encoding: 1570 1570 149
Width: 560
VWidth: 1854
Flags: HMW
AnchorPoint: "Anchor-5" 280 1472 basechar 0
AnchorPoint: "Anchor-3" 280 0 basechar 0
LayerCount: 2
Fore
SplineSet
330 0 m 1
 230 0 l 1
 230 1111 l 1
 330 1111 l 1
 330 0 l 1
413 1330 m 0
 355 1330 305 1347 257 1365 c 0
 214 1381 174 1394 132 1394 c 0
 67 1394 -14 1333 -72 1261 c 1
 -150 1323 l 1
 -88 1399 7 1494 120 1494 c 0
 171 1494 218 1478 264 1462 c 0
 311 1446 359 1430 413 1430 c 0
 486 1430 558 1455 634 1545 c 1
 710 1481 l 1
 616 1369 512 1330 413 1330 c 0
EndSplineSet
PairPos2: "'kern' Horizontal Kerning in Arabic lookup 2 per glyph data 5" uniE017 dx=100 dy=0 dh=100 dv=0 dx=0 dy=0 dh=0 dv=0
PairPos2: "'kern' Horizontal Kerning in Arabic lookup 2 per glyph data 5" uniE015 dx=100 dy=0 dh=100 dv=0 dx=0 dy=0 dh=0 dv=0
PairPos2: "'kern' Horizontal Kerning in Arabic lookup 2 per glyph data 5" uni06B5 dx=100 dy=0 dh=100 dv=0 dx=0 dy=0 dh=0 dv=0
PairPos2: "'kern' Horizontal Kerning in Arabic lookup 2 per glyph data 5" uniFB6C dx=150 dy=0 dh=150 dv=0 dx=0 dy=0 dh=0 dv=0
PairPos2: "'kern' Horizontal Kerning in Arabic lookup 2 per glyph data 5" uniE012 dx=100 dy=0 dh=100 dv=0 dx=0 dy=0 dh=0 dv=0
PairPos2: "'kern' Horizontal Kerning in Arabic lookup 2 per glyph data 1" uni063A dx=-225 dy=0 dh=-225 dv=0 dx=0 dy=0 dh=0 dv=0
PairPos2: "'kern' Horizontal Kerning in Arabic lookup 2 per glyph data 1" uni0639 dx=-225 dy=0 dh=-225 dv=0 dx=0 dy=0 dh=0 dv=0
PairPos2: "'kern' Horizontal Kerning in Arabic lookup 2 per glyph data 0" uni06AF dx=200 dy=0 dh=200 dv=0 dx=0 dy=0 dh=0 dv=0
PairPos2: "'kern' Horizontal Kerning in Arabic lookup 2 per glyph data 0" uni06A9 dx=200 dy=0 dh=200 dv=0 dx=0 dy=0 dh=0 dv=0
PairPos2: "'kern' Horizontal Kerning in Arabic lookup 2 per glyph data 0" uniFEDB dx=200 dy=0 dh=200 dv=0 dx=0 dy=0 dh=0 dv=0
PairPos2: "'kern' Horizontal Kerning in Arabic lookup 2 per glyph data 0" uniFB94 dx=200 dy=0 dh=200 dv=0 dx=0 dy=0 dh=0 dv=0
PairPos2: "'kern' Horizontal Kerning in Arabic lookup 2 per glyph data 0" uniFB90 dx=200 dy=0 dh=200 dv=0 dx=0 dy=0 dh=0 dv=0
PairPos2: "'kern' Horizontal Kerning in Arabic lookup 2 per glyph data 0" uniFED7 dx=150 dy=0 dh=150 dv=0 dx=0 dy=0 dh=0 dv=0
PairPos2: "'kern' Horizontal Kerning in Arabic lookup 2 per glyph data 0" uniFED3 dx=150 dy=0 dh=150 dv=0 dx=0 dy=0 dh=0 dv=0
PairPos2: "'kern' Horizontal Kerning in Arabic lookup 2 per glyph data 0" uniFE9B dx=150 dy=0 dh=150 dv=0 dx=0 dy=0 dh=0 dv=0
PairPos2: "'kern' Horizontal Kerning in Arabic lookup 2 per glyph data 0" uniFE97 dx=150 dy=0 dh=150 dv=0 dx=0 dy=0 dh=0 dv=0
PairPos2: "'kern' Horizontal Kerning in Arabic lookup 2 per glyph data 0" uni0639 dx=-200 dy=0 dh=-200 dv=0 dx=0 dy=0 dh=0 dv=0
PairPos2: "'kern' Horizontal Kerning in Arabic lookup 2 per glyph data 0" uni063A dx=-200 dy=0 dh=-200 dv=0 dx=0 dy=0 dh=0 dv=0
PairPos2: "'kern' Horizontal Kerning in Arabic lookup 2 per glyph data 0" uni0622 dx=400 dy=0 dh=400 dv=0 dx=0 dy=0 dh=0 dv=0
PairPos2: "'kern' Horizontal Kerning in Arabic lookup 2 per glyph data 0" uni0627 dx=200 dy=0 dh=200 dv=0 dx=0 dy=0 dh=0 dv=0
PairPos2: "'kern' Horizontal Kerning in Arabic lookup 2 per glyph data 0" uni0623 dx=200 dy=0 dh=200 dv=0 dx=0 dy=0 dh=0 dv=0
PairPos2: "'kern' Horizontal Kerning in Arabic lookup 2 per glyph data 0" uni0625 dx=200 dy=0 dh=200 dv=0 dx=0 dy=0 dh=0 dv=0
PairPos2: "'kern' Horizontal Kerning in Arabic lookup 2 per glyph data 0" uniFE8B dx=100 dy=0 dh=100 dv=0 dx=0 dy=0 dh=0 dv=0
PairPos2: "'kern' Horizontal Kerning in Arabic lookup 2 per glyph data 0" uni0644 dx=100 dy=0 dh=100 dv=0 dx=0 dy=0 dh=0 dv=0
PairPos2: "'kern' Horizontal Kerning in Arabic lookup 2 per glyph data 0" uniFEDF dx=100 dy=0 dh=100 dv=0 dx=0 dy=0 dh=0 dv=0
PairPos2: "'kern' Horizontal Kerning in Arabic lookup 2 per glyph data 0" uniFEFB dx=100 dy=0 dh=100 dv=0 dx=0 dy=0 dh=0 dv=0
PairPos2: "'kern' Horizontal Kerning in Arabic lookup 2 per glyph data 0" uniFEF9 dx=100 dy=0 dh=100 dv=0 dx=0 dy=0 dh=0 dv=0
PairPos2: "'kern' Horizontal Kerning in Arabic lookup 2 per glyph data 0" uniFEF7 dx=100 dy=0 dh=100 dv=0 dx=0 dy=0 dh=0 dv=0
PairPos2: "'kern' Horizontal Kerning in Arabic lookup 2 per glyph data 0" uniFEF5 dx=100 dy=0 dh=100 dv=0 dx=0 dy=0 dh=0 dv=0
Ligature2: "'liga' Standard Ligatures in Arabic lookup 9 subtable" uni0627 uni0653
Substitution2: "'fina' Terminal Forms in Arabic lookup 2 subtable" uniFE82
LCarets2: 1 0
Colour: ffff
EndChar

StartChar: uni0643
Encoding: 1603 1603 168
Width: 1585
VWidth: 1854
Flags: HMW
AnchorPoint: "Anchor-5" 810 971 basechar 0
AnchorPoint: "Anchor-3" 868 0 basechar 0
LayerCount: 2
Fore
SplineSet
1315 1211 m 1
 1415 1211 l 1
 1415 517 l 2
 1415 362 1393 237 1320 148 c 0
 1221 28 1057 25 868 25 c 0
 472 25 128 69 128 400 c 0
 128 477 143 570 160 642 c 1
 258 618 l 1
 242 552 228 464 228 400 c 0
 228 177 448 125 868 125 c 0
 1065 125 1181 138 1242 212 c 0
 1291 271 1315 370 1315 517 c 2
 1315 1211 l 1
EndSplineSet
Refer: 25 1620 N 1 0 0 1 811 -892 2
Substitution2: "'init' Initial Forms in Arabic lookup 4 subtable" uniFEDB
Substitution2: "'medi' Medial Forms in Arabic lookup 3 subtable" uniFEDC
Substitution2: "'fina' Terminal Forms in Arabic lookup 2 subtable" uniFEDA
Colour: ffff
EndChar

StartChar: uniFEEE
Encoding: 65262 65262 194
Width: 898
VWidth: 1854
Flags: HMW
AnchorPoint: "Anchor-3" 412 -502 basechar 0
AnchorPoint: "Anchor-5" 440 726 basechar 0
LayerCount: 2
Fore
SplineSet
898 125 m 1
 898 25 l 1
 765 25 l 1
 730 -231 512 -393 136 -489 c 1
 111 -393 l 1
 468 -302 632 -163 664 25 c 1
 458 25 l 2
 285 25 132 101 132 304 c 0
 132 494 258 701 440 701 c 0
 718 701 766 309 770 125 c 1
 898 125 l 1
670 125 m 1
 665 332 599 601 440 601 c 0
 342 601 232 464 232 304 c 0
 232 171 309 125 458 125 c 2
 670 125 l 1
EndSplineSet
PairPos2: "'kern' Horizontal Kerning in Arabic lookup 2 per glyph data 3" uniFEDB dx=-200 dy=0 dh=-200 dv=0 dx=0 dy=0 dh=0 dv=0
PairPos2: "'kern' Horizontal Kerning in Arabic lookup 2 per glyph data 3" uniFB94 dx=-200 dy=0 dh=-200 dv=0 dx=0 dy=0 dh=0 dv=0
PairPos2: "'kern' Horizontal Kerning in Arabic lookup 2 per glyph data 3" uniFB90 dx=-200 dy=0 dh=-200 dv=0 dx=0 dy=0 dh=0 dv=0
PairPos2: "'kern' Horizontal Kerning in Arabic lookup 2 per glyph data 3" uni06AF dx=-200 dy=0 dh=-200 dv=0 dx=0 dy=0 dh=0 dv=0
PairPos2: "'kern' Horizontal Kerning in Arabic lookup 2 per glyph data 3" uni06A9 dx=-200 dy=0 dh=-200 dv=0 dx=0 dy=0 dh=0 dv=0
PairPos2: "'kern' Horizontal Kerning in Arabic lookup 2 per glyph data 1" uni063A dx=-100 dy=0 dh=-100 dv=0 dx=0 dy=0 dh=0 dv=0
PairPos2: "'kern' Horizontal Kerning in Arabic lookup 2 per glyph data 1" uni0639 dx=-100 dy=0 dh=-100 dv=0 dx=0 dy=0 dh=0 dv=0
Colour: ffff
EndChar

StartChar: uniFEDA
Encoding: 65242 65242 231
Width: 1748
VWidth: 1854
Flags: HMW
AnchorPoint: "Anchor-5" 809 971 basechar 0
AnchorPoint: "Anchor-3" 868 0 basechar 0
LayerCount: 2
Fore
SplineSet
1748 25 m 1
 1556 25 1429 88 1366 223 c 1
 1353 194 1339 171 1320 148 c 0
 1221 28 1057 25 868 25 c 0
 472 25 128 69 128 400 c 0
 128 477 143 570 160 642 c 1
 258 618 l 1
 242 552 228 464 228 400 c 0
 228 177 448 125 868 125 c 0
 1161 125 1270 152 1305 372 c 0
 1312 414 1315 462 1315 517 c 2
 1315 1211 l 25
 1415 1211 l 25
 1415 517 l 2
 1415 257 1476 125 1748 125 c 1
 1748 25 l 1
EndSplineSet
Refer: 25 1620 N 1 0 0 1 824 -892 2
Colour: ffff
EndChar

StartChar: uniFB8F
Encoding: 64399 64399 238
Width: 1744
VWidth: 1854
Flags: HMW
AnchorPoint: "Anchor-3" 868 0 basechar 0
AnchorPoint: "Anchor-5" 1304 1258 basechar 0
LayerCount: 2
Fore
SplineSet
1744 125 m 1
 1744 25 l 1
 1571 25 1477 89 1416 180 c 1
 1335 30 1086 25 891 25 c 0
 496 25 129 67 129 400 c 0
 129 509 162 611 190 695 c 1
 285 663 l 1
 257 580 229 489 229 400 c 0
 229 179 470 125 891 125 c 0
 1162 125 1343 151 1343 298 c 0
 1343 442 1124 709 914 867 c 2
 894 882 l 1
 894 1020 l 1
 917 1035 l 2
 1148 1183 1420 1290 1688 1345 c 1
 1708 1247 l 1
 1461 1196 1207 1097 994 965 c 1
 994 932 l 1
 1178 789 1382 571 1432 381 c 1
 1490 221 1531 125 1744 125 c 1
EndSplineSet
Colour: ffff
EndChar

StartChar: exclam
Encoding: 33 33 246
Width: 613
VWidth: 1647
Flags: HMW
LayerCount: 2
Fore
SplineSet
356 391 m 1
 256 391 l 1
 256 1411 l 1
 356 1411 l 1
 356 391 l 1
EndSplineSet
Refer: 0 46 N 1 0 0 1 80 0 2
Colour: ffff
EndChar

StartChar: uni066B
Encoding: 1643 1643 247
Width: 787
VWidth: 1854
Flags: HMW
LayerCount: 2
Fore
SplineSet
221 -285 m 1
 127 -249 l 1
 575 895 l 1
 669 859 l 1
 221 -285 l 1
EndSplineSet
PairPos2: "'kern' Horizontal Kerning in Arabic lookup 3 per glyph data 1" uni066B dx=-50 dy=0 dh=-50 dv=0 dx=0 dy=0 dh=0 dv=0
PairPos2: "'kern' Horizontal Kerning in Arabic lookup 3 per glyph data 1" uni06F2 dx=-100 dy=0 dh=-100 dv=0 dx=0 dy=0 dh=0 dv=0
PairPos2: "'kern' Horizontal Kerning in Arabic lookup 3 per glyph data 1" uni06F3 dx=-75 dy=0 dh=-75 dv=0 dx=0 dy=0 dh=0 dv=0
PairPos2: "'kern' Horizontal Kerning in Arabic lookup 3 per glyph data 1" uni06F0 dx=-50 dy=0 dh=-50 dv=0 dx=0 dy=0 dh=0 dv=0
PairPos2: "'kern' Horizontal Kerning in Arabic lookup 3 per glyph data 1" uni06F7 dx=-100 dy=0 dh=-100 dv=0 dx=0 dy=0 dh=0 dv=0
PairPos2: "'kern' Horizontal Kerning in Arabic lookup 3 per glyph data 0" uni0667 dx=-100 dy=0 dh=-100 dv=0 dx=0 dy=0 dh=0 dv=0
PairPos2: "'kern' Horizontal Kerning in Arabic lookup 3 per glyph data 0" uni0662 dx=-100 dy=0 dh=-100 dv=0 dx=0 dy=0 dh=0 dv=0
PairPos2: "'kern' Horizontal Kerning in Arabic lookup 3 per glyph data 0" uni0663 dx=-150 dy=0 dh=-150 dv=0 dx=0 dy=0 dh=0 dv=0
Colour: ffff
EndChar

StartChar: uniE000
Encoding: 57344 57344 248
Width: 120
VWidth: 1854
Flags: HMW
LayerCount: 2
Fore
SplineSet
0 125 m 0
 120 125 l 1
 120 25 l 1
 0 25 l 0
 -28 25 -50 47 -50 75 c 0
 -50 103 -28 125 0 125 c 0
EndSplineSet
Colour: ffff
EndChar

StartChar: uniE001
Encoding: 57345 57345 249
Width: 320
VWidth: 1854
Flags: HMW
LayerCount: 2
Fore
SplineSet
0 125 m 0
 320 125 l 1
 320 25 l 1
 0 25 l 0
 -28 25 -50 47 -50 75 c 0
 -50 103 -28 125 0 125 c 0
EndSplineSet
Colour: ffff
EndChar

StartChar: uniE002
Encoding: 57346 57346 250
Width: 450
VWidth: 1854
Flags: HMW
LayerCount: 2
Fore
SplineSet
0 125 m 0
 450 125 l 1
 450 25 l 1
 0 25 l 0
 -28 25 -50 47 -50 75 c 0
 -50 103 -28 125 0 125 c 0
EndSplineSet
Colour: ffff
EndChar

StartChar: simpledot
Encoding: 1114131 -1 251
Width: 2136
VWidth: 1509
Flags: HMW
LayerCount: 2
Fore
SplineSet
1080 132 m 1
 1187 239 l 1
 1294 132 l 1
 1187 25 l 1
 1080 132 l 1
EndSplineSet
Colour: ff0000
EndChar

StartChar: hyphen
Encoding: 45 45 252
Width: 993
VWidth: 1647
Flags: HMW
LayerCount: 2
Fore
SplineSet
873 552 m 1
 873 468 l 1
 120 468 l 1
 120 552 l 1
 873 552 l 1
EndSplineSet
Colour: ffff00
EndChar

StartChar: numbersign
Encoding: 35 35 254
Width: 1683
VWidth: 1819
Flags: HMW
LayerCount: 2
Fore
SplineSet
395 -11 m 1
 299 11 l 1
 432 448 l 1
 120 448 l 1
 120 534 l 1
 458 534 l 1
 574 914 l 1
 212 914 l 1
 212 998 l 1
 600 998 l 1
 730 1422 l 1
 826 1400 l 1
 704 998 l 1
 1148 998 l 1
 1278 1422 l 1
 1374 1400 l 1
 1252 998 l 1
 1563 998 l 1
 1563 914 l 1
 1226 914 l 1
 1110 534 l 1
 1471 534 l 1
 1471 448 l 1
 1084 448 l 1
 943 -11 l 1
 847 11 l 1
 980 448 l 1
 536 448 l 1
 395 -11 l 1
1122 914 m 1
 678 914 l 1
 562 534 l 1
 1006 534 l 1
 1122 914 l 1
EndSplineSet
Colour: ffff00
EndChar

StartChar: ampersand
Encoding: 38 38 257
Width: 1138
VWidth: 1819
Flags: HMW
LayerCount: 2
Fore
SplineSet
443 798 m 1
 603 882 739 955 739 1113 c 0
 739 1214 659 1304 519 1304 c 0
 372 1304 290 1206 290 1083 c 0
 290 1022 309 977 349 924 c 2
 443 798 l 1
786 182 m 1
 413 680 l 1
 291 608 200 527 200 376 c 0
 200 206 322 108 520 108 c 0
 631 108 719 135 786 182 c 1
839 1113 m 0
 839 904 653 807 497 727 c 1
 855 248 l 1
 908 315 938 405 938 516 c 1
 1038 516 l 1
 1038 378 995 258 912 171 c 1
 1023 23 l 1
 939 -23 l 1
 840 110 l 1
 755 53 645 22 520 22 c 0
 272 22 100 162 100 376 c 0
 100 566 225 673 359 752 c 1
 266 877 l 1
 213 941 190 1011 190 1083 c 0
 190 1238 304 1388 519 1388 c 0
 719 1388 839 1254 839 1113 c 0
EndSplineSet
Colour: ffff00
EndChar

StartChar: quotesingle
Encoding: 39 39 258
Width: 400
VWidth: 1819
Flags: HMW
LayerCount: 2
Fore
SplineSet
160 1411 m 1
 240 1411 l 1
 240 896 l 1
 160 896 l 1
 160 1411 l 1
EndSplineSet
Colour: ff00
EndChar

StartChar: plus
Encoding: 43 43 259
Width: 993
VWidth: 1647
Flags: HMW
LayerCount: 2
Fore
SplineSet
873 552 m 1
 873 468 l 1
 546 468 l 1
 546 134 l 1
 446 134 l 1
 446 468 l 1
 120 468 l 1
 120 552 l 1
 446 552 l 1
 446 886 l 1
 546 886 l 1
 546 552 l 1
 873 552 l 1
EndSplineSet
Colour: ffff00
EndChar

StartChar: comma
Encoding: 44 44 260
Width: 453
VWidth: 1507
Flags: HMW
LayerCount: 2
Fore
SplineSet
223 -198 m 1
 174 -160 l 1
 197 -134 265 -36 265 52 c 1
 194 52 155 84 155 150 c 0
 155 205 196 242 245 242 c 0
 307 242 347 200 347 117 c 0
 347 -22 276 -133 223 -198 c 1
EndSplineSet
EndChar

StartChar: question
Encoding: 63 63 262
Width: 1067
VWidth: 1854
Flags: HMW
LayerCount: 2
Fore
SplineSet
563 405 m 1
 463 405 l 1
 463 613 581 708 680 774 c 0
 761 827 817 874 817 983 c 0
 817 1174 702 1304 528 1304 c 0
 342 1304 250 1191 250 1024 c 0
 250 1000 251 977 255 954 c 1
 155 942 l 1
 151 971 150 998 150 1024 c 0
 150 1219 274 1388 528 1388 c 0
 776 1388 917 1200 917 983 c 0
 917 840 829 763 742 706 c 0
 651 646 563 581 563 405 c 1
EndSplineSet
Refer: 0 46 N -1 0 0 1 742 0 2
Colour: ffff00
EndChar

StartChar: at
Encoding: 64 64 263
Width: 2061
VWidth: 1819
Flags: HMW
LayerCount: 2
Fore
SplineSet
1046 1042 m 0
 1242 1042 1337 978 1429 906 c 1
 1376 308 l 2
 1375 298 1375 290 1375 279 c 0
 1375 155 1440 86 1554 86 c 0
 1735 86 1861 284 1861 530 c 0
 1861 998 1482 1368 1031 1368 c 0
 580 1368 200 998 200 530 c 0
 200 62 579 -308 1031 -308 c 0
 1109 -308 1185 -297 1257 -276 c 1
 1289 -356 l 1
 1207 -379 1121 -392 1031 -392 c 0
 511 -392 100 26 100 530 c 0
 100 1034 510 1454 1031 1454 c 0
 1552 1454 1961 1034 1961 530 c 0
 1961 278 1833 2 1554 2 c 0
 1415 2 1326 75 1291 176 c 1
 1209 59 1089 2 963 2 c 0
 756 2 552 133 552 452 c 0
 552 829 777 1042 1046 1042 c 0
1046 958 m 0
 851 958 652 805 652 452 c 0
 652 167 814 86 963 86 c 0
 1101 86 1265 188 1291 479 c 2
 1325 872 l 1
 1258 922 1189 958 1046 958 c 0
EndSplineSet
Colour: ffff00
EndChar

StartChar: A
Encoding: 65 65 264
Width: 1343
VWidth: 1819
Flags: HMW
LayerCount: 2
Fore
SplineSet
172 0 m 1
 68 0 l 1
 612 1388 l 1
 732 1388 l 1
 1275 0 l 1
 1171 0 l 1
 1009 412 l 1
 335 412 l 1
 172 0 l 1
368 498 m 1
 976 498 l 1
 672 1273 l 1
 368 498 l 1
EndSplineSet
Colour: ffff00
EndChar

StartChar: B
Encoding: 66 66 265
Width: 1286
VWidth: 1819
Flags: HMW
LayerCount: 2
Fore
SplineSet
170 1388 m 1
 685 1388 l 2
 902 1388 1073 1230 1073 1024 c 0
 1073 893 1004 784 899 721 c 1
 1040 666 1136 536 1136 381 c 0
 1136 175 964 22 748 22 c 2
 170 22 l 1
 170 1388 l 1
270 664 m 1
 270 108 l 1
 748 108 l 2
 904 108 1036 215 1036 381 c 0
 1036 548 902 664 748 664 c 2
 270 664 l 1
685 748 m 2
 841 748 973 858 973 1024 c 0
 973 1190 840 1304 685 1304 c 2
 270 1304 l 1
 270 748 l 1
 685 748 l 2
EndSplineSet
Colour: ffff00
EndChar

StartChar: C
Encoding: 67 67 266
Width: 1303
VWidth: 1819
Flags: HMW
LayerCount: 2
Fore
SplineSet
1067 189 m 1
 1139 131 l 1
 1037 39 900 -18 731 -18 c 0
 301 -18 100 334 100 706 c 0
 100 1078 302 1428 731 1428 c 0
 899 1428 1037 1373 1139 1281 c 1
 1067 1223 l 1
 983 1299 873 1344 731 1344 c 0
 378 1344 200 1058 200 706 c 0
 200 354 379 68 731 68 c 0
 872 68 983 113 1067 189 c 1
EndSplineSet
Colour: ffff00
EndChar

StartChar: D
Encoding: 68 68 267
Width: 1292
VWidth: 1819
Flags: HMW
LayerCount: 2
Fore
SplineSet
560 1388 m 2
 995 1388 1192 1084 1192 706 c 0
 1192 328 995 22 560 22 c 2
 170 22 l 1
 170 1388 l 1
 560 1388 l 2
560 1304 m 2
 270 1304 l 1
 270 108 l 1
 560 108 l 2
 919 108 1092 348 1092 706 c 0
 1092 1064 919 1304 560 1304 c 2
EndSplineSet
Colour: ffff00
EndChar

StartChar: E
Encoding: 69 69 268
Width: 1151
VWidth: 1819
Flags: HMW
LayerCount: 2
Fore
SplineSet
1001 108 m 1
 1001 22 l 1
 170 22 l 1
 170 1388 l 1
 1001 1388 l 1
 1001 1304 l 1
 270 1304 l 1
 270 748 l 1
 1001 748 l 1
 1001 664 l 1
 270 664 l 1
 270 108 l 1
 1001 108 l 1
EndSplineSet
Colour: ffff00
EndChar

StartChar: F
Encoding: 70 70 269
Width: 1151
VWidth: 1819
Flags: HMW
LayerCount: 2
Fore
SplineSet
270 0 m 1
 170 0 l 1
 170 1388 l 1
 1001 1388 l 1
 1001 1304 l 1
 270 1304 l 1
 270 748 l 1
 885 748 l 1
 885 664 l 1
 270 664 l 1
 270 0 l 1
EndSplineSet
Colour: ffff00
EndChar

StartChar: G
Encoding: 71 71 270
Width: 1400
VWidth: 1819
Flags: HMW
LayerCount: 2
Fore
SplineSet
702 624 m 1
 702 708 l 1
 1230 711 l 1
 1230 420 l 2
 1230 185 1117 -18 731 -18 c 0
 301 -18 100 334 100 706 c 0
 100 1078 302 1428 731 1428 c 0
 898 1428 1062 1375 1166 1281 c 1
 1094 1223 l 1
 1012 1297 874 1344 731 1344 c 0
 378 1344 200 1058 200 706 c 0
 200 354 379 68 731 68 c 0
 1055 68 1130 211 1130 420 c 2
 1130 625 l 1
 702 624 l 1
EndSplineSet
Colour: ffff00
EndChar

StartChar: H
Encoding: 72 72 271
Width: 1309
VWidth: 1819
Flags: HMW
LayerCount: 2
Fore
SplineSet
1039 1411 m 1
 1139 1411 l 1
 1139 0 l 1
 1039 0 l 1
 1039 686 l 1
 270 686 l 1
 270 0 l 1
 170 0 l 1
 170 1411 l 1
 270 1411 l 1
 270 770 l 1
 1039 770 l 1
 1039 1411 l 1
EndSplineSet
Colour: ffff00
EndChar

StartChar: I
Encoding: 73 73 272
Width: 440
VWidth: 1819
Flags: HMW
LayerCount: 2
Fore
SplineSet
270 0 m 1
 170 0 l 1
 170 1411 l 1
 270 1411 l 1
 270 0 l 1
EndSplineSet
Colour: ffff00
EndChar

StartChar: J
Encoding: 74 74 273
Width: 840
VWidth: 1819
Flags: HMW
LayerCount: 2
Fore
SplineSet
74 30 m 1
 126 102 l 1
 169 79 224 68 286 68 c 0
 446 68 570 133 570 360 c 2
 570 1411 l 1
 670 1411 l 1
 670 360 l 2
 670 95 496 -18 286 -18 c 0
 210 -18 137 -3 74 30 c 1
EndSplineSet
Colour: ffff00
EndChar

StartChar: K
Encoding: 75 75 274
Width: 1276
VWidth: 1819
Flags: HMW
LayerCount: 2
Fore
SplineSet
1012 1411 m 1
 1140 1411 l 1
 504 735 l 1
 1138 0 l 1
 1014 0 l 1
 440 667 l 1
 270 486 l 1
 270 0 l 1
 170 0 l 1
 170 1411 l 1
 270 1411 l 1
 270 622 l 1
 1012 1411 l 1
EndSplineSet
Colour: ffff00
EndChar

StartChar: L
Encoding: 76 76 275
Width: 1101
VWidth: 1819
Flags: HMW
LayerCount: 2
Fore
SplineSet
1001 108 m 1
 1001 22 l 1
 170 22 l 1
 170 1411 l 1
 270 1411 l 1
 270 108 l 1
 1001 108 l 1
EndSplineSet
Colour: ffff00
EndChar

StartChar: M
Encoding: 77 77 276
Width: 1755
VWidth: 1819
Flags: HMW
LayerCount: 2
Fore
SplineSet
270 0 m 1
 170 0 l 1
 170 1411 l 1
 293 1411 l 1
 852 129 l 1
 1464 1411 l 1
 1585 1411 l 1
 1585 0 l 1
 1485 0 l 1
 1485 1229 l 1
 900 0 l 1
 802 0 l 1
 270 1219 l 1
 270 0 l 1
EndSplineSet
Colour: ffff00
EndChar

StartChar: N
Encoding: 78 78 277
Width: 1356
VWidth: 1819
Flags: HMW
LayerCount: 2
Fore
SplineSet
1086 1411 m 1
 1186 1411 l 1
 1186 0 l 1
 1072 0 l 1
 270 1254 l 1
 270 0 l 1
 170 0 l 1
 170 1411 l 1
 283 1411 l 1
 1086 157 l 1
 1086 1411 l 1
EndSplineSet
Colour: ffff00
EndChar

StartChar: O
Encoding: 79 79 278
Width: 1462
VWidth: 1819
Flags: HMW
LayerCount: 2
Fore
SplineSet
731 1428 m 0
 1160 1428 1362 1078 1362 706 c 0
 1362 334 1161 -18 731 -18 c 0
 301 -18 100 334 100 706 c 0
 100 1078 302 1428 731 1428 c 0
731 1344 m 0
 378 1344 200 1058 200 706 c 0
 200 354 379 68 731 68 c 0
 1083 68 1262 354 1262 706 c 0
 1262 1058 1084 1344 731 1344 c 0
EndSplineSet
Colour: ffff00
EndChar

StartChar: P
Encoding: 80 80 279
Width: 1173
VWidth: 1819
Flags: HMW
LayerCount: 2
Fore
SplineSet
270 0 m 1
 170 0 l 1
 170 1388 l 1
 685 1388 l 2
 902 1388 1073 1230 1073 1024 c 0
 1073 818 901 664 685 664 c 2
 270 664 l 1
 270 0 l 1
270 1304 m 1
 270 748 l 1
 685 748 l 2
 841 748 973 858 973 1024 c 0
 973 1190 840 1304 685 1304 c 2
 270 1304 l 1
EndSplineSet
Colour: ffff00
EndChar

StartChar: R
Encoding: 82 82 281
Width: 1223
VWidth: 1819
Flags: HMW
LayerCount: 2
Fore
SplineSet
170 1388 m 1
 685 1388 l 2
 902 1388 1073 1230 1073 1024 c 0
 1073 882 991 764 870 705 c 1
 992 643 1073 523 1073 381 c 2
 1073 0 l 1
 973 0 l 1
 973 381 l 2
 973 548 839 664 685 664 c 2
 270 664 l 1
 270 0 l 1
 170 0 l 1
 170 1388 l 1
270 748 m 1
 685 748 l 2
 841 748 973 858 973 1024 c 0
 973 1190 840 1304 685 1304 c 2
 270 1304 l 1
 270 748 l 1
EndSplineSet
Colour: ffff00
EndChar

StartChar: S
Encoding: 83 83 282
Width: 1146
VWidth: 1819
Flags: HMW
LayerCount: 2
Fore
SplineSet
100 376 m 1
 200 376 l 1
 200 171 391 68 587 68 c 0
 776 68 946 154 946 349 c 0
 946 519 780 613 567 672 c 0
 371 726 130 835 130 1063 c 0
 130 1302 331 1428 560 1428 c 0
 799 1428 1016 1282 1016 1035 c 1
 916 1035 l 1
 916 1234 751 1344 560 1344 c 0
 375 1344 230 1252 230 1063 c 0
 230 903 390 810 598 752 c 0
 799 697 1046 587 1046 349 c 0
 1046 96 812 -18 587 -18 c 0
 353 -18 100 115 100 376 c 1
EndSplineSet
Colour: ffff00
EndChar

StartChar: T
Encoding: 84 84 283
Width: 1300
VWidth: 1819
Flags: HMW
LayerCount: 2
Fore
SplineSet
700 0 m 1
 600 0 l 1
 600 1304 l 1
 100 1304 l 1
 100 1388 l 1
 1200 1388 l 1
 1200 1304 l 1
 700 1304 l 1
 700 0 l 1
EndSplineSet
Colour: ffff00
EndChar

StartChar: U
Encoding: 85 85 284
Width: 1316
VWidth: 1819
Flags: HMW
LayerCount: 2
Fore
SplineSet
1046 1411 m 1
 1146 1411 l 1
 1146 438 l 2
 1146 167 927 -18 658 -18 c 0
 389 -18 170 167 170 438 c 2
 170 1411 l 1
 270 1411 l 1
 270 438 l 2
 270 207 447 68 658 68 c 0
 869 68 1046 207 1046 438 c 2
 1046 1411 l 1
EndSplineSet
Colour: ffff00
EndChar

StartChar: V
Encoding: 86 86 285
Width: 1343
VWidth: 1819
Flags: HMW
LayerCount: 2
Fore
SplineSet
1171 1411 m 1
 1275 1411 l 1
 722 0 l 1
 620 0 l 1
 68 1411 l 1
 172 1411 l 1
 671 138 l 1
 1171 1411 l 1
EndSplineSet
Colour: ffff00
EndChar

StartChar: W
Encoding: 87 87 286
Width: 1932
VWidth: 1819
Flags: HMW
LayerCount: 2
Fore
SplineSet
1760 1411 m 1
 1864 1411 l 1
 1450 0 l 1
 1335 0 l 1
 966 1253 l 1
 596 0 l 1
 481 0 l 1
 68 1411 l 1
 172 1411 l 1
 539 157 l 1
 910 1411 l 1
 1022 1411 l 1
 1392 157 l 1
 1760 1411 l 1
EndSplineSet
Colour: ffff00
EndChar

StartChar: X
Encoding: 88 88 287
Width: 1186
VWidth: 1819
Flags: HMW
LayerCount: 2
Fore
SplineSet
1123 0 m 1
 1009 0 l 1
 593 620 l 1
 177 0 l 1
 63 0 l 1
 535 706 l 1
 63 1411 l 1
 177 1411 l 1
 593 791 l 1
 1009 1411 l 1
 1123 1411 l 1
 651 706 l 1
 1123 0 l 1
EndSplineSet
Colour: ffff00
EndChar

StartChar: Y
Encoding: 89 89 288
Width: 1186
VWidth: 1819
Flags: HMW
LayerCount: 2
Fore
SplineSet
1009 1411 m 1
 1123 1411 l 1
 643 660 l 1
 643 0 l 1
 543 0 l 1
 543 660 l 1
 63 1411 l 1
 177 1411 l 1
 593 760 l 1
 1009 1411 l 1
EndSplineSet
Colour: ffff00
EndChar

StartChar: Z
Encoding: 90 90 289
Width: 1400
VWidth: 1819
Flags: HMW
LayerCount: 2
Fore
SplineSet
150 1304 m 1
 150 1388 l 1
 1250 1388 l 1
 1250 1284 l 1
 255 108 l 1
 1250 108 l 1
 1250 22 l 1
 150 22 l 1
 150 127 l 1
 1145 1304 l 1
 150 1304 l 1
EndSplineSet
Colour: ffff00
EndChar

StartChar: bracketleft
Encoding: 91 91 290
Width: 642
VWidth: 1819
Flags: HMW
LayerCount: 2
Fore
SplineSet
542 108 m 1
 542 22 l 1
 170 22 l 1
 170 1388 l 1
 542 1388 l 1
 542 1304 l 1
 270 1304 l 1
 270 108 l 1
 542 108 l 1
EndSplineSet
Colour: ffff00
EndChar

StartChar: backslash
Encoding: 92 92 291
Width: 1019
VWidth: 1819
Flags: HMW
LayerCount: 2
Fore
SplineSet
914 23 m 1
 824 -23 l 1
 105 1388 l 1
 195 1434 l 1
 914 23 l 1
EndSplineSet
Colour: ffff
EndChar

StartChar: bracketright
Encoding: 93 93 292
Width: 642
VWidth: 1819
Flags: HMW
LayerCount: 2
Fore
SplineSet
100 1304 m 1
 100 1388 l 1
 472 1388 l 1
 472 22 l 1
 100 22 l 1
 100 108 l 1
 372 108 l 1
 372 1304 l 1
 100 1304 l 1
EndSplineSet
Colour: ffff00
EndChar

StartChar: asciicircum
Encoding: 94 94 293
Width: 704
VWidth: 1819
Flags: HMW
LayerCount: 2
Fore
SplineSet
608 1162 m 1
 560 1124 l 1
 357 1381 l 1
 347 1381 l 1
 144 1124 l 1
 96 1162 l 1
 317 1441 l 1
 387 1441 l 1
 608 1162 l 1
EndSplineSet
Colour: ff00
EndChar

StartChar: underscore
Encoding: 95 95 294
Width: 666
VWidth: 1819
Flags: HMW
LayerCount: 2
Fore
SplineSet
666 125 m 1
 666 25 l 1
 0 25 l 1
 0 125 l 1
 666 125 l 1
EndSplineSet
Colour: ffff
EndChar

StartChar: grave
Encoding: 96 96 295
Width: 524
VWidth: 1819
Flags: HMW
LayerCount: 2
Fore
SplineSet
386 1183 m 1
 336 1151 l 1
 138 1467 l 1
 188 1499 l 1
 386 1183 l 1
EndSplineSet
Colour: ff00
EndChar

StartChar: a
Encoding: 97 97 296
Width: 1056
VWidth: 1819
Flags: HMW
LayerCount: 2
Fore
SplineSet
923 0 m 1
 825 0 l 1
 802 80 786 182 786 322 c 2
 786 771 l 2
 786 908 663 976 527 976 c 0
 392 976 270 908 270 771 c 1
 170 771 l 1
 170 964 354 1060 527 1060 c 0
 701 1060 886 964 886 771 c 2
 886 322 l 2
 886 188 902 70 923 0 c 1
EndSplineSet
Refer: 430 57355 N 1 0 0 1 0 0 2
Colour: ffff00
EndChar

StartChar: b
Encoding: 98 98 297
Width: 1158
VWidth: 1819
Flags: HMW
LayerCount: 2
Fore
SplineSet
270 0 m 1
 170 0 l 1
 170 1411 l 1
 270 1411 l 1
 270 0 l 1
EndSplineSet
Refer: 434 57359 N 1 0 0 1 0 0 2
Colour: ffff00
EndChar

StartChar: c
Encoding: 99 99 298
Width: 1074
VWidth: 1819
Flags: HMW
LayerCount: 2
Fore
SplineSet
919 850 m 1
 829 814 l 1
 773 915 681 976 544 976 c 0
 317 976 200 761 200 521 c 0
 200 281 317 68 544 68 c 0
 682 68 773 129 829 231 c 1
 919 195 l 1
 851 71 724 -18 544 -18 c 0
 235 -18 100 265 100 521 c 0
 100 777 235 1060 544 1060 c 0
 723 1060 851 973 919 850 c 1
EndSplineSet
Colour: ffff00
EndChar

StartChar: d
Encoding: 100 100 299
Width: 1158
VWidth: 1819
Flags: HMW
LayerCount: 2
Fore
SplineSet
988 0 m 1
 888 0 l 1
 888 1411 l 1
 988 1411 l 1
 988 0 l 1
EndSplineSet
Refer: 434 57359 N -1 0 0 -1 1158 1043 2
Colour: ffff00
EndChar

StartChar: e
Encoding: 101 101 300
Width: 1095
VWidth: 1819
Flags: HMW
LayerCount: 2
Fore
SplineSet
201 478 m 1
 220 195 377 67 590 67 c 0
 692 67 806 97 924 152 c 1
 954 76 l 1
 824 12 699 -18 587 -18 c 0
 302 -18 100 178 100 521 c 0
 100 777 235 1060 544 1060 c 0
 853 1060 995 778 995 521 c 2
 995 478 l 1
 201 478 l 1
201 564 m 1
 894 564 l 1
 879 783 758 976 544 976 c 0
 331 976 215 783 201 564 c 1
EndSplineSet
Colour: ffff00
EndChar

StartChar: f
Encoding: 102 102 301
Width: 784
VWidth: 1819
Flags: HMW
LayerCount: 2
Fore
SplineSet
683 1388 m 1
 683 1304 l 1
 496 1304 l 2
 433 1304 370 1250 370 1171 c 2
 370 0 l 1
 270 0 l 1
 270 1171 l 2
 270 1286 365 1388 496 1388 c 2
 683 1388 l 1
EndSplineSet
Refer: 429 57354 N 1 0 0 1 0 460 2
Colour: ffff00
EndChar

StartChar: g
Encoding: 103 103 302
Width: 1158
VWidth: 1819
Flags: HMW
LayerCount: 2
Fore
SplineSet
888 1043 m 1
 988 1043 l 1
 988 42 l 2
 988 -294 770 -436 517 -436 c 0
 381 -436 238 -395 112 -323 c 1
 150 -248 l 1
 263 -313 398 -354 522 -354 c 0
 720 -354 888 -248 888 42 c 2
 888 1043 l 1
EndSplineSet
Refer: 434 57359 N -1 0 0 -1 1158 1043 2
Colour: ffff00
EndChar

StartChar: h
Encoding: 104 104 303
Width: 1108
VWidth: 1819
Flags: HMW
LayerCount: 2
Fore
SplineSet
270 0 m 1
 170 0 l 1
 170 1411 l 1
 270 1411 l 1
 270 0 l 1
EndSplineSet
Refer: 432 57357 N 1 0 0 1 20 0 2
Colour: ffff00
EndChar

StartChar: k
Encoding: 107 107 306
Width: 1000
VWidth: 1819
Flags: HMW
LayerCount: 2
Fore
SplineSet
814 1043 m 1
 941 1043 l 1
 466 522 l 1
 908 0 l 1
 784 0 l 1
 403 451 l 1
 270 305 l 1
 270 0 l 1
 170 0 l 1
 170 1411 l 1
 270 1411 l 1
 270 445 l 1
 814 1043 l 1
EndSplineSet
Colour: ffff00
EndChar

StartChar: l
Encoding: 108 108 307
Width: 440
VWidth: 1819
Flags: HMW
LayerCount: 2
Fore
SplineSet
270 0 m 1
 170 0 l 1
 170 1411 l 1
 270 1411 l 1
 270 0 l 1
EndSplineSet
Colour: ffff00
EndChar

StartChar: m
Encoding: 109 109 308
Width: 1576
VWidth: 1819
Flags: HMW
LayerCount: 2
Fore
SplineSet
170 1043 m 1
 270 1043 l 1
 270 0 l 1
 170 0 l 1
 170 1043 l 1
EndSplineSet
Refer: 431 57356 N 1 0 0 1 -548 0 2
Refer: 431 57356 N 1 0 0 1 20 0 2
Colour: ffff00
EndChar

StartChar: n
Encoding: 110 110 309
Width: 1108
VWidth: 1819
Flags: HMW
LayerCount: 2
Fore
SplineSet
270 0 m 1
 170 0 l 1
 170 1043 l 1
 270 1043 l 1
 270 0 l 1
EndSplineSet
Refer: 432 57357 N 1 0 0 1 20 0 2
Colour: ffff00
EndChar

StartChar: o
Encoding: 111 111 310
Width: 1088
VWidth: 1819
Flags: HMW
LayerCount: 2
Fore
SplineSet
544 976 m 0
 317 976 200 761 200 521 c 0
 200 281 317 68 544 68 c 0
 771 68 888 281 888 521 c 0
 888 761 771 976 544 976 c 0
544 1060 m 0
 853 1060 988 777 988 521 c 0
 988 265 853 -18 544 -18 c 0
 235 -18 100 265 100 521 c 0
 100 777 235 1060 544 1060 c 0
EndSplineSet
Colour: ffff00
EndChar

StartChar: p
Encoding: 112 112 311
Width: 1158
VWidth: 1819
Flags: HMW
LayerCount: 2
Fore
SplineSet
170 1043 m 1
 270 1043 l 1
 270 -419 l 1
 170 -419 l 1
 170 1043 l 1
EndSplineSet
Refer: 434 57359 N 1 0 0 1 0 0 2
Colour: ffff00
EndChar

StartChar: q
Encoding: 113 113 312
Width: 1158
VWidth: 1819
Flags: HMW
LayerCount: 2
Fore
SplineSet
888 1043 m 1
 988 1043 l 1
 988 -419 l 1
 888 -419 l 1
 888 1043 l 1
EndSplineSet
Refer: 434 57359 N -1 0 0 -1 1158 1043 2
Colour: ffff00
EndChar

StartChar: r
Encoding: 114 114 313
Width: 774
VWidth: 1819
Flags: HMW
LayerCount: 2
Fore
SplineSet
170 1043 m 1
 270 1043 l 1
 270 0 l 1
 170 0 l 1
 170 1043 l 1
EndSplineSet
Refer: 433 57358 N 1 0 0 1 20 0 2
Colour: ffff00
EndChar

StartChar: s
Encoding: 115 115 314
Width: 959
VWidth: 1819
Flags: HMW
LayerCount: 2
Fore
SplineSet
100 322 m 1
 200 322 l 1
 200 169 331 108 479 108 c 0
 627 108 759 170 759 322 c 0
 759 456 641 477 470 498 c 0
 320 517 115 544 115 734 c 0
 115 938 306 1020 479 1020 c 0
 652 1020 842 937 842 734 c 1
 742 734 l 1
 742 879 620 936 479 936 c 0
 338 936 215 878 215 734 c 0
 215 622 318 603 484 582 c 0
 641 563 859 530 859 322 c 0
 859 110 659 22 479 22 c 0
 299 22 100 111 100 322 c 1
EndSplineSet
Colour: ffff00
EndChar

StartChar: t
Encoding: 116 116 315
Width: 834
VWidth: 1819
Flags: HMW
LayerCount: 2
Fore
SplineSet
706 108 m 1
 706 22 l 1
 546 22 l 2
 415 22 320 125 320 240 c 2
 320 1279 l 1
 420 1279 l 1
 420 240 l 2
 420 161 483 108 546 108 c 2
 706 108 l 1
EndSplineSet
Refer: 429 57354 N 1.03767 0 0 1 -3.76712 460 2
Colour: ffff00
EndChar

StartChar: u
Encoding: 117 117 316
Width: 1108
VWidth: 1819
Flags: HMW
LayerCount: 2
Fore
SplineSet
838 1043 m 1
 938 1043 l 1
 938 0 l 1
 838 0 l 1
 838 1043 l 1
EndSplineSet
Refer: 432 57357 N -1 0 0 -1 1088 1043 2
Colour: ffff00
EndChar

StartChar: v
Encoding: 118 118 317
Width: 1041
VWidth: 1819
Flags: HMW
LayerCount: 2
Fore
SplineSet
880 1043 m 1
 985 1043 l 1
 581 22 l 1
 462 22 l 1
 56 1043 l 1
 161 1043 l 1
 521 139 l 1
 880 1043 l 1
EndSplineSet
Colour: ffff00
EndChar

StartChar: w
Encoding: 119 119 318
Width: 1459
VWidth: 1819
Flags: HMW
LayerCount: 2
Fore
SplineSet
1296 1043 m 1
 1400 1043 l 1
 1102 22 l 1
 977 22 l 1
 730 881 l 1
 483 22 l 1
 358 22 l 1
 59 1043 l 1
 163 1043 l 1
 420 162 l 1
 674 1043 l 1
 785 1043 l 1
 1040 162 l 1
 1296 1043 l 1
EndSplineSet
Colour: ffff00
EndChar

StartChar: x
Encoding: 120 120 319
Width: 1127
VWidth: 1819
Flags: HMW
LayerCount: 2
Fore
SplineSet
941 1043 m 1
 1062 1043 l 1
 624 507 l 1
 1038 0 l 1
 916 0 l 1
 564 432 l 1
 211 0 l 1
 89 0 l 1
 503 507 l 1
 65 1043 l 1
 186 1043 l 1
 564 581 l 1
 941 1043 l 1
EndSplineSet
Colour: ffff00
EndChar

StartChar: y
Encoding: 121 121 320
Width: 1057
VWidth: 1819
Flags: HMW
LayerCount: 2
Fore
SplineSet
897 1043 m 1
 1001 1043 l 1
 612 52 l 2
 526 -168 436 -396 154 -396 c 2
 100 -396 l 1
 100 -312 l 1
 154 -312 l 2
 336 -312 413 -180 495 23 c 1
 481 22 l 1
 73 1043 l 1
 178 1043 l 1
 541 138 l 1
 897 1043 l 1
EndSplineSet
Colour: ffff00
EndChar

StartChar: z
Encoding: 122 122 321
Width: 1021
VWidth: 1819
Flags: HMW
LayerCount: 2
Fore
SplineSet
100 936 m 1
 100 1020 l 1
 921 1020 l 1
 921 917 l 1
 207 108 l 1
 921 108 l 1
 921 22 l 1
 100 22 l 1
 100 127 l 1
 813 936 l 1
 100 936 l 1
EndSplineSet
Colour: ffff00
EndChar

StartChar: bar
Encoding: 124 124 322
Width: 440
VWidth: 1819
Flags: HMW
LayerCount: 2
Fore
SplineSet
170 1411 m 1
 270 1411 l 1
 270 -419 l 1
 170 -419 l 1
 170 1411 l 1
EndSplineSet
Colour: ffff
EndChar

StartChar: asciitilde
Encoding: 126 126 323
Width: 868
VWidth: 1819
Flags: HMW
LayerCount: 2
Fore
SplineSet
727 1354 m 1
 783 1330 l 1
 731 1210 652 1154 581 1154 c 0
 520 1154 472 1175 416 1218 c 0
 362 1258 335 1269 288 1269 c 0
 249 1269 188 1243 142 1135 c 1
 86 1159 l 1
 138 1281 219 1329 288 1329 c 0
 349 1329 394 1310 452 1266 c 0
 504 1227 534 1214 581 1214 c 0
 618 1214 681 1246 727 1354 c 1
EndSplineSet
Colour: ff00
EndChar

StartChar: cent
Encoding: 162 162 325
Width: 1074
VWidth: 1819
Flags: HMW
LayerCount: 2
Fore
SplineSet
594 978 m 1
 494 978 l 1
 494 1411 l 1
 594 1411 l 1
 594 978 l 1
594 -364 m 1
 494 -364 l 1
 494 65 l 1
 594 65 l 1
 594 -364 l 1
EndSplineSet
Refer: 298 99 N 1 0 0 1 0 0 2
Colour: ffff00
EndChar

StartChar: sterling
Encoding: 163 163 326
Width: 1254
VWidth: 1819
Flags: HMW
LayerCount: 2
Fore
SplineSet
120 108 m 17
 242 108 307 160 307 282 c 2
 307 1108 l 2
 307 1257 427 1388 594 1388 c 0
 741 1388 854 1285 877 1159 c 1
 779 1147 l 1
 762 1241 681 1304 594 1304 c 0
 497 1304 407 1223 407 1108 c 2
 407 282 l 2
 407 216 390 155 348 108 c 1
 1134 108 l 1
 1134 22 l 1
 120 22 l 1
 120 108 l 17
EndSplineSet
Refer: 429 57354 N 1 0 0 1 20 0 2
Colour: ffff00
EndChar

StartChar: currency
Encoding: 164 164 327
Width: 1263
VWidth: 1819
Flags: HMW
LayerCount: 2
Fore
SplineSet
390 889 m 1
 310 839 l 1
 80 1102 l 1
 160 1152 l 1
 390 889 l 1
310 202 m 1
 390 152 l 1
 160 -111 l 1
 80 -61 l 1
 310 202 l 1
953 839 m 1
 873 889 l 1
 1103 1152 l 1
 1183 1102 l 1
 953 839 l 1
873 152 m 1
 953 202 l 1
 1183 -61 l 1
 1103 -111 l 1
 873 152 l 1
EndSplineSet
Refer: 310 111 N 1 0 0 1 88 0 2
Colour: ffff00
EndChar

StartChar: brokenbar
Encoding: 166 166 329
Width: 440
VWidth: 1819
Flags: HMW
LayerCount: 2
Fore
SplineSet
270 875 m 1
 170 875 l 1
 170 1411 l 1
 270 1411 l 1
 270 875 l 1
270 0 m 1
 170 0 l 1
 170 519 l 1
 270 519 l 1
 270 0 l 1
EndSplineSet
Colour: ffff
EndChar

StartChar: section
Encoding: 167 167 330
Width: 952
VWidth: 1819
Flags: HMW
LayerCount: 2
Fore
SplineSet
102 276 m 1
 202 276 l 1
 202 126 330 64 476 64 c 0
 623 64 752 127 752 276 c 0
 752 373 636 403 468 426 c 0
 307 448 100 485 100 682 c 0
 100 810 174 896 273 942 c 1
 178 974 100 1029 100 1136 c 0
 100 1345 297 1432 476 1432 c 0
 655 1432 851 1344 851 1136 c 1
 751 1136 l 1
 751 1286 623 1346 476 1346 c 0
 329 1346 200 1285 200 1136 c 0
 200 1039 317 1010 485 984 c 0
 648 960 852 919 852 718 c 0
 852 592 781 512 685 468 c 1
 777 436 852 381 852 276 c 0
 852 67 655 -20 476 -20 c 0
 296 -20 102 68 102 276 c 1
472 899 m 1
 329 898 200 831 200 682 c 0
 200 560 309 535 480 511 c 1
 626 512 752 570 752 718 c 0
 752 846 642 873 472 899 c 1
EndSplineSet
Colour: ffff00
EndChar

StartChar: copyright
Encoding: 169 169 332
Width: 1670
VWidth: 1819
Flags: HMW
LayerCount: 2
Fore
SplineSet
200 728 m 0
 200 368 491 86 835 86 c 0
 1179 86 1470 368 1470 728 c 0
 1470 1088 1179 1368 835 1368 c 0
 491 1368 200 1088 200 728 c 0
100 728 m 0
 100 1124 423 1454 835 1454 c 0
 1247 1454 1570 1124 1570 728 c 0
 1570 332 1247 2 835 2 c 0
 423 2 100 332 100 728 c 0
1142 970 m 1
 1060 922 l 1
 1004 991 918 1028 835 1028 c 0
 674 1028 545 896 545 729 c 0
 545 563 674 432 835 432 c 0
 918 432 1004 468 1060 537 c 1
 1142 489 l 1
 1068 400 954 346 835 346 c 0
 604 346 445 529 445 729 c 0
 445 928 604 1112 835 1112 c 0
 954 1112 1068 1059 1142 970 c 1
EndSplineSet
Colour: ffff00
EndChar

StartChar: ordfeminine
Encoding: 170 170 333
Width: 747
VWidth: 1819
Flags: HMW
LayerCount: 2
Fore
SplineSet
616 917 m 1
 578 869 l 1
 555 888 534 916 522 959 c 1
 471 896 398 864 310 864 c 0
 197 864 120 934 120 1031 c 0
 120 1179 253 1233 411 1233 c 0
 446 1233 475 1231 510 1226 c 1
 510 1307 l 2
 510 1388 440 1425 350 1425 c 0
 260 1425 193 1389 193 1307 c 1
 133 1307 l 1
 133 1437 248 1485 350 1485 c 0
 452 1485 570 1438 570 1307 c 2
 570 1052 l 2
 570 966 595 933 616 917 c 1
510 1057 m 1
 510 1165 l 1
 472 1170 446 1173 411 1173 c 0
 259 1173 180 1127 180 1031 c 0
 180 972 223 924 310 924 c 0
 406 924 474 967 510 1057 c 1
EndSplineSet
Colour: ff00
EndChar

StartChar: logicalnot
Encoding: 172 172 334
Width: 1073
VWidth: 1819
Flags: HMW
LayerCount: 2
Fore
SplineSet
100 468 m 1
 100 552 l 1
 903 552 l 1
 903 238 l 1
 803 238 l 1
 803 468 l 1
 100 468 l 1
EndSplineSet
Colour: ffff00
EndChar

StartChar: registered
Encoding: 174 174 336
Width: 1670
VWidth: 1819
Flags: HMW
LayerCount: 2
Fore
SplineSet
100 728 m 0
 100 1124 423 1454 835 1454 c 0
 1247 1454 1570 1124 1570 728 c 0
 1570 332 1247 2 835 2 c 0
 423 2 100 332 100 728 c 0
200 728 m 0
 200 368 491 86 835 86 c 0
 1179 86 1470 368 1470 728 c 0
 1470 1088 1179 1368 835 1368 c 0
 491 1368 200 1088 200 728 c 0
670 678 m 1
 866 678 l 2
 977 678 1067 745 1067 854 c 0
 1067 963 978 1032 866 1032 c 2
 670 1032 l 1
 670 678 l 1
1145 369 m 1
 1063 321 l 1
 840 592 l 1
 670 592 l 1
 670 345 l 1
 570 345 l 1
 570 1118 l 1
 866 1118 l 2
 1032 1118 1167 1007 1167 854 c 0
 1167 728 1075 633 953 603 c 1
 1145 369 l 1
EndSplineSet
Colour: ffff00
EndChar

StartChar: degree
Encoding: 176 176 338
Width: 646
VWidth: 1819
Flags: HMW
LayerCount: 2
Fore
SplineSet
545 1428 m 0
 545 1305 446 1206 323 1206 c 0
 200 1206 101 1305 101 1428 c 0
 101 1551 200 1650 323 1650 c 0
 446 1650 545 1551 545 1428 c 0
485 1428 m 0
 485 1519 414 1590 323 1590 c 0
 232 1590 161 1519 161 1428 c 0
 161 1337 232 1266 323 1266 c 0
 414 1266 485 1337 485 1428 c 0
EndSplineSet
Colour: ff00
EndChar

StartChar: uni00B2
Encoding: 178 178 340
Width: 658
VWidth: 1819
Flags: HMW
LayerCount: 2
Fore
SplineSet
120 949 m 1
 392 1200 l 0
 421 1229 438 1250 438 1303 c 0
 438 1386 377 1425 309 1425 c 0
 241 1425 180 1386 180 1303 c 1
 120 1303 l 1
 120 1426 217 1485 309 1485 c 0
 401 1485 498 1426 498 1303 c 0
 498 1232 467 1191 434 1158 c 2
 205 949 l 1
 508 949 l 1
 508 889 l 1
 120 889 l 1
 120 949 l 1
EndSplineSet
Colour: ff00
EndChar

StartChar: uni00B3
Encoding: 179 179 341
Width: 606
VWidth: 1819
Flags: HMW
LayerCount: 2
Fore
SplineSet
120 1053 m 1
 180 1053 l 1
 180 998 232 949 303 949 c 0
 374 949 426 998 426 1053 c 0
 426 1108 374 1157 303 1157 c 2
 242 1157 l 1
 242 1217 l 1
 303 1217 l 2
 374 1217 426 1266 426 1321 c 0
 426 1376 374 1425 303 1425 c 0
 232 1425 180 1376 180 1321 c 1
 120 1321 l 1
 120 1416 206 1485 303 1485 c 0
 400 1485 486 1416 486 1321 c 0
 486 1264 456 1217 409 1187 c 1
 454 1158 486 1110 486 1053 c 0
 486 958 400 889 303 889 c 0
 206 889 120 958 120 1053 c 1
EndSplineSet
Colour: ff00
EndChar

StartChar: acute
Encoding: 180 180 342
Width: 517
VWidth: 1819
Flags: HMW
LayerCount: 2
Fore
SplineSet
332 1499 m 1
 382 1467 l 1
 185 1151 l 1
 135 1183 l 1
 332 1499 l 1
EndSplineSet
Colour: ff00
EndChar

StartChar: mu
Encoding: 181 181 343
Width: 1108
VWidth: 1819
Flags: HMW
LayerCount: 2
Fore
SplineSet
838 1043 m 1
 938 1043 l 1
 938 0 l 1
 838 0 l 1
 838 172 l 1
 762 82 647 22 504 22 c 0
 396 22 321 55 270 104 c 1
 270 -787 l 1
 170 -787 l 1
 170 366 l 1
 170 1043 l 1
 270 1043 l 1
 270 366 l 2
 270 244 319 108 504 108 c 0
 698 108 838 256 838 451 c 2
 838 1043 l 1
EndSplineSet
EndChar

StartChar: paragraph
Encoding: 182 182 344
Width: 1236
VWidth: 1819
Flags: HMW
LayerCount: 2
Fore
SplineSet
708 1304 m 1
 516 1304 l 2
 352 1304 200 1166 200 951 c 0
 200 736 352 600 516 600 c 2
 708 600 l 1
 708 1304 l 1
1066 -419 m 1
 966 -419 l 1
 966 1304 l 1
 808 1304 l 1
 808 -419 l 1
 708 -419 l 1
 708 514 l 1
 516 514 l 2
 280 514 100 706 100 951 c 0
 100 1196 280 1388 516 1388 c 2
 1066 1388 l 1
 1066 -419 l 1
EndSplineSet
Colour: ffff00
EndChar

StartChar: cedilla
Encoding: 184 184 346
Width: 723
VWidth: 1819
Flags: HMW
LayerCount: 2
Fore
SplineSet
160 -352 m 1
 202 -396 268 -414 342 -414 c 0
 436 -414 515 -369 515 -318 c 0
 515 -228 420 -106 324 -33 c 1
 374 43 l 1
 500 -48 595 -178 595 -318 c 0
 595 -457 454 -504 342 -504 c 0
 248 -504 170 -478 109 -410 c 1
 160 -352 l 1
EndSplineSet
Colour: ffff00
EndChar

StartChar: uni00B9
Encoding: 185 185 347
Width: 457
VWidth: 1819
Flags: HMW
LayerCount: 2
Fore
SplineSet
89 1283 m 1
 89 1343 l 1
 249 1343 l 1
 250 1455 l 1
 310 1455 l 1
 310 829 l 1
 250 829 l 1
 250 1283 l 1
 89 1283 l 1
EndSplineSet
Colour: ff00
EndChar

StartChar: onequarter
Encoding: 188 188 349
Width: 1965
VWidth: 1819
Flags: HMW
LayerCount: 2
Fore
SplineSet
150 1258 m 1
 150 1344 l 1
 182 1344 l 2
 331 1344 379 1371 404 1448 c 0
 415 1482 421 1529 421 1590 c 1
 521 1590 l 1
 521 530 l 1
 421 530 l 1
 421 1313 l 1
 362 1271 281 1258 182 1258 c 2
 150 1258 l 1
1815 -22 m 1
 1815 -106 l 1
 1669 -106 l 1
 1669 -358 l 1
 1569 -358 l 1
 1569 -106 l 1
 1055 -106 l 1
 1055 -17 l 1
 1552 742 l 1
 1669 742 l 1
 1669 -22 l 1
 1815 -22 l 1
1569 -22 m 1
 1569 594 l 1
 1166 -22 l 1
 1569 -22 l 1
609 21 m 1
 525 67 l 1
 1555 1434 l 1
 1639 1388 l 1
 609 21 l 1
EndSplineSet
Colour: ffff00
EndChar

StartChar: onehalf
Encoding: 189 189 350
Width: 2096
VWidth: 1819
Flags: HMW
LayerCount: 2
Fore
SplineSet
150 1258 m 1
 150 1344 l 1
 182 1344 l 2
 331 1344 379 1371 404 1448 c 0
 415 1482 421 1529 421 1590 c 1
 521 1590 l 1
 521 530 l 1
 421 530 l 1
 421 1313 l 1
 362 1271 281 1258 182 1258 c 2
 150 1258 l 1
606 21 m 1
 522 67 l 1
 1553 1434 l 1
 1637 1388 l 1
 606 21 l 1
1956 -276 m 1
 1956 -360 l 1
 1269 -360 l 1
 1269 -265 l 1
 1758 197 l 2
 1817 253 1856 304 1856 418 c 0
 1856 592 1732 664 1612 664 c 0
 1493 664 1370 592 1370 418 c 1
 1270 418 l 1
 1270 634 1437 750 1612 750 c 0
 1786 750 1956 634 1956 418 c 0
 1956 284 1901 205 1832 141 c 2
 1392 -276 l 1
 1956 -276 l 1
EndSplineSet
Colour: ffff00
EndChar

StartChar: threequarters
Encoding: 190 190 351
Width: 2140
VWidth: 2047
Flags: HMW
LayerCount: 2
Fore
SplineSet
1990 -22 m 1
 1990 -106 l 1
 1844 -106 l 1
 1844 -358 l 1
 1744 -358 l 1
 1744 -106 l 1
 1230 -106 l 1
 1230 -17 l 1
 1728 742 l 1
 1844 742 l 1
 1844 -22 l 1
 1990 -22 l 1
1744 -22 m 1
 1744 593 l 1
 1341 -22 l 1
 1744 -22 l 1
784 21 m 1
 700 67 l 1
 1731 1434 l 1
 1815 1388 l 1
 784 21 l 1
100 819 m 1
 200 819 l 1
 200 645 324 572 443 572 c 0
 574 572 685 666 685 782 c 0
 685 945 583 1000 426 1000 c 2
 340 1000 l 1
 340 1084 l 1
 426 1084 l 2
 582 1084 685 1139 685 1303 c 0
 685 1419 574 1512 443 1512 c 0
 324 1512 200 1439 200 1265 c 1
 100 1265 l 1
 100 1481 268 1598 443 1598 c 0
 630 1598 785 1465 785 1303 c 0
 785 1179 729 1090 634 1042 c 1
 728 995 785 907 785 782 c 0
 785 620 630 488 443 488 c 0
 268 488 100 603 100 819 c 1
EndSplineSet
Colour: ffff00
EndChar

StartChar: AE
Encoding: 198 198 359
Width: 1904
VWidth: 1819
Flags: HMW
LayerCount: 2
Fore
SplineSet
870 1304 m 1
 809 1304 l 1
 400 462 l 1
 870 462 l 1
 870 1304 l 1
1754 108 m 1
 1754 22 l 1
 870 22 l 1
 870 378 l 1
 358 378 l 1
 174 0 l 1
 66 0 l 1
 743 1388 l 1
 1754 1388 l 1
 1754 1304 l 1
 970 1304 l 1
 970 736 l 1
 1754 736 l 1
 1754 650 l 1
 970 650 l 1
 970 108 l 1
 1754 108 l 1
EndSplineSet
Colour: ffff00
EndChar

StartChar: Thorn
Encoding: 222 222 383
Width: 1079
VWidth: 1819
Flags: HMW
LayerCount: 2
Fore
SplineSet
250 414 m 1
 537 414 l 2
 726 414 879 504 879 707 c 0
 879 910 726 1000 537 1000 c 2
 250 1000 l 1
 250 414 l 1
250 0 m 1
 150 0 l 1
 150 1411 l 1
 250 1411 l 1
 250 1086 l 1
 537 1086 l 2
 770 1086 979 960 979 707 c 0
 979 454 770 328 537 328 c 2
 250 328 l 1
 250 0 l 1
EndSplineSet
Colour: ffff00
EndChar

StartChar: germandbls
Encoding: 223 223 384
Width: 1099
VWidth: 1819
Flags: HMW
LayerCount: 2
Fore
SplineSet
517 22 m 1
 517 108 l 1
 814 108 899 125 899 251 c 0
 899 343 840 397 766 449 c 0
 693 501 604 568 604 690 c 0
 604 786 644 836 685 885 c 0
 725 933 765 981 765 1072 c 0
 765 1234 677 1344 507 1344 c 0
 331 1344 250 1235 250 1072 c 2
 250 0 l 1
 150 0 l 1
 150 1072 l 2
 150 1259 259 1428 507 1428 c 0
 749 1428 865 1260 865 1072 c 0
 865 967 822 915 780 865 c 0
 741 819 704 774 704 690 c 0
 704 608 757 567 830 515 c 0
 908 459 999 381 999 251 c 0
 999 43 794 22 517 22 c 1
EndSplineSet
Colour: ffff00
EndChar

StartChar: ae
Encoding: 230 230 391
Width: 1830
VWidth: 1819
Flags: HMW
LayerCount: 2
Fore
SplineSet
854 238 m 1
 798 96 669 -18 463 -18 c 0
 287 -18 150 88 150 257 c 0
 150 486 361 585 619 585 c 0
 673 585 729 581 786 574 c 1
 786 731 l 2
 786 868 690 976 527 976 c 0
 382 976 270 908 270 771 c 1
 170 771 l 1
 170 964 344 1060 527 1060 c 0
 694 1060 815 958 867 832 c 1
 938 944 1056 1060 1229 1060 c 0
 1538 1060 1680 778 1680 521 c 2
 1680 478 l 1
 886 478 l 1
 902 236 1046 68 1255 68 c 0
 1351 68 1464 92 1591 150 c 1
 1639 76 l 1
 1502 14 1371 -18 1255 -18 c 0
 1071 -18 920 88 854 238 c 1
786 487 m 1
 726 496 668 500 614 500 c 0
 401 500 250 428 250 260 c 0
 250 134 329 68 463 68 c 0
 669 68 786 204 786 376 c 2
 786 487 l 1
886 564 m 1
 1579 564 l 1
 1564 783 1443 976 1229 976 c 0
 1016 976 900 783 886 564 c 1
EndSplineSet
EndChar

StartChar: eth
Encoding: 240 240 401
Width: 1088
VWidth: 1819
Flags: HMW
LayerCount: 2
Fore
SplineSet
355 1099 m 1
 740 1411 l 1025
257 1411 m 0
 623 1343 929 837 937 555 c 1024
EndSplineSet
Refer: 310 111 N 1 0 0 1 0 0 2
EndChar

StartChar: dotlessi
Encoding: 305 305 417
Width: 400
VWidth: 1819
Flags: HMW
LayerCount: 2
Fore
SplineSet
150 1043 m 1
 250 1043 l 1
 250 0 l 1
 150 0 l 1
 150 1043 l 1
EndSplineSet
Colour: ffff00
EndChar

StartChar: OE
Encoding: 338 338 418
Width: 1685
VWidth: 1819
Flags: HMW
LayerCount: 2
Fore
SplineSet
704 108 m 1
 704 1303 l 1
 369 1291 200 1049 200 706 c 0
 200 363 369 120 704 108 c 1
1535 1388 m 1
 1535 1304 l 1
 804 1304 l 1
 804 748 l 1
 1535 748 l 1
 1535 664 l 1
 804 664 l 1
 804 108 l 1
 1535 108 l 1
 1535 22 l 1
 731 22 l 2
 301 22 100 334 100 706 c 0
 100 1078 302 1388 731 1388 c 2
 1535 1388 l 1
EndSplineSet
Colour: ffff00
EndChar

StartChar: uniE003
Encoding: 57347 57347 420
Width: 1762
VWidth: 1819
Flags: HMW
LayerCount: 2
Fore
SplineSet
1586 1438 m 1
 1638 1384 l 1
 176 -27 l 1
 124 27 l 1
 1586 1438 l 1
EndSplineSet
Colour: ff00ff
EndChar

StartChar: uniE004
Encoding: 57348 57348 421
Width: 1088
VWidth: 1819
Flags: HMW
LayerCount: 2
Fore
SplineSet
180 -23 m 1
 120 23 l 1
 908 1036 l 1
 968 990 l 1
 180 -23 l 1
EndSplineSet
Colour: ff00ff
EndChar

StartChar: uniE005
Encoding: 57349 57349 423
Width: 1462
VWidth: 1819
Flags: HMW
LayerCount: 2
Fore
SplineSet
1341 -5 m 1
 1283 -53 l 1
 814 507 l 1
 872 555 l 1
 1341 -5 l 1
EndSplineSet
Colour: ff00ff
EndChar

StartChar: uniE006
Encoding: 57350 57350 424
Width: 1146
VWidth: 1819
Flags: HMW
LayerCount: 2
Fore
SplineSet
236 112 m 1
 236 188 l 1
 910 188 l 1
 910 112 l 1
 236 112 l 1
236 438 m 1
 236 514 l 1
 910 514 l 1
 910 438 l 1
 236 438 l 1
EndSplineSet
Colour: ff00ff
EndChar

StartChar: uniE007
Encoding: 57351 57351 425
Width: 869
VWidth: 1954
Flags: HMW
LayerCount: 2
Fore
SplineSet
605 1624 m 1
 581 1568 l 1
 556 1579 l 2
 527 1589 499 1597 472 1597 c 0
 382 1597 325 1535 325 1482 c 0
 325 1408 374 1389 443 1368 c 0
 504 1349 587 1320 587 1226 c 0
 587 1116 457 1057 344 1057 c 0
 280 1057 224 1069 177 1091 c 1
 203 1145 l 1
 240 1127 288 1117 344 1117 c 0
 449 1117 527 1172 527 1226 c 0
 527 1274 492 1289 425 1310 c 0
 358 1331 265 1366 265 1482 c 0
 265 1577 356 1657 472 1657 c 0
 510 1657 548 1648 579 1635 c 2
 605 1624 l 1
EndSplineSet
Colour: ffff
EndChar

StartChar: uniE008
Encoding: 57352 57352 426
Width: 1454
VWidth: 1819
Flags: HMW
LayerCount: 2
Fore
SplineSet
620 1137 m 0
 620 1010 520 906 392 906 c 0
 264 906 162 1010 162 1137 c 0
 162 1259 258 1374 392 1374 c 0
 526 1374 620 1259 620 1137 c 0
546 1137 m 0
 546 1223 480 1298 392 1298 c 0
 304 1298 238 1223 238 1137 c 0
 238 1050 306 980 392 980 c 0
 478 980 546 1050 546 1137 c 0
EndSplineSet
Colour: ff00ff
EndChar

StartChar: uniE009
Encoding: 57353 57353 427
Width: 1146
VWidth: 1819
Flags: HMW
LayerCount: 2
Fore
SplineSet
536 1615 m 1
 610 1615 l 1
 610 -202 l 1
 536 -202 l 1
 536 1615 l 1
EndSplineSet
Colour: ff00ff
EndChar

StartChar: uni0237
Encoding: 567 567 428
Width: 400
VWidth: 1819
Flags: HMW
LayerCount: 2
Fore
SplineSet
-55 -456 m 1
 -55 -370 l 1
 23 -370 l 2
 86 -370 150 -316 150 -238 c 2
 150 1043 l 1
 250 1043 l 1
 250 -238 l 2
 250 -352 154 -456 23 -456 c 2
 -55 -456 l 1
EndSplineSet
Colour: ffff00
EndChar

StartChar: uniE00A
Encoding: 57354 57354 429
Width: 1214
VWidth: 1819
Flags: HMW
LayerCount: 2
Fore
SplineSet
100 480 m 1
 100 556 l 1
 684 556 l 1
 684 480 l 1
 100 480 l 1
EndSplineSet
Colour: ff00ff
EndChar

StartChar: uniE00B
Encoding: 57355 57355 430
Width: 1108
VWidth: 1819
Flags: HMW
LayerCount: 2
Fore
SplineSet
850 551 m 1
 820 469 l 1
 769 483 703 492 635 492 c 0
 435 492 250 417 250 256 c 0
 250 132 329 68 477 68 c 0
 634 68 786 164 786 336 c 1
 886 336 l 1
 886 106 680 -18 473 -18 c 0
 287 -18 150 86 150 261 c 0
 150 495 423 576 635 576 c 0
 713 576 787 567 850 551 c 1
EndSplineSet
Colour: ffff00
EndChar

StartChar: uniE00C
Encoding: 57356 57356 431
Width: 1536
VWidth: 1819
Flags: HMW
LayerCount: 2
Back
SplineSet
1386 0 m 1
 1286 0 l 1
 1286 672 l 2
 1286 819 1216 936 1052 936 c 0
 891 936 818 797 818 692 c 1
 758 692 l 1
 758 839 845 1020 1072 1020 c 0
 1332 1020 1386 853 1386 672 c 2
 1386 0 l 1
EndSplineSet
Fore
SplineSet
1386 0 m 1
 1286 0 l 1
 1286 692 l 2
 1286 839 1206 956 1052 956 c 0
 901 956 818 817 818 692 c 1
 778 692 l 1
 778 859 865 1040 1082 1040 c 0
 1312 1040 1386 873 1386 692 c 2
 1386 0 l 1
EndSplineSet
Colour: ffff00
EndChar

StartChar: uniE00D
Encoding: 57357 57357 432
Width: 1068
VWidth: 1819
Flags: HMW
LayerCount: 2
Back
SplineSet
918 0 m 1
 818 0 l 1
 818 623 l 2
 818 822 719 936 534 936 c 0
 335 936 250 815 250 623 c 1
 190 623 l 1
 190 853 295 1020 554 1020 c 0
 827 1020 918 859 918 623 c 2
 918 0 l 1
EndSplineSet
Fore
SplineSet
918 0 m 1
 818 0 l 1
 818 643 l 2
 818 842 699 956 534 956 c 0
 355 956 250 835 250 623 c 1
 210 623 l 1
 210 873 335 1040 574 1040 c 0
 807 1040 918 879 918 643 c 2
 918 0 l 1
EndSplineSet
Colour: ffff00
EndChar

StartChar: uniE00E
Encoding: 57358 57358 433
Width: 754
VWidth: 1819
Flags: HMW
LayerCount: 2
Fore
SplineSet
250 531 m 1
 150 531 l 1
 150 765 278 1020 581 1020 c 2
 654 1020 l 1
 654 936 l 1
 581 936 l 2
 364 936 250 751 250 531 c 1
EndSplineSet
Colour: ffff00
EndChar

StartChar: uniE00F
Encoding: 57359 57359 434
Width: 1158
VWidth: 1819
Flags: HMW
LayerCount: 2
Back
SplineSet
614 1020 m 0
 923 1020 1058 777 1058 521 c 0
 1058 265 923 22 614 22 c 0
 305 22 170 265 170 521 c 0
 170 777 305 1020 614 1020 c 0
614 936 m 0
 387 936 270 761 270 521 c 0
 270 281 387 108 614 108 c 0
 841 108 958 281 958 521 c 0
 958 761 841 936 614 936 c 0
EndSplineSet
Fore
SplineSet
649 1038 m 0
 937.25 1038 1058 778.343070794 1058 521 c 0
 1058 263.700646607 937.297851562 5 649 5 c 0
 370.540039062 5 220 265.295898438 220 521 c 0
 220 776.747070312 370.594726562 1038 649 1038 c 0
614 958 m 0
 388.028579831 958 270 762.467241979 270 521 c 0
 270 279.474382527 388.10818945 85 614 85 c 0
 839.89180441 85 958 279.47409957 958 521 c 0
 958 762.46697001 839.971418331 958 614 958 c 0
EndSplineSet
Colour: ffff00
EndChar

StartChar: quoteright
Encoding: 8217 8217 436
Width: 598
VWidth: 1854
Flags: HMW
LayerCount: 2
Fore
SplineSet
322 746 m 1
 256 794 l 1
 299 883 346 1059 346 1135 c 0
 346 1224 156 1118 156 1267 c 0
 156 1346 195 1411 292 1411 c 0
 390 1411 442 1335 442 1225 c 0
 442 1081 391 873 322 746 c 1
EndSplineSet
EndChar

StartChar: quoteleft
Encoding: 8216 8216 437
Width: 598
VWidth: 1854
Flags: HMW
LayerCount: 2
Fore
SplineSet
276 746 m 1
 207 873 156 1081 156 1225 c 0
 156 1335 208 1411 306 1411 c 0
 403 1411 442 1346 442 1267 c 0
 442 1118 252 1224 252 1135 c 0
 252 1059 299 883 342 794 c 1
 276 746 l 1
EndSplineSet
EndChar

StartChar: uniFB9F
Encoding: 64415 64415 462
Width: 1690
VWidth: 1854
Flags: HW
AnchorPoint: "Anchor-5" 827 773 basechar 0
AnchorPoint: "Anchor-3" 728 -502 basechar 0
LayerCount: 2
Fore
SplineSet
228 1 m 0
 228 -240 446 -378 729 -378 c 0
 1037 -378 1314 -216 1314 86 c 0
 1314 158 1298 240 1262 333 c 2
 1172 565 l 1
 1266 601 l 1
 1381 307 l 1
 1422 179 1497 124 1690 124 c 1
 1690 24 l 1
 1577 24 1486 44 1414 92 c 1
 1414 86 l 2
 1414 -294 1063 -478 729 -478 c 0
 420 -478 128 -318 128 1 c 0
 128 155 196 380 287 549 c 1
 369 498 l 1
 287 343 228 136 228 1 c 0
EndSplineSet
Colour: ff
EndChar

StartChar: uniFD3E
Encoding: 64830 64830 464
Width: 598
VWidth: 1647
Flags: HW
LayerCount: 2
Fore
SplineSet
440 27 m 1
 356 -27 l 1
 222 183 150 419 150 706 c 0
 150 993 222 1228 356 1438 c 1
 440 1384 l 1
 316 1190 250 977 250 706 c 0
 250 435 316 221 440 27 c 1
EndSplineSet
EndChar

StartChar: uniFD3F
Encoding: 64831 64831 465
Width: 598
VWidth: 1647
Flags: HW
LayerCount: 2
Fore
SplineSet
158 1384 m 1
 242 1438 l 1
 376 1228 448 992 448 705 c 0
 448 418 376 183 242 -27 c 1
 158 27 l 1
 282 221 348 434 348 705 c 0
 348 976 282 1190 158 1384 c 1
EndSplineSet
EndChar
